<?xml version="1.0" encoding="UTF-8" standalone="no"?>
<svg
   xmlns:dc="http://purl.org/dc/elements/1.1/"
   xmlns:cc="http://creativecommons.org/ns#"
   xmlns:rdf="http://www.w3.org/1999/02/22-rdf-syntax-ns#"
   xmlns:svg="http://www.w3.org/2000/svg"
   xmlns="http://www.w3.org/2000/svg"
   viewBox="0 0 1001.96 1004.9173"
   height="1004.9173"
   width="1001.96"
   xml:space="preserve"
   id="svg2"
   version="1.1"><metadata
     id="metadata8"><rdf:RDF><cc:Work
         rdf:about=""><dc:format>image/svg+xml</dc:format><dc:type
           rdf:resource="http://purl.org/dc/dcmitype/StillImage" /></cc:Work></rdf:RDF></metadata><defs
     id="defs6"><clipPath
       id="clipPath18"
       clipPathUnits="userSpaceOnUse"><path
         id="path16"
         d="M 0,753.688 H 751.47 V 0 H 0 Z" /></clipPath><clipPath
       id="clipPath30"
       clipPathUnits="userSpaceOnUse"><path
         id="path28"
         d="m 156.587,411.305 c -0.247,-1.956 -0.457,-3.903 -0.642,-5.843 v 0 c -0.016,-0.178 -0.036,-0.359 -0.053,-0.538 v 0 c -0.172,-1.844 -0.311,-3.681 -0.428,-5.511 v 0 c -0.017,-0.264 -0.036,-0.529 -0.051,-0.791 v 0 c -0.107,-1.785 -0.187,-3.561 -0.242,-5.33 v 0 c -0.01,-0.293 -0.019,-0.586 -0.027,-0.879 v 0 c -0.048,-1.758 -0.071,-3.507 -0.07,-5.248 v 0 c 0,-0.283 0.003,-0.566 0.005,-0.848 v 0 c 0.01,-1.761 0.041,-3.514 0.101,-5.256 v 0 c 0.008,-0.232 0.02,-0.462 0.029,-0.692 v 0 c 0.068,-1.799 0.158,-3.592 0.279,-5.372 v 0 c 0.008,-0.116 0.019,-0.232 0.026,-0.348 v 0 c 0.127,-1.81 0.28,-3.612 0.461,-5.402 v 0 c 0.008,-0.084 0.015,-0.17 0.023,-0.254 v 0 c 0.181,-1.775 0.394,-3.538 0.627,-5.292 v 0 c 0.028,-0.207 0.053,-0.414 0.081,-0.62 v 0 c 0.231,-1.687 0.489,-3.361 0.767,-5.026 v 0 c 0.043,-0.261 0.086,-0.521 0.13,-0.78 v 0 c 0.281,-1.636 0.585,-3.26 0.912,-4.875 v 0 c 0.055,-0.271 0.111,-0.542 0.166,-0.814 v 0 c 0.335,-1.614 0.689,-3.217 1.068,-4.809 v 0 c 0.06,-0.244 0.12,-0.487 0.179,-0.731 v 0 c 0.394,-1.621 0.807,-3.232 1.247,-4.83 v 0 c 0.047,-0.177 0.099,-0.351 0.149,-0.527 v 0 c 0.464,-1.666 0.948,-3.322 1.462,-4.961 v 0 c 0.011,-0.04 0.025,-0.078 0.038,-0.118 v 0 c 0.515,-1.642 1.058,-3.267 1.622,-4.881 v 0 c 0.046,-0.13 0.088,-0.263 0.135,-0.393 v 0 c 0.55,-1.561 1.128,-3.105 1.722,-4.639 v 0 c 0.081,-0.209 0.161,-0.422 0.245,-0.631 v 0 c 0.583,-1.487 1.19,-2.96 1.817,-4.419 v 0 c 0.102,-0.241 0.205,-0.481 0.309,-0.72 v 0 c 0.627,-1.444 1.275,-2.873 1.942,-4.289 v 0 c 0.11,-0.235 0.222,-0.469 0.334,-0.703 v 0 c 0.181,-0.38 0.359,-0.764 0.543,-1.143 v 0 c 0.404,-0.826 0.825,-1.641 1.242,-2.457 v 0 c 0.182,-0.358 0.358,-0.722 0.544,-1.079 v 0 c 0.754,-1.45 1.529,-2.884 2.326,-4.303 v 0 c 0.184,-0.327 0.376,-0.649 0.564,-0.975 v 0 c 0.624,-1.093 1.261,-2.179 1.91,-3.254 v 0 c 0.286,-0.471 0.576,-0.938 0.867,-1.406 v 0 c 0.588,-0.946 1.184,-1.883 1.791,-2.814 v 0 c 0.299,-0.458 0.597,-0.916 0.9,-1.372 v 0 c 0.698,-1.043 1.41,-2.074 2.132,-3.097 v 0 c 0.211,-0.299 0.415,-0.603 0.627,-0.9 v 0 c 0.937,-1.304 1.892,-2.592 2.868,-3.86 v 0 c 0.245,-0.317 0.496,-0.627 0.742,-0.942 v 0 c 0.747,-0.956 1.503,-1.903 2.273,-2.838 v 0 c 0.346,-0.422 0.698,-0.838 1.048,-1.255 v 0 c 0.71,-0.842 1.429,-1.674 2.155,-2.498 v 0 c 0.355,-0.401 0.706,-0.803 1.065,-1.2 v 0 c 0.855,-0.947 1.723,-1.88 2.602,-2.803 v 0 c 0.225,-0.235 0.442,-0.476 0.668,-0.71 v 0 c 1.105,-1.143 2.23,-2.266 3.37,-3.37 v 0 c 0.301,-0.292 0.611,-0.575 0.915,-0.864 v 0 c 0.856,-0.814 1.72,-1.619 2.597,-2.412 v 0 c 0.404,-0.365 0.813,-0.727 1.223,-1.088 v 0 c 0.821,-0.725 1.651,-1.44 2.491,-2.145 v 0 c 0.402,-0.339 0.801,-0.679 1.208,-1.013 v 0 c 1.015,-0.835 2.045,-1.655 3.084,-2.462 v 0 c 0.221,-0.17 0.435,-0.348 0.656,-0.517 v 0 c 0.044,-0.034 0.088,-0.071 0.133,-0.105 v 0 c 0.868,-0.662 1.755,-1.299 2.638,-1.94 v 0 c 0.464,-0.338 0.917,-0.688 1.385,-1.02 v 0 c 1.401,-0.993 2.82,-1.961 4.26,-2.903 v 0 l 105.347,-68.909 c -1.439,0.941 -2.858,1.91 -4.258,2.903 v 0 c -0.474,0.335 -0.933,0.689 -1.403,1.031 v 0 c -0.923,0.671 -1.85,1.34 -2.754,2.034 v 0 c -0.222,0.169 -0.438,0.346 -0.657,0.517 v 0 c -1.039,0.807 -2.068,1.626 -3.083,2.461 v 0 c -0.407,0.335 -0.809,0.676 -1.212,1.015 v 0 c -0.837,0.705 -1.666,1.419 -2.486,2.142 v 0 c -0.41,0.363 -0.82,0.725 -1.226,1.092 v 0 c -0.875,0.79 -1.738,1.594 -2.592,2.406 v 0 c -0.306,0.29 -0.617,0.575 -0.919,0.868 v 0 c -1.141,1.104 -2.265,2.227 -3.37,3.37 v 0 c -0.225,0.234 -0.444,0.476 -0.669,0.711 v 0 c -0.877,0.922 -1.746,1.854 -2.6,2.801 v 0 c -0.359,0.397 -0.712,0.8 -1.067,1.203 v 0 c -0.726,0.822 -1.444,1.654 -2.152,2.494 v 0 c -0.351,0.417 -0.703,0.835 -1.049,1.256 v 0 c -0.77,0.935 -1.526,1.883 -2.274,2.839 v 0 c -0.246,0.315 -0.498,0.624 -0.741,0.941 v 0 c -0.976,1.27 -1.932,2.556 -2.868,3.86 v 0 c -0.212,0.298 -0.417,0.602 -0.628,0.901 v 0 c -0.722,1.022 -1.434,2.054 -2.131,3.097 v 0 c -0.304,0.455 -0.601,0.914 -0.9,1.373 v 0 c -0.608,0.93 -1.204,1.868 -1.793,2.815 v 0 c -0.29,0.466 -0.58,0.932 -0.865,1.403 v 0 c -0.651,1.073 -1.285,2.16 -1.91,3.253 v 0 c -0.188,0.328 -0.38,0.649 -0.566,0.978 v 0 c -0.795,1.417 -1.57,2.852 -2.324,4.3 v 0 c -0.186,0.359 -0.364,0.725 -0.548,1.086 v 0 c -0.607,1.189 -1.205,2.385 -1.782,3.595 v 0 c -0.112,0.234 -0.223,0.468 -0.335,0.703 v 0 c -0.666,1.415 -1.314,2.845 -1.94,4.286 v 0 c -0.104,0.241 -0.207,0.482 -0.31,0.723 v 0 c -0.627,1.46 -1.233,2.932 -1.817,4.418 v 0 c -0.083,0.21 -0.163,0.422 -0.245,0.633 v 0 c -0.595,1.533 -1.171,3.077 -1.721,4.637 v 0 c -0.047,0.131 -0.09,0.264 -0.137,0.396 v 0 c -0.563,1.612 -1.106,3.238 -1.622,4.879 v 0 c -0.012,0.039 -0.025,0.078 -0.038,0.117 v 0 c -0.513,1.638 -0.996,3.292 -1.459,4.955 v 0 c -0.051,0.18 -0.103,0.357 -0.152,0.536 v 0 c -0.44,1.595 -0.852,3.203 -1.244,4.823 v 0 c -0.061,0.246 -0.122,0.492 -0.181,0.739 v 0 c -0.378,1.591 -0.734,3.193 -1.067,4.805 v 0 c -0.056,0.271 -0.111,0.543 -0.166,0.815 v 0 c -0.327,1.614 -0.631,3.237 -0.913,4.872 v 0 c -0.045,0.261 -0.086,0.524 -0.13,0.785 v 0 c -0.278,1.664 -0.536,3.338 -0.766,5.023 v 0 c -0.028,0.206 -0.053,0.414 -0.081,0.621 v 0 c -0.233,1.754 -0.447,3.517 -0.627,5.291 v 0 c -0.009,0.085 -0.017,0.17 -0.025,0.256 v 0 c -0.18,1.789 -0.333,3.59 -0.46,5.4 v 0 c -0.008,0.116 -0.018,0.231 -0.026,0.348 v 0 c -0.12,1.78 -0.21,3.572 -0.279,5.372 v 0 c -0.01,0.231 -0.02,0.461 -0.029,0.692 v 0 c -0.059,1.742 -0.091,3.493 -0.101,5.252 v 0 c -0.002,0.285 -0.004,0.57 -0.004,0.855 v 0 c -0.002,1.741 0.022,3.489 0.069,5.245 v 0 c 0.009,0.293 0.018,0.587 0.026,0.88 v 0 c 0.056,1.768 0.136,3.544 0.242,5.326 v 0 c 0.017,0.266 0.036,0.533 0.053,0.799 v 0 c 0.117,1.829 0.256,3.664 0.426,5.508 v 0 c 0.018,0.178 0.037,0.358 0.054,0.536 v 0 c 0.186,1.942 0.396,3.888 0.641,5.843 v 0 c 12.36,98.327 96.914,178.042 188.857,178.042 v 0 c 29.725,0 56.583,-8.333 78.904,-22.933 v 0 l -105.348,68.909 c -22.321,14.6 -49.178,22.933 -78.903,22.933 v 0 c -91.943,0 -176.497,-79.716 -188.856,-178.041" /></clipPath><linearGradient
       id="linearGradient40"
       spreadMethod="pad"
       gradientTransform="matrix(-88,-380,-380,88,371.91385,580.98535)"
       gradientUnits="userSpaceOnUse"
       y2="0"
       x2="1"
       y1="0"
       x1="0"><stop
         id="stop36"
         offset="0"
         style="stop-opacity:1;stop-color:#1b1b1b" /><stop
         id="stop38"
         offset="1"
         style="stop-opacity:1;stop-color:#131313" /></linearGradient><clipPath
       id="clipPath50"
       clipPathUnits="userSpaceOnUse"><path
         id="path48"
         d="M 0,753.688 H 751.47 V 0 H 0 Z" /></clipPath><clipPath
       id="clipPath62"
       clipPathUnits="userSpaceOnUse"><path
         id="path60"
         d="m 533.769,698.313 c 33.892,-25.907 61.435,-59.839 80.769,-99.496 v 0 c 26.257,-53.864 37.368,-118.29 28.667,-187.512 v 0 C 619.434,222.202 456.835,68.909 280.023,68.909 v 0 c -57.166,0 -108.819,16.025 -151.743,44.102 v 0 L 233.626,44.102 C 276.551,16.025 328.204,0 385.371,0 v 0 c 176.811,0 339.411,153.292 363.181,342.395 v 0 c 1.937,15.405 2.892,30.575 2.917,45.441 v 0 1.212 c -0.086,51.476 -11.329,99.307 -31.585,140.859 v 0 c -19.332,39.658 -46.876,73.59 -80.768,99.496 v 0 c -5.163,3.947 -10.475,7.708 -15.927,11.274 v 0 l -105.348,68.909 c 5.452,-3.566 10.764,-7.326 15.928,-11.273" /></clipPath><linearGradient
       id="linearGradient72"
       spreadMethod="pad"
       gradientTransform="matrix(-292,-670,-670,292,626.51923,639.52948)"
       gradientUnits="userSpaceOnUse"
       y2="0"
       x2="1"
       y1="0"
       x1="0"><stop
         id="stop68"
         offset="0"
         style="stop-opacity:1;stop-color:#1b1b1b" /><stop
         id="stop70"
         offset="1"
         style="stop-opacity:1;stop-color:#131313" /></linearGradient></defs><g
     transform="matrix(1.3333333,0,0,-1.3333333,0,1004.9173)"
     id="g10"><g
       id="g12"><g
         clip-path="url(#clipPath18)"
         id="g14"><g
           transform="translate(627.9614,566.6221)"
           id="g20"><path
             id="path22"
             style="fill:#121212;fill-opacity:1;fill-rule:nonzero;stroke:none"
             d="M 0,0 C 0.386,-1.101 0.765,-2.206 1.139,-3.313 1.299,-3.786 1.466,-4.255 1.623,-4.729 1.766,-5.158 1.899,-5.592 2.041,-6.021 1.379,-4.004 0.7,-1.996 0,0 M -2.554,6.988 C -2.39,6.555 -2.222,6.125 -2.06,5.69 -1.658,4.618 -1.27,3.538 -0.88,2.458 -0.718,2.008 -0.552,1.559 -0.392,1.107 -1.093,3.08 -1.815,5.039 -2.554,6.988 m -2.741,6.971 c 0.129,-0.317 0.26,-0.633 0.388,-0.95 0.293,-0.727 0.588,-1.451 0.875,-2.181 0.235,-0.598 0.463,-1.201 0.695,-1.801 -0.639,1.653 -1.292,3.296 -1.958,4.932 m -3.142,7.438 c 0.065,-0.148 0.131,-0.296 0.197,-0.445 0.412,-0.943 0.817,-1.89 1.22,-2.839 0.311,-0.731 0.622,-1.463 0.927,-2.198 0.022,-0.052 0.042,-0.104 0.064,-0.156 -0.784,1.891 -1.588,3.77 -2.408,5.638 m -3.189,7.018 c 0.047,-0.101 0.096,-0.2 0.143,-0.301 0.339,-0.724 0.676,-1.452 1.01,-2.18 0.425,-0.926 0.845,-1.854 1.261,-2.786 0.022,-0.047 0.042,-0.094 0.064,-0.142 -0.81,1.814 -1.635,3.617 -2.478,5.409 m -2.701,5.567 c 0.199,-0.401 0.408,-0.796 0.605,-1.199 0.311,-0.634 0.618,-1.27 0.925,-1.906 0.101,-0.209 0.198,-0.419 0.299,-0.629 -0.599,1.252 -1.214,2.493 -1.829,3.734 m -3.646,7.112 c 0.14,-0.263 0.286,-0.522 0.425,-0.785 0.194,-0.37 0.393,-0.737 0.586,-1.107 0.213,-0.411 0.414,-0.83 0.627,-1.242 -0.54,1.049 -1.086,2.094 -1.638,3.134 m -3.82,6.975 c 0.185,-0.324 0.378,-0.642 0.561,-0.968 0.189,-0.338 0.374,-0.681 0.562,-1.02 0.198,-0.356 0.386,-0.72 0.583,-1.078 -0.564,1.026 -1.13,2.05 -1.706,3.066 m -3.99,6.837 c 0.055,-0.093 0.115,-0.184 0.171,-0.277 0.268,-0.447 0.538,-0.894 0.804,-1.343 0.267,-0.449 0.521,-0.907 0.786,-1.358 -0.584,0.996 -1.166,1.992 -1.761,2.978 m -4.157,6.695 c 0.166,-0.26 0.339,-0.512 0.505,-0.771 0.002,-0.003 0.003,-0.006 0.005,-0.009 0.434,-0.681 0.846,-1.381 1.275,-2.066 -0.594,0.95 -1.182,1.904 -1.785,2.846 m -4.269,6.467 c 0.265,-0.388 0.526,-0.778 0.788,-1.168 0.311,-0.461 0.608,-0.932 0.916,-1.395 -0.567,0.854 -1.128,1.716 -1.704,2.563 m -4.421,6.317 c 0.095,-0.131 0.192,-0.259 0.285,-0.39 0.408,-0.568 0.799,-1.151 1.203,-1.723 -0.498,0.704 -0.984,1.415 -1.488,2.113 m -4.295,5.796 c 0.022,-0.029 0.044,-0.058 0.067,-0.088 0.102,-0.135 0.202,-0.275 0.304,-0.411 -0.125,0.165 -0.246,0.334 -0.371,0.499 m -6.74,8.494 c 0.249,-0.303 0.506,-0.599 0.754,-0.903 0.064,-0.079 0.129,-0.158 0.194,-0.238 -0.312,0.384 -0.634,0.759 -0.948,1.141 m -5.501,6.464 c 0.533,-0.608 1.082,-1.201 1.61,-1.815 0.072,-0.083 0.141,-0.168 0.212,-0.251 0.047,-0.054 0.091,-0.11 0.138,-0.165 -0.645,0.752 -1.307,1.487 -1.96,2.231 m -5.366,5.941 c 0.396,-0.427 0.803,-0.844 1.197,-1.273 0.301,-0.328 0.6,-0.658 0.899,-0.987 -0.691,0.761 -1.396,1.507 -2.096,2.26 m -5.444,5.686 c 0.379,-0.385 0.768,-0.76 1.145,-1.147 0.227,-0.233 0.457,-0.462 0.684,-0.696 0.171,-0.178 0.337,-0.363 0.509,-0.542 -0.772,0.803 -1.556,1.592 -2.338,2.385 m -5.556,5.48 c 0.4,-0.384 0.811,-0.757 1.21,-1.143 0.312,-0.303 0.621,-0.611 0.932,-0.915 0.103,-0.101 0.202,-0.204 0.303,-0.304 -0.809,0.794 -1.627,1.578 -2.445,2.362 m -5.689,5.296 c 0.251,-0.227 0.508,-0.446 0.758,-0.674 0.358,-0.326 0.717,-0.65 1.072,-0.977 0.237,-0.218 0.466,-0.445 0.703,-0.663 -0.838,0.777 -1.684,1.547 -2.533,2.314 m -5.822,5.116 c 0.384,-0.327 0.778,-0.642 1.16,-0.971 0.141,-0.122 0.279,-0.247 0.42,-0.369 0.344,-0.297 0.677,-0.607 1.019,-0.907 -0.862,0.755 -1.728,1.504 -2.599,2.247 M -89,127.597 c 0.164,-0.132 0.332,-0.259 0.495,-0.391 0.403,-0.325 0.805,-0.652 1.205,-0.98 0.319,-0.26 0.628,-0.53 0.945,-0.791 -0.878,0.724 -1.757,1.448 -2.645,2.162 m -6.354,4.963 c 0.441,-0.334 0.887,-0.664 1.327,-1 0.538,-0.413 1.062,-0.843 1.597,-1.26 -0.972,0.757 -1.942,1.516 -2.924,2.26 m -6.626,4.86 c 0.016,-0.012 0.033,-0.023 0.049,-0.035 0.557,-0.394 1.106,-0.798 1.659,-1.197 0.785,-0.565 1.572,-1.127 2.35,-1.701 0.396,-0.291 0.784,-0.59 1.177,-0.883 -1.731,1.291 -3.473,2.567 -5.235,3.816 m -5.495,3.778 c 0.493,-0.33 0.99,-0.654 1.479,-0.987 0.459,-0.313 0.911,-0.635 1.368,-0.95 0.713,-0.492 1.425,-0.984 2.132,-1.483 -1.645,1.16 -3.307,2.298 -4.979,3.42 m -30.95,-296.515 c -12.36,-98.333 -96.915,-178.047 -188.854,-178.047 -6.179,0 -12.23,0.371 -18.146,1.073 -0.34,0.579 -0.686,1.153 -1.019,1.736 -0.188,0.327 -0.381,0.649 -0.566,0.978 -0.796,1.417 -1.571,2.851 -2.324,4.3 -0.187,0.359 -0.364,0.725 -0.548,1.086 -0.607,1.189 -1.205,2.385 -1.782,3.594 -0.112,0.235 -0.224,0.469 -0.335,0.704 -0.666,1.415 -1.314,2.845 -1.94,4.287 -0.105,0.24 -0.208,0.481 -0.311,0.722 -0.626,1.46 -1.232,2.932 -1.816,4.418 -0.083,0.21 -0.164,0.422 -0.246,0.633 -0.594,1.533 -1.17,3.077 -1.72,4.637 -0.047,0.131 -0.09,0.264 -0.137,0.395 -0.563,1.614 -1.106,3.239 -1.622,4.88 -0.013,0.039 -0.025,0.078 -0.038,0.118 -0.513,1.637 -0.996,3.29 -1.46,4.954 -0.05,0.18 -0.103,0.357 -0.151,0.537 -0.44,1.594 -0.852,3.203 -1.245,4.822 -0.06,0.246 -0.121,0.492 -0.18,0.739 -0.378,1.591 -0.734,3.193 -1.068,4.805 -0.055,0.272 -0.111,0.543 -0.166,0.815 -0.326,1.613 -0.631,3.237 -0.912,4.871 -0.045,0.262 -0.087,0.525 -0.131,0.786 -0.278,1.664 -0.535,3.338 -0.765,5.023 -0.029,0.206 -0.054,0.414 -0.081,0.621 -0.234,1.754 -0.447,3.517 -0.628,5.291 -0.009,0.085 -0.016,0.171 -0.024,0.256 -0.18,1.789 -0.333,3.59 -0.46,5.4 -0.008,0.116 -0.018,0.232 -0.026,0.348 -0.121,1.781 -0.211,3.573 -0.279,5.372 -0.01,0.231 -0.021,0.461 -0.029,0.692 -0.059,1.742 -0.091,3.493 -0.101,5.252 -0.002,0.285 -0.004,0.57 -0.004,0.855 -0.002,1.74 0.021,3.489 0.069,5.245 0.008,0.293 0.017,0.587 0.026,0.88 0.056,1.768 0.135,3.543 0.242,5.326 0.016,0.266 0.035,0.533 0.053,0.799 0.117,1.829 0.255,3.664 0.426,5.508 0.017,0.178 0.037,0.358 0.054,0.537 0.186,1.94 0.396,3.887 0.641,5.842 12.36,98.327 96.914,178.041 188.857,178.041 6.186,0 12.239,-0.381 18.162,-1.084 17.66,-29.965 25.692,-67.413 20.584,-108.047 m -305.896,78.77 c 1.697,2.888 3.46,5.732 5.285,8.529 -1.825,-2.797 -3.588,-5.641 -5.285,-8.529 m -11.678,-177.211 c 0.257,-0.51 0.513,-1.02 0.772,-1.529 0.092,-0.181 0.183,-0.361 0.274,-0.543 -0.354,0.687 -0.702,1.378 -1.046,2.072 M 3.331,-10.016 c 0.12,-0.382 0.232,-0.769 0.351,-1.152 0.213,-0.688 0.419,-1.38 0.627,-2.071 -0.53,1.755 -1.072,3.503 -1.63,5.242 0.217,-0.674 0.441,-1.343 0.652,-2.019 m 1.617,-5.338 c 0.191,-0.647 0.371,-1.299 0.557,-1.949 0.328,-1.143 0.656,-2.287 0.972,-3.437 0.058,-0.212 0.113,-0.427 0.17,-0.64 -0.589,2.168 -1.199,4.324 -1.832,6.469 0.043,-0.149 0.09,-0.295 0.133,-0.443 m 2.967,-10.822 c 0.198,-0.777 0.389,-1.557 0.582,-2.337 l 0.05,-0.206 c -0.462,1.874 -0.941,3.741 -1.436,5.599 0.271,-1.017 0.543,-2.034 0.804,-3.056 m 1.349,-5.488 c 0.189,-0.802 0.373,-1.607 0.557,-2.413 0.191,-0.837 0.378,-1.675 0.563,-2.514 -0.426,1.938 -0.87,3.867 -1.33,5.789 0.069,-0.288 0.141,-0.574 0.21,-0.862 m 1.781,-7.994 c 0.219,-1.043 0.433,-2.089 0.643,-3.137 0.114,-0.572 0.224,-1.145 0.335,-1.719 -0.381,1.967 -0.78,3.925 -1.196,5.876 0.072,-0.34 0.147,-0.679 0.218,-1.02 m 1.716,-8.78 c 0.149,-0.826 0.299,-1.653 0.442,-2.482 0.079,-0.455 0.151,-0.913 0.229,-1.369 -0.312,1.847 -0.639,3.685 -0.982,5.518 0.104,-0.556 0.209,-1.11 0.311,-1.667 m 1.378,-8.166 c 0.172,-1.108 0.334,-2.221 0.495,-3.334 0.029,-0.199 0.057,-0.398 0.086,-0.597 -0.286,2.001 -0.59,3.995 -0.911,5.981 0.11,-0.683 0.223,-1.365 0.33,-2.05 m 0.84,-5.727 c 0.161,-1.17 0.309,-2.345 0.458,-3.52 0.095,-0.747 0.195,-1.493 0.285,-2.242 0.034,-0.285 0.062,-0.572 0.095,-0.857 -0.267,2.286 -0.555,4.563 -0.869,6.83 0.01,-0.07 0.021,-0.141 0.031,-0.211 m 1.159,-85.127 c -0.057,-0.541 -0.106,-1.079 -0.164,-1.619 -0.049,-0.443 -0.106,-0.887 -0.156,-1.329 0.109,0.983 0.217,1.966 0.32,2.948 m 0.035,75.339 c 0.063,-0.59 0.135,-1.178 0.195,-1.77 0.095,-0.928 0.174,-1.862 0.262,-2.794 -0.178,1.887 -0.369,3.766 -0.578,5.64 0.04,-0.358 0.082,-0.717 0.121,-1.076 m 0.743,-7.605 c 0.024,-0.288 0.042,-0.578 0.066,-0.865 0.138,-1.667 0.267,-3.337 0.38,-5.012 0.008,-0.109 0.013,-0.218 0.02,-0.327 -0.161,2.42 -0.351,4.829 -0.563,7.23 0.031,-0.343 0.068,-0.683 0.097,-1.026 m 0.571,-7.948 c 0.079,-1.279 0.159,-2.558 0.223,-3.842 0.035,-0.696 0.061,-1.395 0.092,-2.092 -0.094,2.105 -0.205,4.204 -0.336,6.295 0.008,-0.12 0.014,-0.241 0.021,-0.361 m 0.472,-9.797 c 0.028,-0.843 0.048,-1.689 0.069,-2.533 0.017,-0.627 0.03,-1.255 0.043,-1.883 -0.042,1.989 -0.099,3.972 -0.174,5.949 0.019,-0.511 0.044,-1.021 0.062,-1.533 m 0.177,-8.61 c 0.01,-1.134 0.017,-2.269 0.016,-3.406 0,-0.375 -0.004,-0.752 -0.006,-1.127 0.009,2.187 0,4.368 -0.033,6.543 0.01,-0.669 0.017,-1.34 0.023,-2.01 m -0.039,-9.478 c -0.017,-0.897 -0.035,-1.795 -0.058,-2.693 -0.007,-0.281 -0.018,-0.563 -0.025,-0.845 0.055,2.048 0.093,4.09 0.115,6.127 -0.009,-0.862 -0.018,-1.724 -0.032,-2.589 m -0.161,-6.117 c -0.031,-0.896 -0.063,-1.793 -0.101,-2.691 -0.048,-1.156 -0.106,-2.315 -0.165,-3.473 -0.001,-0.021 -0.002,-0.042 -0.003,-0.062 0.111,2.171 0.204,4.336 0.277,6.495 -0.004,-0.09 -0.006,-0.179 -0.008,-0.269 m -0.409,-8.83 c -0.069,-1.186 -0.149,-2.376 -0.231,-3.566 -0.06,-0.867 -0.115,-1.732 -0.181,-2.6 -0.009,-0.112 -0.019,-0.226 -0.028,-0.338 0.183,2.386 0.34,4.764 0.475,7.136 -0.012,-0.211 -0.022,-0.421 -0.035,-0.632 m -0.72,-9.914 c -0.07,-0.812 -0.134,-1.624 -0.209,-2.438 -0.07,-0.751 -0.152,-1.505 -0.225,-2.257 0.197,2.009 0.378,4.013 0.542,6.013 -0.036,-0.439 -0.07,-0.878 -0.108,-1.318 m 103.784,-83.809 c 0.262,2.085 0.504,4.165 0.73,6.24 0.075,0.692 0.139,1.382 0.21,2.073 0.144,1.383 0.286,2.766 0.413,4.144 0.077,0.819 0.141,1.635 0.211,2.453 0.107,1.247 0.213,2.494 0.307,3.737 0.066,0.871 0.122,1.74 0.182,2.609 0.081,1.185 0.162,2.37 0.23,3.552 0.053,0.896 0.098,1.789 0.145,2.682 0.058,1.154 0.115,2.306 0.164,3.456 0.037,0.904 0.07,1.805 0.1,2.707 0.04,1.137 0.074,2.273 0.103,3.407 0.023,0.903 0.042,1.806 0.057,2.707 0.021,1.131 0.035,2.26 0.043,3.388 0.007,0.893 0.013,1.787 0.014,2.678 0.001,1.135 -0.007,2.267 -0.017,3.398 -0.007,0.878 -0.015,1.757 -0.029,2.632 -0.019,1.148 -0.048,2.292 -0.078,3.435 -0.022,0.854 -0.042,1.708 -0.07,2.559 -0.039,1.18 -0.091,2.356 -0.142,3.532 -0.035,0.806 -0.065,1.614 -0.106,2.419 -0.065,1.276 -0.144,2.547 -0.222,3.818 -0.043,0.698 -0.079,1.398 -0.126,2.094 -0.113,1.674 -0.243,3.343 -0.381,5.009 -0.023,0.287 -0.041,0.577 -0.066,0.864 -0.165,1.95 -0.349,3.893 -0.547,5.83 -0.063,0.606 -0.135,1.208 -0.199,1.813 -0.145,1.332 -0.288,2.664 -0.448,3.99 -0.09,0.75 -0.19,1.495 -0.285,2.242 -0.148,1.174 -0.297,2.347 -0.458,3.515 -0.11,0.806 -0.23,1.607 -0.347,2.411 -0.16,1.105 -0.321,2.211 -0.492,3.312 -0.129,0.827 -0.264,1.65 -0.398,2.474 -0.176,1.073 -0.353,2.145 -0.537,3.214 -0.145,0.832 -0.295,1.662 -0.446,2.492 -0.19,1.053 -0.384,2.105 -0.585,3.153 -0.16,0.833 -0.323,1.663 -0.489,2.492 -0.208,1.045 -0.422,2.087 -0.639,3.126 -0.173,0.821 -0.347,1.642 -0.525,2.46 -0.228,1.045 -0.463,2.087 -0.7,3.127 -0.185,0.804 -0.368,1.609 -0.558,2.411 -0.249,1.051 -0.506,2.098 -0.764,3.145 -0.194,0.782 -0.385,1.565 -0.584,2.344 -0.275,1.077 -0.561,2.148 -0.847,3.22 -0.196,0.739 -0.39,1.479 -0.592,2.216 -0.314,1.147 -0.641,2.288 -0.969,3.429 -0.187,0.652 -0.368,1.306 -0.558,1.955 -0.411,1.4 -0.836,2.792 -1.266,4.182 -0.119,0.384 -0.231,0.772 -0.351,1.156 -0.555,1.77 -1.124,3.532 -1.708,5.286 -0.158,0.475 -0.325,0.945 -0.486,1.419 -0.431,1.276 -0.865,2.55 -1.312,3.817 -0.231,0.654 -0.472,1.304 -0.707,1.957 -0.389,1.078 -0.778,2.155 -1.178,3.226 -0.265,0.711 -0.539,1.417 -0.809,2.124 -0.384,1.007 -0.769,2.013 -1.164,3.013 -0.289,0.732 -0.584,1.46 -0.877,2.189 -0.39,0.967 -0.782,1.933 -1.181,2.894 -0.308,0.74 -0.619,1.476 -0.933,2.212 -0.401,0.945 -0.805,1.888 -1.216,2.827 -0.321,0.736 -0.646,1.47 -0.973,2.202 -0.415,0.931 -0.835,1.858 -1.26,2.782 -0.334,0.729 -0.671,1.457 -1.011,2.182 -0.432,0.923 -0.871,1.843 -1.312,2.76 -0.211,0.438 -0.415,0.883 -0.629,1.32 -0.097,0.199 -0.201,0.393 -0.298,0.591 -1.056,2.154 -2.134,4.293 -3.238,6.413 -0.195,0.374 -0.395,0.743 -0.591,1.116 -1.02,1.936 -2.058,3.858 -3.117,5.764 -0.19,0.341 -0.374,0.684 -0.565,1.023 -1.166,2.079 -2.359,4.138 -3.572,6.18 -0.268,0.453 -0.539,0.903 -0.811,1.354 -1.246,2.072 -2.507,4.133 -3.802,6.168 -0.006,0.01 -0.013,0.02 -0.02,0.031 -1.3,2.043 -2.632,4.059 -3.98,6.062 -0.291,0.433 -0.582,0.867 -0.876,1.299 -1.328,1.951 -2.677,3.886 -4.05,5.799 -0.219,0.305 -0.443,0.606 -0.664,0.91 -1.263,1.744 -2.545,3.471 -3.845,5.181 -0.253,0.333 -0.503,0.669 -0.757,1.001 -1.425,1.858 -2.875,3.694 -4.343,5.511 -0.32,0.396 -0.642,0.789 -0.964,1.183 -1.454,1.779 -2.923,3.544 -4.418,5.283 -0.075,0.087 -0.148,0.176 -0.223,0.263 -1.55,1.799 -3.13,3.57 -4.724,5.325 -0.351,0.388 -0.704,0.776 -1.057,1.161 -1.581,1.722 -3.18,3.426 -4.803,5.105 -0.232,0.241 -0.47,0.476 -0.702,0.716 -1.494,1.533 -3.006,3.047 -4.534,4.544 -0.318,0.31 -0.632,0.623 -0.95,0.932 -1.665,1.614 -3.352,3.206 -5.056,4.776 -0.361,0.333 -0.726,0.661 -1.089,0.992 -1.641,1.494 -3.297,2.973 -4.974,4.426 -0.147,0.128 -0.293,0.259 -0.44,0.387 -1.779,1.535 -3.584,3.039 -5.402,4.527 -0.408,0.333 -0.816,0.666 -1.225,0.997 -1.817,1.468 -3.65,2.919 -5.506,4.341 -0.058,0.043 -0.114,0.091 -0.173,0.135 -0.669,0.512 -1.347,1.011 -2.022,1.517 -0.568,0.425 -1.131,0.855 -1.702,1.276 -0.792,0.584 -1.593,1.157 -2.393,1.732 -0.54,0.389 -1.075,0.783 -1.618,1.168 -0.893,0.632 -1.794,1.253 -2.694,1.874 -0.459,0.317 -0.913,0.64 -1.375,0.955 -1.365,0.929 -2.739,1.847 -4.122,2.752 l -105.348,68.909 c 0.42,-0.274 0.832,-0.558 1.25,-0.834 -43.171,28.589 -95.267,44.936 -152.99,44.936 -176.815,0 -339.414,-153.295 -363.183,-342.383 -16.336,-129.956 37.147,-242.998 129.587,-300.999 -1.417,0.889 -2.826,1.79 -4.226,2.705 l 105.347,-68.91 c 42.925,-28.077 94.577,-44.101 151.744,-44.101 176.812,0 339.411,153.292 363.182,342.395" /></g></g></g><g
       id="g24"><g
         clip-path="url(#clipPath30)"
         id="g26"><g
           id="g32"><g
             id="g34"><path
               id="path42"
               style="fill:url(#linearGradient40);stroke:none"
               d="m 156.587,411.305 c -0.247,-1.956 -0.457,-3.903 -0.642,-5.843 v 0 c -0.016,-0.178 -0.036,-0.359 -0.053,-0.538 v 0 c -0.172,-1.844 -0.311,-3.681 -0.428,-5.511 v 0 c -0.017,-0.264 -0.036,-0.529 -0.051,-0.791 v 0 c -0.107,-1.785 -0.187,-3.561 -0.242,-5.33 v 0 c -0.01,-0.293 -0.019,-0.586 -0.027,-0.879 v 0 c -0.048,-1.758 -0.071,-3.507 -0.07,-5.248 v 0 c 0,-0.283 0.003,-0.566 0.005,-0.848 v 0 c 0.01,-1.761 0.041,-3.514 0.101,-5.256 v 0 c 0.008,-0.232 0.02,-0.462 0.029,-0.692 v 0 c 0.068,-1.799 0.158,-3.592 0.279,-5.372 v 0 c 0.008,-0.116 0.019,-0.232 0.026,-0.348 v 0 c 0.127,-1.81 0.28,-3.612 0.461,-5.402 v 0 c 0.008,-0.084 0.015,-0.17 0.023,-0.254 v 0 c 0.181,-1.775 0.394,-3.538 0.627,-5.292 v 0 c 0.028,-0.207 0.053,-0.414 0.081,-0.62 v 0 c 0.231,-1.687 0.489,-3.361 0.767,-5.026 v 0 c 0.043,-0.261 0.086,-0.521 0.13,-0.78 v 0 c 0.281,-1.636 0.585,-3.26 0.912,-4.875 v 0 c 0.055,-0.271 0.111,-0.542 0.166,-0.814 v 0 c 0.335,-1.614 0.689,-3.217 1.068,-4.809 v 0 c 0.06,-0.244 0.12,-0.487 0.179,-0.731 v 0 c 0.394,-1.621 0.807,-3.232 1.247,-4.83 v 0 c 0.047,-0.177 0.099,-0.351 0.149,-0.527 v 0 c 0.464,-1.666 0.948,-3.322 1.462,-4.961 v 0 c 0.011,-0.04 0.025,-0.078 0.038,-0.118 v 0 c 0.515,-1.642 1.058,-3.267 1.622,-4.881 v 0 c 0.046,-0.13 0.088,-0.263 0.135,-0.393 v 0 c 0.55,-1.561 1.128,-3.105 1.722,-4.639 v 0 c 0.081,-0.209 0.161,-0.422 0.245,-0.631 v 0 c 0.583,-1.487 1.19,-2.96 1.817,-4.419 v 0 c 0.102,-0.241 0.205,-0.481 0.309,-0.72 v 0 c 0.627,-1.444 1.275,-2.873 1.942,-4.289 v 0 c 0.11,-0.235 0.222,-0.469 0.334,-0.703 v 0 c 0.181,-0.38 0.359,-0.764 0.543,-1.143 v 0 c 0.404,-0.826 0.825,-1.641 1.242,-2.457 v 0 c 0.182,-0.358 0.358,-0.722 0.544,-1.079 v 0 c 0.754,-1.45 1.529,-2.884 2.326,-4.303 v 0 c 0.184,-0.327 0.376,-0.649 0.564,-0.975 v 0 c 0.624,-1.093 1.261,-2.179 1.91,-3.254 v 0 c 0.286,-0.471 0.576,-0.938 0.867,-1.406 v 0 c 0.588,-0.946 1.184,-1.883 1.791,-2.814 v 0 c 0.299,-0.458 0.597,-0.916 0.9,-1.372 v 0 c 0.698,-1.043 1.41,-2.074 2.132,-3.097 v 0 c 0.211,-0.299 0.415,-0.603 0.627,-0.9 v 0 c 0.937,-1.304 1.892,-2.592 2.868,-3.86 v 0 c 0.245,-0.317 0.496,-0.627 0.742,-0.942 v 0 c 0.747,-0.956 1.503,-1.903 2.273,-2.838 v 0 c 0.346,-0.422 0.698,-0.838 1.048,-1.255 v 0 c 0.71,-0.842 1.429,-1.674 2.155,-2.498 v 0 c 0.355,-0.401 0.706,-0.803 1.065,-1.2 v 0 c 0.855,-0.947 1.723,-1.88 2.602,-2.803 v 0 c 0.225,-0.235 0.442,-0.476 0.668,-0.71 v 0 c 1.105,-1.143 2.23,-2.266 3.37,-3.37 v 0 c 0.301,-0.292 0.611,-0.575 0.915,-0.864 v 0 c 0.856,-0.814 1.72,-1.619 2.597,-2.412 v 0 c 0.404,-0.365 0.813,-0.727 1.223,-1.088 v 0 c 0.821,-0.725 1.651,-1.44 2.491,-2.145 v 0 c 0.402,-0.339 0.801,-0.679 1.208,-1.013 v 0 c 1.015,-0.835 2.045,-1.655 3.084,-2.462 v 0 c 0.221,-0.17 0.435,-0.348 0.656,-0.517 v 0 c 0.044,-0.034 0.088,-0.071 0.133,-0.105 v 0 c 0.868,-0.662 1.755,-1.299 2.638,-1.94 v 0 c 0.464,-0.338 0.917,-0.688 1.385,-1.02 v 0 c 1.401,-0.993 2.82,-1.961 4.26,-2.903 v 0 l 105.347,-68.909 c -1.439,0.941 -2.858,1.91 -4.258,2.903 v 0 c -0.474,0.335 -0.933,0.689 -1.403,1.031 v 0 c -0.923,0.671 -1.85,1.34 -2.754,2.034 v 0 c -0.222,0.169 -0.438,0.346 -0.657,0.517 v 0 c -1.039,0.807 -2.068,1.626 -3.083,2.461 v 0 c -0.407,0.335 -0.809,0.676 -1.212,1.015 v 0 c -0.837,0.705 -1.666,1.419 -2.486,2.142 v 0 c -0.41,0.363 -0.82,0.725 -1.226,1.092 v 0 c -0.875,0.79 -1.738,1.594 -2.592,2.406 v 0 c -0.306,0.29 -0.617,0.575 -0.919,0.868 v 0 c -1.141,1.104 -2.265,2.227 -3.37,3.37 v 0 c -0.225,0.234 -0.444,0.476 -0.669,0.711 v 0 c -0.877,0.922 -1.746,1.854 -2.6,2.801 v 0 c -0.359,0.397 -0.712,0.8 -1.067,1.203 v 0 c -0.726,0.822 -1.444,1.654 -2.152,2.494 v 0 c -0.351,0.417 -0.703,0.835 -1.049,1.256 v 0 c -0.77,0.935 -1.526,1.883 -2.274,2.839 v 0 c -0.246,0.315 -0.498,0.624 -0.741,0.941 v 0 c -0.976,1.27 -1.932,2.556 -2.868,3.86 v 0 c -0.212,0.298 -0.417,0.602 -0.628,0.901 v 0 c -0.722,1.022 -1.434,2.054 -2.131,3.097 v 0 c -0.304,0.455 -0.601,0.914 -0.9,1.373 v 0 c -0.608,0.93 -1.204,1.868 -1.793,2.815 v 0 c -0.29,0.466 -0.58,0.932 -0.865,1.403 v 0 c -0.651,1.073 -1.285,2.16 -1.91,3.253 v 0 c -0.188,0.328 -0.38,0.649 -0.566,0.978 v 0 c -0.795,1.417 -1.57,2.852 -2.324,4.3 v 0 c -0.186,0.359 -0.364,0.725 -0.548,1.086 v 0 c -0.607,1.189 -1.205,2.385 -1.782,3.595 v 0 c -0.112,0.234 -0.223,0.468 -0.335,0.703 v 0 c -0.666,1.415 -1.314,2.845 -1.94,4.286 v 0 c -0.104,0.241 -0.207,0.482 -0.31,0.723 v 0 c -0.627,1.46 -1.233,2.932 -1.817,4.418 v 0 c -0.083,0.21 -0.163,0.422 -0.245,0.633 v 0 c -0.595,1.533 -1.171,3.077 -1.721,4.637 v 0 c -0.047,0.131 -0.09,0.264 -0.137,0.396 v 0 c -0.563,1.612 -1.106,3.238 -1.622,4.879 v 0 c -0.012,0.039 -0.025,0.078 -0.038,0.117 v 0 c -0.513,1.638 -0.996,3.292 -1.459,4.955 v 0 c -0.051,0.18 -0.103,0.357 -0.152,0.536 v 0 c -0.44,1.595 -0.852,3.203 -1.244,4.823 v 0 c -0.061,0.246 -0.122,0.492 -0.181,0.739 v 0 c -0.378,1.591 -0.734,3.193 -1.067,4.805 v 0 c -0.056,0.271 -0.111,0.543 -0.166,0.815 v 0 c -0.327,1.614 -0.631,3.237 -0.913,4.872 v 0 c -0.045,0.261 -0.086,0.524 -0.13,0.785 v 0 c -0.278,1.664 -0.536,3.338 -0.766,5.023 v 0 c -0.028,0.206 -0.053,0.414 -0.081,0.621 v 0 c -0.233,1.754 -0.447,3.517 -0.627,5.291 v 0 c -0.009,0.085 -0.017,0.17 -0.025,0.256 v 0 c -0.18,1.789 -0.333,3.59 -0.46,5.4 v 0 c -0.008,0.116 -0.018,0.231 -0.026,0.348 v 0 c -0.12,1.78 -0.21,3.572 -0.279,5.372 v 0 c -0.01,0.231 -0.02,0.461 -0.029,0.692 v 0 c -0.059,1.742 -0.091,3.493 -0.101,5.252 v 0 c -0.002,0.285 -0.004,0.57 -0.004,0.855 v 0 c -0.002,1.741 0.022,3.489 0.069,5.245 v 0 c 0.009,0.293 0.018,0.587 0.026,0.88 v 0 c 0.056,1.768 0.136,3.544 0.242,5.326 v 0 c 0.017,0.266 0.036,0.533 0.053,0.799 v 0 c 0.117,1.829 0.256,3.664 0.426,5.508 v 0 c 0.018,0.178 0.037,0.358 0.054,0.536 v 0 c 0.186,1.942 0.396,3.888 0.641,5.843 v 0 c 12.36,98.327 96.914,178.042 188.857,178.042 v 0 c 29.725,0 56.583,-8.333 78.904,-22.933 v 0 l -105.348,68.909 c -22.321,14.6 -49.178,22.933 -78.903,22.933 v 0 c -91.943,0 -176.497,-79.716 -188.856,-178.041" /></g></g></g></g><g
       id="g44"><g
         clip-path="url(#clipPath50)"
         id="g46"><g
           transform="translate(300.6821,233.2578)"
           id="g52"><path
             id="path54"
             style="fill:#292929;fill-opacity:1;fill-rule:nonzero;stroke:none"
             d="m 0,0 c 91.939,0 176.494,79.714 188.854,178.047 12.36,98.327 -52.154,178.041 -144.093,178.041 -91.943,0 -176.497,-79.714 -188.857,-178.041 C -156.456,79.714 -91.942,0 0,0 m 65.419,520.43 c 176.811,0 300.872,-153.295 277.103,-342.383 -23.77,-189.103 -186.37,-342.395 -363.181,-342.395 -176.814,0 -300.876,153.292 -277.105,342.395 23.769,189.088 186.368,342.383 363.183,342.383" /></g></g></g><g
       id="g56"><g
         clip-path="url(#clipPath62)"
         id="g58"><g
           id="g64"><g
             id="g66"><path
               id="path74"
               style="fill:url(#linearGradient72);stroke:none"
               d="m 533.769,698.313 c 33.892,-25.907 61.435,-59.839 80.769,-99.496 v 0 c 26.257,-53.864 37.368,-118.29 28.667,-187.512 v 0 C 619.434,222.202 456.835,68.909 280.023,68.909 v 0 c -57.166,0 -108.819,16.025 -151.743,44.102 v 0 L 233.626,44.102 C 276.551,16.025 328.204,0 385.371,0 v 0 c 176.811,0 339.411,153.292 363.181,342.395 v 0 c 1.937,15.405 2.892,30.575 2.917,45.441 v 0 1.212 c -0.086,51.476 -11.329,99.307 -31.585,140.859 v 0 c -19.332,39.658 -46.876,73.59 -80.768,99.496 v 0 c -5.163,3.947 -10.475,7.708 -15.927,11.274 v 0 l -105.348,68.909 c 5.452,-3.566 10.764,-7.326 15.928,-11.273" /></g></g></g></g></g></svg>