<?xml version="1.0" encoding="UTF-8" standalone="no"?>
<svg
    xmlns:dc="http://purl.org/dc/elements/1.1/"
    xmlns:cc="http://creativecommons.org/ns#"
    xmlns:rdf="http://www.w3.org/1999/02/22-rdf-syntax-ns#"
    xmlns:svg="http://www.w3.org/2000/svg"
    xmlns="http://www.w3.org/2000/svg"
    viewBox="0 0 997.35602 1002.9147"
    height="1002.9147"
    width="997.35602"
    xml:space="preserve"
    id="svg2"
    version="1.1">
    <metadata id="metadata8">
        <rdf:RDF>
            <cc:Work rdf:about="">
                <dc:format>image/svg+xml</dc:format><dc:type rdf:resource="http://purl.org/dc/dcmitype/StillImage"/></cc:Work>
        </rdf:RDF>
    </metadata>
    <defs id="defs6">
        <clipPath id="clipPath18" clipPathUnits="userSpaceOnUse"><path id="path16" d="M 0,752.186 H 748.017 V 0 H 0 Z"/></clipPath>
        <clipPath id="clipPath30" clipPathUnits="userSpaceOnUse"><path
            id="path28"
            d="m 481.883,430.272 c -0.002,-1.524 -0.024,-3.046 -0.062,-4.566 v 0 c -0.012,-0.505 -0.037,-1.01 -0.055,-1.516 v 0 c -0.034,-1.013 -0.063,-2.025 -0.111,-3.035 v 0 c -0.03,-0.608 -0.073,-1.214 -0.108,-1.822 v 0 c -0.052,-0.905 -0.099,-1.811 -0.164,-2.714 v 0 c -0.045,-0.644 -0.105,-1.287 -0.158,-1.93 v 0 c -0.07,-0.865 -0.134,-1.73 -0.216,-2.593 v 0 c -0.062,-0.662 -0.138,-1.321 -0.207,-1.981 v 0 c -0.087,-0.84 -0.169,-1.681 -0.267,-2.52 v 0 c -0.079,-0.675 -0.172,-1.348 -0.257,-2.021 v 0 c -0.104,-0.821 -0.204,-1.644 -0.319,-2.463 v 0 c -0.094,-0.682 -0.203,-1.362 -0.305,-2.043 v 0 c -0.12,-0.806 -0.237,-1.613 -0.368,-2.417 v 0 c -0.112,-0.692 -0.237,-1.38 -0.356,-2.07 v 0 c -0.137,-0.791 -0.27,-1.581 -0.415,-2.368 v 0 c -0.128,-0.695 -0.269,-1.386 -0.405,-2.079 v 0 c -0.152,-0.779 -0.301,-1.558 -0.462,-2.334 v 0 c -0.146,-0.698 -0.303,-1.394 -0.455,-2.091 v 0 c -0.168,-0.766 -0.332,-1.533 -0.507,-2.298 v 0 c -0.161,-0.694 -0.333,-1.386 -0.501,-2.079 v 0 c -0.184,-0.762 -0.365,-1.526 -0.557,-2.285 v 0 c -0.175,-0.691 -0.362,-1.378 -0.544,-2.066 v 0 c -0.199,-0.756 -0.396,-1.513 -0.605,-2.266 v 0 c -0.19,-0.688 -0.391,-1.373 -0.588,-2.059 v 0 c -0.217,-0.748 -0.428,-1.498 -0.653,-2.243 v 0 c -0.204,-0.687 -0.421,-1.37 -0.634,-2.054 v 0 c -0.229,-0.739 -0.458,-1.48 -0.694,-2.215 v 0 c -0.223,-0.685 -0.453,-1.365 -0.681,-2.046 v 0 c -0.244,-0.731 -0.487,-1.463 -0.739,-2.19 v 0 c -0.235,-0.681 -0.48,-1.357 -0.722,-2.034 v 0 c -0.266,-0.742 -0.53,-1.483 -0.803,-2.222 v 0 c -0.177,-0.478 -0.359,-0.953 -0.539,-1.429 v 0 c -0.318,-0.84 -0.639,-1.677 -0.969,-2.512 v 0 c -0.197,-0.503 -0.397,-1.003 -0.597,-1.503 v 0 c -0.331,-0.821 -0.666,-1.639 -1.006,-2.455 v 0 c -0.201,-0.485 -0.403,-0.971 -0.609,-1.454 v 0 c -0.372,-0.874 -0.75,-1.743 -1.134,-2.611 v 0 c -0.181,-0.411 -0.359,-0.824 -0.543,-1.234 v 0 c -0.567,-1.266 -1.144,-2.526 -1.735,-3.78 v 0 c -0.002,-0.004 -0.003,-0.009 -0.007,-0.013 v 0 c -0.592,-1.258 -1.2,-2.508 -1.817,-3.753 v 0 c -0.2,-0.404 -0.407,-0.806 -0.61,-1.209 v 0 c -0.424,-0.842 -0.851,-1.683 -1.286,-2.518 v 0 c -0.243,-0.467 -0.49,-0.933 -0.736,-1.398 v 0 c -0.34,-0.644 -0.686,-1.283 -1.032,-1.924 v 0 c -0.886,-1.634 -1.786,-3.258 -2.712,-4.867 v 0 c -0.025,-0.043 -0.049,-0.087 -0.073,-0.131 v 0 c -0.951,-1.647 -1.929,-3.274 -2.919,-4.893 v 0 c -0.267,-0.435 -0.536,-0.867 -0.804,-1.298 v 0 c -0.849,-1.364 -1.71,-2.717 -2.587,-4.059 v 0 c -0.179,-0.275 -0.353,-0.553 -0.535,-0.826 v 0 c -1.035,-1.57 -2.092,-3.121 -3.166,-4.66 v 0 c -0.282,-0.405 -0.568,-0.805 -0.853,-1.207 v 0 c -0.788,-1.113 -1.584,-2.216 -2.392,-3.311 v 0 c -0.308,-0.417 -0.613,-0.836 -0.923,-1.25 v 0 c -1.076,-1.437 -2.162,-2.864 -3.271,-4.273 v 0 c -0.037,-0.048 -0.077,-0.094 -0.114,-0.142 v 0 c -1.074,-1.362 -2.169,-2.705 -3.273,-4.037 v 0 c -0.336,-0.405 -0.675,-0.805 -1.014,-1.207 v 0 c -0.874,-1.039 -1.757,-2.069 -2.651,-3.089 v 0 c -0.32,-0.366 -0.636,-0.733 -0.959,-1.095 v 0 c -1.184,-1.336 -2.382,-2.658 -3.598,-3.96 v 0 c -0.187,-0.202 -0.38,-0.398 -0.57,-0.598 v 0 c -1.045,-1.112 -2.103,-2.212 -3.172,-3.299 v 0 c -0.375,-0.382 -0.752,-0.761 -1.13,-1.139 v 0 c -0.994,-0.997 -1.999,-1.983 -3.012,-2.956 v 0 c -0.295,-0.284 -0.585,-0.571 -0.881,-0.852 v 0 c -1.283,-1.221 -2.583,-2.424 -3.896,-3.61 v 0 c -0.274,-0.247 -0.553,-0.488 -0.828,-0.735 v 0 c -1.181,-1.054 -2.373,-2.093 -3.577,-3.118 v 0 c -0.361,-0.307 -0.72,-0.616 -1.083,-0.921 v 0 c -1.435,-1.204 -2.881,-2.392 -4.346,-3.553 v 0 c -0.207,-0.164 -0.418,-0.324 -0.625,-0.486 v 0 c -1.294,-1.018 -2.601,-2.017 -3.918,-3.001 v 0 c -0.393,-0.294 -0.787,-0.588 -1.181,-0.879 v 0 c -1.511,-1.111 -3.03,-2.205 -4.569,-3.27 v 0 c -1.125,-0.778 -2.258,-1.543 -3.396,-2.297 v 0 c -0.33,-0.218 -0.663,-0.427 -0.993,-0.643 v 0 c -0.818,-0.534 -1.638,-1.066 -2.464,-1.586 v 0 c -0.44,-0.277 -0.883,-0.547 -1.325,-0.82 v 0 c -0.725,-0.449 -1.451,-0.896 -2.182,-1.336 v 0 c -0.48,-0.288 -0.963,-0.57 -1.445,-0.855 v 0 c -0.699,-0.411 -1.4,-0.82 -2.103,-1.222 v 0 c -0.503,-0.286 -1.004,-0.568 -1.508,-0.849 v 0 c -0.697,-0.39 -1.396,-0.774 -2.097,-1.154 v 0 c -0.508,-0.276 -1.019,-0.549 -1.528,-0.82 v 0 c -0.71,-0.375 -1.422,-0.745 -2.137,-1.112 v 0 c -0.504,-0.258 -1.008,-0.516 -1.513,-0.771 v 0 c -0.74,-0.371 -1.485,-0.733 -2.231,-1.094 v 0 c -0.484,-0.234 -0.966,-0.471 -1.453,-0.7 v 0 c -1.137,-0.54 -2.279,-1.069 -3.427,-1.583 v 0 c -0.142,-0.063 -0.283,-0.122 -0.424,-0.185 v 0 c -1.036,-0.46 -2.075,-0.908 -3.118,-1.347 v 0 c -0.353,-0.15 -0.706,-0.297 -1.06,-0.442 v 0 c -0.913,-0.378 -1.829,-0.747 -2.747,-1.109 v 0 c -0.299,-0.118 -0.597,-0.239 -0.896,-0.355 v 0 c -1.187,-0.46 -2.379,-0.908 -3.576,-1.342 v 0 c -0.24,-0.087 -0.481,-0.169 -0.723,-0.255 v 0 c -0.976,-0.349 -1.958,-0.69 -2.942,-1.022 v 0 c -0.368,-0.124 -0.735,-0.246 -1.105,-0.368 v 0 c -0.976,-0.321 -1.957,-0.634 -2.939,-0.938 v 0 c -0.254,-0.079 -0.508,-0.162 -0.764,-0.239 v 0 c -1.216,-0.37 -2.439,-0.725 -3.664,-1.068 v 0 c -0.305,-0.085 -0.609,-0.165 -0.914,-0.249 v 0 c -0.957,-0.261 -1.915,-0.514 -2.876,-0.758 v 0 c -0.372,-0.095 -0.745,-0.189 -1.118,-0.281 v 0 c -1.082,-0.267 -2.167,-0.525 -3.256,-0.77 v 0 c -0.169,-0.038 -0.338,-0.08 -0.508,-0.117 v 0 c -1.245,-0.278 -2.497,-0.536 -3.753,-0.785 v 0 c -0.344,-0.068 -0.691,-0.131 -1.037,-0.198 v 0 c -0.955,-0.182 -1.915,-0.356 -2.876,-0.522 v 0 c -0.369,-0.063 -0.736,-0.127 -1.105,-0.188 v 0 c -1.269,-0.21 -2.542,-0.41 -3.818,-0.589 v 0 c -1.149,-0.161 -2.293,-0.306 -3.436,-0.442 v 0 c -0.362,-0.042 -0.724,-0.08 -1.086,-0.121 v 0 c -0.79,-0.088 -1.58,-0.171 -2.368,-0.247 v 0 c -0.405,-0.039 -0.811,-0.076 -1.217,-0.112 v 0 c -0.773,-0.068 -1.545,-0.129 -2.315,-0.186 v 0 c -0.375,-0.027 -0.752,-0.057 -1.125,-0.081 v 0 c -0.96,-0.063 -1.917,-0.117 -2.871,-0.161 v 0 c -0.17,-0.009 -0.341,-0.02 -0.51,-0.027 v 0 c -1.122,-0.05 -2.239,-0.085 -3.354,-0.108 v 0 c -0.322,-0.006 -0.641,-0.008 -0.963,-0.013 v 0 c -0.8,-0.012 -1.597,-0.02 -2.393,-0.019 v 0 c -0.393,10e-4 -0.785,0.004 -1.175,0.008 v 0 c -0.748,0.006 -1.494,0.019 -2.238,0.036 v 0 c -0.376,0.009 -0.753,0.018 -1.129,0.03 v 0 c -0.853,0.026 -1.703,0.062 -2.552,0.105 v 0 c -0.249,0.012 -0.499,0.02 -0.747,0.034 v 0 c -1.089,0.059 -2.176,0.131 -3.258,0.214 v 0 c -0.27,0.022 -0.539,0.047 -0.809,0.069 v 0 c -0.816,0.068 -1.63,0.141 -2.441,0.222 v 0 c -0.375,0.037 -0.747,0.078 -1.121,0.118 v 0 c -0.724,0.078 -1.446,0.162 -2.167,0.251 v 0 c -0.373,0.046 -0.746,0.091 -1.118,0.141 v 0 c -0.781,0.102 -1.559,0.212 -2.336,0.328 v 0 c -0.287,0.043 -0.576,0.082 -0.864,0.126 v 0 c -1.056,0.164 -2.106,0.338 -3.154,0.524 v 0 c -0.197,0.035 -0.39,0.075 -0.586,0.11 v 0 c -0.852,0.157 -1.702,0.319 -2.549,0.49 v 0 c -0.351,0.071 -0.702,0.145 -1.052,0.219 v 0 c -0.701,0.148 -1.4,0.299 -2.098,0.457 v 0 c -0.367,0.083 -0.732,0.166 -1.098,0.252 v 0 c -0.721,0.171 -1.441,0.347 -2.158,0.528 v 0 c -0.309,0.077 -0.619,0.153 -0.928,0.232 v 0 c -1.033,0.268 -2.062,0.545 -3.085,0.836 v 0 c -0.137,0.039 -0.272,0.081 -0.408,0.121 v 0 c -0.889,0.255 -1.773,0.52 -2.655,0.794 v 0 c -0.328,0.1 -0.654,0.206 -0.981,0.31 v 0 c -0.706,0.224 -1.409,0.454 -2.11,0.689 v 0 c -0.339,0.114 -0.676,0.227 -1.014,0.344 v 0 c -0.759,0.261 -1.516,0.531 -2.268,0.807 v 0 c -0.246,0.089 -0.492,0.175 -0.737,0.266 v 0 c -0.988,0.366 -1.97,0.743 -2.946,1.132 v 0 c -0.219,0.088 -0.435,0.178 -0.653,0.267 v 0 c -0.762,0.307 -1.523,0.622 -2.278,0.943 v 0 c -0.324,0.138 -0.646,0.278 -0.968,0.418 v 0 c -0.671,0.292 -1.339,0.589 -2.005,0.891 v 0 c -0.313,0.142 -0.627,0.284 -0.938,0.428 v 0 c -0.786,0.364 -1.564,0.734 -2.342,1.112 v 0 c -0.16,0.079 -0.321,0.154 -0.48,0.232 v 0 c -1.674,0.823 -3.33,1.678 -4.965,2.568 v 0 l 113.966,-61.996 c 1.636,-0.89 3.29,-1.745 4.964,-2.568 v 0 c 0.02,-0.01 0.04,-0.022 0.061,-0.031 v 0 c 0.141,-0.07 0.286,-0.136 0.427,-0.204 v 0 c 0.773,-0.376 1.55,-0.746 2.331,-1.108 v 0 c 0.315,-0.146 0.63,-0.288 0.946,-0.431 v 0 c 0.664,-0.301 1.332,-0.598 2.002,-0.89 v 0 c 0.322,-0.139 0.643,-0.279 0.967,-0.417 v 0 c 0.753,-0.32 1.511,-0.633 2.271,-0.94 v 0 c 0.221,-0.09 0.44,-0.183 0.663,-0.271 v 0 c 0.974,-0.388 1.954,-0.765 2.941,-1.131 v 0 c 0.248,-0.092 0.498,-0.18 0.748,-0.27 v 0 c 0.749,-0.274 1.502,-0.542 2.258,-0.802 v 0 c 0.337,-0.117 0.677,-0.232 1.017,-0.346 v 0 c 0.699,-0.236 1.402,-0.464 2.107,-0.688 v 0 c 0.328,-0.105 0.655,-0.21 0.984,-0.312 v 0 c 0.88,-0.272 1.763,-0.536 2.65,-0.792 v 0 c 0.138,-0.039 0.273,-0.082 0.411,-0.121 v 0 c 1.024,-0.291 2.053,-0.568 3.086,-0.836 v 0 c 0.082,-0.021 0.162,-0.045 0.246,-0.067 v 0 c 0.225,-0.058 0.454,-0.109 0.68,-0.166 v 0 c 0.719,-0.181 1.439,-0.358 2.162,-0.528 v 0 c 0.364,-0.085 0.727,-0.168 1.092,-0.251 v 0 c 0.699,-0.158 1.4,-0.311 2.104,-0.458 v 0 c 0.35,-0.073 0.699,-0.148 1.05,-0.22 v 0 c 0.844,-0.169 1.689,-0.33 2.537,-0.486 v 0 c 0.199,-0.037 0.399,-0.077 0.599,-0.112 v 0 c 1.046,-0.187 2.095,-0.36 3.15,-0.523 v 0 c 0.291,-0.045 0.585,-0.086 0.877,-0.129 v 0 c 0.771,-0.115 1.545,-0.225 2.321,-0.327 v 0 c 0.375,-0.049 0.751,-0.095 1.127,-0.142 v 0 c 0.719,-0.089 1.439,-0.172 2.161,-0.249 v 0 c 0.374,-0.04 0.747,-0.082 1.121,-0.12 v 0 c 0.812,-0.081 1.626,-0.153 2.441,-0.22 v 0 c 0.271,-0.023 0.54,-0.049 0.811,-0.07 v 0 c 1.082,-0.083 2.168,-0.154 3.258,-0.214 v 0 c 0.249,-0.013 0.499,-0.021 0.748,-0.034 v 0 c 0.847,-0.041 1.696,-0.077 2.547,-0.105 v 0 c 0.377,-0.012 0.755,-0.02 1.133,-0.029 v 0 c 0.746,-0.018 1.494,-0.031 2.241,-0.037 v 0 c 0.389,-0.004 0.777,-0.006 1.167,-0.007 v 0 c 0.799,-0.001 1.599,0.006 2.402,0.019 v 0 c 0.319,0.004 0.639,0.006 0.958,0.012 v 0 c 1.115,0.025 2.232,0.059 3.354,0.108 v 0 c 0.17,0.008 0.341,0.019 0.51,0.026 v 0 c 0.954,0.045 1.911,0.099 2.87,0.162 v 0 c 0.375,0.025 0.751,0.054 1.126,0.081 v 0 c 0.771,0.057 1.544,0.118 2.317,0.187 v 0 c 0.404,0.036 0.809,0.073 1.213,0.111 v 0 c 0.79,0.076 1.582,0.16 2.375,0.249 v 0 c 0.361,0.039 0.721,0.077 1.081,0.12 v 0 c 1.142,0.135 2.287,0.28 3.435,0.441 v 0 c 1.276,0.179 2.55,0.379 3.82,0.589 v 0 c 0.367,0.061 0.734,0.125 1.101,0.188 v 0 c 0.964,0.167 1.926,0.341 2.886,0.524 v 0 c 0.343,0.066 0.686,0.13 1.028,0.197 v 0 c 1.254,0.248 2.506,0.507 3.753,0.784 v 0 c 0.174,0.038 0.347,0.081 0.521,0.12 v 0 c 1.084,0.244 2.166,0.501 3.246,0.767 v 0 c 0.373,0.092 0.744,0.186 1.117,0.281 v 0 c 0.963,0.245 1.924,0.499 2.883,0.761 v 0 c 0.3,0.082 0.604,0.162 0.904,0.245 v 0 c 1.226,0.343 2.447,0.699 3.665,1.069 v 0 c 0.258,0.078 0.514,0.161 0.77,0.241 v 0 c 0.983,0.304 1.963,0.616 2.941,0.938 v 0 c 0.365,0.121 0.731,0.243 1.097,0.366 v 0 c 0.984,0.332 1.966,0.673 2.945,1.022 v 0 c 0.241,0.087 0.483,0.169 0.722,0.256 v 0 c 1.197,0.434 2.39,0.882 3.577,1.342 v 0 c 0.299,0.116 0.596,0.237 0.894,0.353 v 0 c 0.92,0.363 1.836,0.733 2.751,1.111 v 0 c 0.351,0.146 0.704,0.292 1.056,0.44 v 0 c 1.044,0.439 2.084,0.889 3.119,1.349 v 0 c 0.141,0.062 0.283,0.122 0.424,0.185 v 0 c 0.996,0.446 1.989,0.9 2.978,1.363 v 0 c 0.15,0.071 0.299,0.147 0.449,0.217 v 0 c 0.487,0.232 0.971,0.469 1.457,0.704 v 0 c 0.743,0.36 1.487,0.723 2.226,1.093 v 0 c 0.507,0.253 1.011,0.513 1.516,0.772 v 0 c 0.714,0.366 1.427,0.735 2.136,1.111 v 0 c 0.509,0.27 1.017,0.543 1.525,0.817 v 0 c 0.703,0.382 1.404,0.768 2.104,1.158 v 0 c 0.499,0.28 1.001,0.561 1.498,0.846 v 0 c 0.707,0.403 1.41,0.813 2.111,1.225 v 0 c 0.481,0.284 0.964,0.566 1.443,0.854 v 0 c 0.732,0.439 1.458,0.887 2.184,1.336 v 0 c 0.441,0.273 0.883,0.542 1.32,0.818 v 0 c 0.824,0.52 1.641,1.05 2.457,1.582 v 0 c 0.334,0.218 0.671,0.43 1.004,0.65 v 0 c 1.124,0.743 2.241,1.496 3.351,2.264 v 0 c 0.015,0.01 0.028,0.022 0.043,0.032 v 0 c 1.538,1.063 3.059,2.159 4.568,3.27 v 0 c 0.396,0.291 0.789,0.585 1.183,0.878 v 0 c 1.315,0.983 2.621,1.981 3.914,2.998 v 0 c 0.209,0.165 0.422,0.325 0.63,0.491 v 0 c 1.464,1.16 2.909,2.347 4.343,3.55 v 0 c 0.363,0.305 0.725,0.615 1.085,0.924 v 0 c 1.204,1.024 2.396,2.063 3.577,3.117 v 0 c 0.195,0.175 0.396,0.34 0.589,0.515 v 0 c 0.081,0.071 0.159,0.148 0.239,0.22 v 0 c 1.312,1.185 2.611,2.388 3.896,3.61 v 0 c 0.295,0.28 0.585,0.567 0.879,0.849 v 0 c 1.014,0.976 2.02,1.962 3.014,2.959 v 0 c 0.378,0.378 0.754,0.757 1.129,1.138 v 0 c 1.067,1.085 2.125,2.183 3.17,3.295 v 0 c 0.19,0.202 0.384,0.4 0.574,0.603 v 0 c 1.217,1.303 2.414,2.625 3.599,3.961 v 0 c 0.106,0.12 0.217,0.236 0.322,0.355 v 0 c 0.215,0.243 0.42,0.494 0.632,0.736 v 0 c 0.894,1.021 1.779,2.052 2.654,3.092 v 0 c 0.338,0.402 0.678,0.802 1.012,1.206 v 0 c 1.108,1.336 2.205,2.682 3.281,4.046 v 0 c 0.035,0.045 0.072,0.088 0.107,0.133 v 0 c 1.107,1.407 2.195,2.835 3.27,4.272 v 0 c 0.311,0.416 0.618,0.835 0.925,1.253 v 0 c 0.808,1.093 1.602,2.196 2.389,3.307 v 0 c 0.188,0.265 0.384,0.524 0.57,0.791 v 0 c 0.099,0.138 0.19,0.281 0.287,0.42 v 0 c 1.073,1.538 2.13,3.09 3.165,4.657 v 0 c 0.182,0.276 0.357,0.555 0.537,0.83 v 0 c 0.875,1.34 1.735,2.692 2.582,4.053 v 0 c 0.269,0.433 0.539,0.867 0.807,1.302 v 0 c 0.99,1.618 1.968,3.247 2.918,4.893 v 0 c 0.025,0.044 0.048,0.088 0.073,0.132 v 0 c 0.927,1.606 1.825,3.23 2.709,4.862 v 0 c 0.116,0.212 0.239,0.419 0.353,0.631 v 0 c 0.232,0.433 0.457,0.871 0.687,1.306 v 0 c 0.244,0.46 0.488,0.92 0.728,1.383 v 0 c 0.437,0.841 0.868,1.687 1.295,2.535 v 0 c 0.201,0.399 0.404,0.796 0.603,1.195 v 0 c 0.617,1.246 1.225,2.497 1.819,3.755 v 0 c 0.002,0.005 0.004,0.009 0.006,0.014 v 0 c 0.592,1.253 1.168,2.514 1.736,3.78 v 0 c 0.184,0.409 0.361,0.822 0.543,1.233 v 0 c 0.383,0.868 0.762,1.737 1.133,2.611 v 0 c 0.206,0.484 0.408,0.97 0.609,1.455 v 0 c 0.341,0.816 0.676,1.633 1.007,2.453 v 0 c 0.2,0.501 0.399,1.002 0.597,1.504 v 0 c 0.328,0.834 0.65,1.672 0.968,2.512 v 0 c 0.181,0.476 0.362,0.951 0.54,1.429 v 0 c 0.07,0.192 0.146,0.384 0.217,0.576 v 0 c 0.2,0.547 0.389,1.1 0.586,1.649 v 0 c 0.242,0.676 0.486,1.351 0.722,2.029 v 0 c 0.252,0.73 0.495,1.463 0.74,2.196 v 0 c 0.227,0.68 0.457,1.359 0.678,2.041 v 0 c 0.238,0.738 0.466,1.478 0.696,2.219 v 0 c 0.213,0.683 0.429,1.365 0.634,2.05 v 0 c 0.224,0.746 0.436,1.496 0.652,2.244 v 0 c 0.197,0.687 0.398,1.371 0.588,2.059 v 0 c 0.208,0.754 0.405,1.51 0.605,2.265 v 0 c 0.183,0.688 0.369,1.377 0.544,2.068 v 0 c 0.193,0.759 0.373,1.523 0.558,2.285 v 0 c 0.166,0.692 0.338,1.384 0.498,2.079 v 0 c 0.178,0.765 0.342,1.534 0.51,2.302 v 0 c 0.153,0.695 0.309,1.388 0.453,2.085 v 0 c 0.162,0.778 0.311,1.559 0.464,2.34 v 0 c 0.135,0.691 0.276,1.38 0.404,2.074 v 0 c 0.147,0.788 0.278,1.58 0.415,2.37 v 0 c 0.119,0.689 0.245,1.378 0.356,2.069 v 0 c 0.131,0.803 0.246,1.609 0.367,2.414 v 0 c 0.103,0.682 0.211,1.362 0.307,2.046 v 0 c 0.115,0.818 0.213,1.642 0.318,2.463 v 0 c 0.086,0.673 0.178,1.345 0.257,2.02 v 0 c 0.098,0.839 0.181,1.681 0.268,2.522 v 0 c 0.069,0.66 0.145,1.319 0.208,1.98 v 0 c 0.08,0.863 0.145,1.729 0.215,2.595 v 0 c 0.053,0.642 0.113,1.283 0.158,1.927 v 0 c 0.064,0.903 0.111,1.809 0.163,2.714 v 0 c 0.035,0.608 0.079,1.214 0.108,1.823 v 0 c 0.049,1.008 0.078,2.019 0.111,3.03 v 0 c 0.018,0.507 0.044,1.014 0.055,1.522 v 0 c 0.039,1.519 0.06,3.041 0.062,4.564 v 0 c 0.118,63.291 -30.4,114.562 -76.466,139.622 v 0 l -113.967,61.996 c 46.066,-25.059 76.585,-76.33 76.467,-139.621"/></clipPath>
        <linearGradient id="linearGradient40" spreadMethod="pad" gradientTransform="matrix(-177.0177,-363.03629,-363.03629,177.0177,530.34344,525.23157)" gradientUnits="userSpaceOnUse" y2="0" x2="1" y1="0" x1="0"><stop id="stop36" offset="0" style="stop-opacity:1;stop-color:#006f7f"/><stop id="stop38" offset="1" style="stop-opacity:1;stop-color:#00505b"/></linearGradient>
        <clipPath id="clipPath50" clipPathUnits="userSpaceOnUse"><path
            id="path48"
            d="m 358.774,752.186 c -1.367,-0.002 -2.736,-0.015 -4.107,-0.036 v 0 c -0.618,-0.009 -1.232,-0.012 -1.85,-0.025 v 0 c -2.143,-0.046 -4.292,-0.113 -6.448,-0.206 v 0 c -0.326,-0.015 -0.652,-0.037 -0.976,-0.052 v 0 c -1.838,-0.086 -3.682,-0.19 -5.529,-0.311 v 0 c -0.717,-0.048 -1.438,-0.104 -2.159,-0.157 v 0 c -1.484,-0.108 -2.971,-0.227 -4.461,-0.358 v 0 c -0.777,-0.068 -1.554,-0.14 -2.333,-0.214 v 0 c -1.52,-0.147 -3.044,-0.307 -4.569,-0.478 v 0 c -0.691,-0.077 -1.383,-0.149 -2.076,-0.231 v 0 c -2.197,-0.26 -4.401,-0.539 -6.609,-0.849 v 0 c -2.455,-0.345 -4.901,-0.729 -7.342,-1.132 v 0 c -0.71,-0.117 -1.419,-0.241 -2.127,-0.363 v 0 c -1.85,-0.319 -3.695,-0.654 -5.537,-1.005 v 0 c -0.661,-0.126 -1.325,-0.249 -1.984,-0.38 v 0 c -2.415,-0.476 -4.823,-0.976 -7.221,-1.508 v 0 c -0.328,-0.073 -0.653,-0.153 -0.979,-0.226 v 0 c -2.092,-0.472 -4.178,-0.966 -6.258,-1.479 v 0 c -0.718,-0.177 -1.436,-0.359 -2.153,-0.542 v 0 c -1.848,-0.47 -3.691,-0.956 -5.529,-1.459 v 0 c -0.584,-0.159 -1.17,-0.313 -1.754,-0.476 v 0 c -2.357,-0.659 -4.707,-1.343 -7.048,-2.055 v 0 c -0.492,-0.149 -0.981,-0.308 -1.473,-0.459 v 0 c -1.889,-0.586 -3.772,-1.187 -5.648,-1.804 v 0 c -0.711,-0.234 -1.42,-0.47 -2.129,-0.709 v 0 c -1.887,-0.637 -3.768,-1.289 -5.643,-1.96 v 0 c -0.467,-0.166 -0.937,-0.326 -1.402,-0.496 v 0 c -2.301,-0.834 -4.59,-1.695 -6.871,-2.579 v 0 c -0.58,-0.224 -1.157,-0.458 -1.735,-0.685 v 0 c -1.76,-0.695 -3.515,-1.403 -5.266,-2.126 v 0 c -0.684,-0.284 -1.37,-0.568 -2.053,-0.856 v 0 c -1.992,-0.839 -3.977,-1.696 -5.953,-2.574 v 0 c -0.286,-0.126 -0.573,-0.247 -0.859,-0.375 v 0 c -1.911,-0.856 -3.817,-1.728 -5.715,-2.618 v 0 c -0.287,-0.135 -0.57,-0.279 -0.857,-0.415 v 0 c -0.947,-0.447 -1.886,-0.908 -2.827,-1.364 v 0 c -1.423,-0.689 -2.843,-1.38 -4.256,-2.089 v 0 c -0.981,-0.491 -1.956,-0.993 -2.933,-1.492 v 0 c -1.367,-0.702 -2.733,-1.41 -4.092,-2.131 v 0 c -0.984,-0.52 -1.964,-1.047 -2.944,-1.577 v 0 c -1.349,-0.732 -2.693,-1.473 -4.035,-2.222 v 0 c -0.964,-0.539 -1.927,-1.079 -2.888,-1.627 v 0 c -1.359,-0.775 -2.71,-1.566 -4.061,-2.36 v 0 c -0.925,-0.543 -1.851,-1.084 -2.77,-1.638 v 0 c -1.409,-0.845 -2.808,-1.708 -4.206,-2.574 v 0 c -0.844,-0.522 -1.692,-1.038 -2.532,-1.567 v 0 c -1.6,-1.01 -3.19,-2.042 -4.777,-3.076 v 0 c -0.622,-0.406 -1.25,-0.802 -1.87,-1.212 v 0 c -2.162,-1.429 -4.313,-2.88 -6.449,-4.357 v 0 c -0.041,-0.03 -0.083,-0.06 -0.126,-0.089 v 0 c -0.181,-0.125 -0.359,-0.255 -0.541,-0.38 v 0 c -1.866,-1.298 -3.72,-2.616 -5.566,-3.949 v 0 c -0.593,-0.428 -1.185,-0.86 -1.775,-1.292 v 0 c -1.561,-1.142 -3.112,-2.295 -4.657,-3.461 v 0 c -0.492,-0.371 -0.986,-0.738 -1.475,-1.111 v 0 c -1.972,-1.503 -3.931,-3.025 -5.875,-4.569 v 0 c -0.395,-0.313 -0.785,-0.633 -1.178,-0.948 v 0 c -1.582,-1.266 -3.155,-2.545 -4.719,-3.837 v 0 c -0.575,-0.475 -1.149,-0.952 -1.721,-1.432 v 0 c -1.583,-1.323 -3.157,-2.66 -4.721,-4.011 v 0 c -0.352,-0.304 -0.708,-0.604 -1.059,-0.909 v 0 c -1.65,-1.435 -3.29,-2.882 -4.917,-4.346 v 0 c -0.229,-0.206 -0.455,-0.418 -0.684,-0.625 v 0 c -0.432,-0.391 -0.86,-0.787 -1.291,-1.179 v 0 c -1.506,-1.373 -3.002,-2.759 -4.489,-4.157 v 0 c -0.418,-0.394 -0.839,-0.787 -1.257,-1.183 v 0 c -1.785,-1.694 -3.557,-3.405 -5.312,-5.134 v 0 c -0.358,-0.353 -0.712,-0.71 -1.069,-1.065 v 0 c -1.477,-1.465 -2.944,-2.944 -4.398,-4.433 v 0 c -0.429,-0.438 -0.856,-0.874 -1.282,-1.314 v 0 c -1.723,-1.78 -3.433,-3.576 -5.126,-5.389 v 0 c -0.272,-0.292 -0.538,-0.587 -0.809,-0.879 v 0 c -1.471,-1.585 -2.927,-3.184 -4.373,-4.793 v 0 c -0.422,-0.47 -0.844,-0.94 -1.264,-1.411 v 0 c -0.33,-0.372 -0.666,-0.738 -0.995,-1.111 v 0 c -1.324,-1.499 -2.637,-3.01 -3.941,-4.531 v 0 c -0.163,-0.192 -0.325,-0.388 -0.491,-0.581 v 0 c -1.482,-1.736 -2.948,-3.487 -4.403,-5.249 v 0 c -0.412,-0.499 -0.823,-0.999 -1.234,-1.5 v 0 c -1.588,-1.944 -3.167,-3.897 -4.723,-5.873 v 0 c -0.058,-0.073 -0.114,-0.148 -0.172,-0.222 v 0 c -1.502,-1.909 -2.982,-3.837 -4.452,-5.775 v 0 c -0.4,-0.526 -0.797,-1.053 -1.193,-1.581 v 0 c -1.435,-1.91 -2.858,-3.831 -4.261,-5.768 v 0 C 77.849,597.5 77.763,597.386 77.68,597.27 v 0 c -1.148,-1.59 -2.287,-3.187 -3.414,-4.794 v 0 c -0.305,-0.434 -0.602,-0.875 -0.905,-1.312 v 0 c -0.42,-0.603 -0.836,-1.209 -1.253,-1.813 v 0 c -1.143,-1.663 -2.273,-3.333 -3.393,-5.012 v 0 c -0.322,-0.484 -0.648,-0.963 -0.968,-1.447 v 0 c -1.389,-2.103 -2.76,-4.22 -4.112,-6.35 v 0 c -0.315,-0.495 -0.622,-0.995 -0.934,-1.491 v 0 c -1.076,-1.711 -2.14,-3.43 -3.192,-5.158 v 0 c -0.379,-0.621 -0.757,-1.243 -1.133,-1.867 v 0 c -1.267,-2.106 -2.521,-4.222 -3.753,-6.352 v 0 c -0.048,-0.084 -0.097,-0.166 -0.145,-0.249 v 0 c -1.276,-2.212 -2.526,-4.44 -3.763,-6.677 v 0 c -0.342,-0.621 -0.681,-1.243 -1.022,-1.865 v 0 c -0.416,-0.765 -0.841,-1.525 -1.253,-2.293 v 0 c -0.449,-0.834 -0.883,-1.677 -1.327,-2.515 v 0 c -0.466,-0.885 -0.936,-1.768 -1.398,-2.656 v 0 c -0.844,-1.623 -1.672,-3.255 -2.494,-4.889 v 0 c -0.383,-0.76 -0.773,-1.517 -1.151,-2.281 v 0 c -1.189,-2.398 -2.359,-4.805 -3.501,-7.227 v 0 c -0.004,-0.008 -0.008,-0.016 -0.012,-0.024 v 0 c -1.137,-2.41 -2.246,-4.835 -3.338,-7.268 v 0 c -0.354,-0.791 -0.698,-1.587 -1.047,-2.381 v 0 c -0.734,-1.666 -1.462,-3.333 -2.175,-5.011 v 0 c -0.397,-0.933 -0.786,-1.872 -1.177,-2.809 v 0 c -0.65,-1.561 -1.292,-3.125 -1.924,-4.695 v 0 c -0.39,-0.972 -0.777,-1.945 -1.161,-2.92 v 0 c -0.625,-1.59 -1.237,-3.186 -1.843,-4.785 v 0 c -0.353,-0.931 -0.71,-1.862 -1.056,-2.796 v 0 c -0.135,-0.364 -0.277,-0.724 -0.41,-1.088 v 0 c -0.382,-1.039 -0.741,-2.087 -1.113,-3.129 v 0 c -0.472,-1.318 -0.949,-2.635 -1.407,-3.958 v 0 c -0.48,-1.386 -0.941,-2.778 -1.407,-4.17 v 0 c -0.443,-1.325 -0.892,-2.648 -1.321,-3.978 v 0 c -0.453,-1.4 -0.885,-2.809 -1.322,-4.215 v 0 c -0.414,-1.33 -0.834,-2.658 -1.235,-3.993 v 0 c -0.425,-1.419 -0.83,-2.845 -1.239,-4.268 v 0 c -0.383,-1.334 -0.774,-2.665 -1.145,-4.004 v 0 c -0.397,-1.436 -0.772,-2.879 -1.154,-4.32 v 0 c -0.353,-1.336 -0.714,-2.668 -1.054,-4.008 v 0 c -0.369,-1.452 -0.714,-2.912 -1.066,-4.369 v 0 c -0.324,-1.339 -0.656,-2.676 -0.967,-4.021 v 0 c -0.337,-1.466 -0.652,-2.938 -0.973,-4.41 v 0 C 8.729,443.06 8.426,441.721 8.147,440.374 v 0 c -0.31,-1.485 -0.594,-2.978 -0.885,-4.469 v 0 c -0.263,-1.339 -0.535,-2.676 -0.785,-4.018 v 0 c -0.278,-1.506 -0.53,-3.018 -0.792,-4.527 v 0 c -0.231,-1.336 -0.473,-2.67 -0.691,-4.009 v 0 c -0.247,-1.53 -0.469,-3.065 -0.699,-4.599 v 0 c -0.199,-1.327 -0.41,-2.65 -0.596,-3.979 v 0 c -0.218,-1.559 -0.406,-3.122 -0.605,-4.684 v 0 c -0.166,-1.313 -0.347,-2.621 -0.5,-3.936 v 0 c -0.187,-1.598 -0.344,-3.201 -0.51,-4.802 v 0 C 1.949,400.066 1.801,398.784 1.68,397.497 v 0 c -0.155,-1.65 -0.278,-3.304 -0.412,-4.958 v 0 C 1.167,391.294 1.051,390.05 0.962,388.803 v 0 c -0.124,-1.736 -0.214,-3.478 -0.313,-5.218 v 0 C 0.581,382.416 0.497,381.25 0.442,380.08 v 0 c -0.095,-1.924 -0.15,-3.853 -0.214,-5.78 v 0 C 0.195,373.307 0.145,372.318 0.12,371.325 v 0 C 0.047,368.403 0.006,365.477 0,362.548 v 0 -1.387 C 0.22,240.072 58.797,142.039 147.049,94.03 v 0 L 261.016,32.034 C 172.428,80.224 113.74,178.826 113.967,300.551 v 0 c 0.005,2.93 0.046,5.856 0.119,8.778 v 0 c 0.026,0.993 0.075,1.982 0.108,2.975 v 0 c 0.064,1.927 0.12,3.856 0.213,5.779 v 0 c 0.056,1.17 0.14,2.337 0.208,3.506 v 0 c 0.1,1.74 0.19,3.481 0.313,5.217 v 0 c 0.088,1.249 0.205,2.491 0.306,3.737 v 0 c 0.134,1.653 0.258,3.308 0.412,4.957 v 0 c 0.122,1.288 0.27,2.57 0.404,3.855 v 0 c 0.167,1.601 0.324,3.204 0.51,4.8 v 0 c 0.153,1.315 0.334,2.625 0.5,3.937 v 0 c 0.2,1.562 0.387,3.127 0.606,4.685 v 0 c 0.185,1.328 0.397,2.65 0.596,3.976 v 0 c 0.229,1.534 0.451,3.071 0.699,4.601 v 0 c 0.217,1.339 0.459,2.671 0.69,4.005 v 0 c 0.261,1.512 0.514,3.024 0.793,4.531 v 0 c 0.249,1.342 0.521,2.677 0.782,4.015 v 0 c 0.294,1.492 0.577,2.986 0.887,4.474 v 0 c 0.28,1.344 0.581,2.682 0.876,4.023 v 0 c 0.322,1.472 0.636,2.946 0.974,4.414 v 0 c 0.31,1.342 0.642,2.677 0.965,4.014 v 0 c 0.352,1.461 0.699,2.922 1.068,4.377 v 0 c 0.338,1.337 0.7,2.668 1.052,4.001 v 0 c 0.382,1.443 0.757,2.889 1.155,4.327 v 0 c 0.369,1.335 0.76,2.663 1.143,3.993 v 0 c 0.41,1.428 0.816,2.859 1.242,4.281 v 0 c 0.4,1.33 0.817,2.653 1.23,3.977 v 0 c 0.438,1.412 0.873,2.826 1.327,4.231 v 0 c 0.429,1.325 0.875,2.643 1.316,3.963 v 0 c 0.467,1.397 0.93,2.794 1.412,4.185 v 0 c 0.457,1.318 0.931,2.628 1.4,3.94 v 0 c 0.507,1.414 1.01,2.829 1.532,4.237 v 0 c 0.344,0.929 0.698,1.854 1.049,2.781 v 0 c 0.607,1.603 1.223,3.204 1.849,4.8 v 0 c 0.383,0.971 0.77,1.941 1.158,2.909 v 0 c 0.633,1.573 1.276,3.141 1.927,4.705 v 0 c 0.39,0.935 0.779,1.871 1.175,2.803 v 0 c 0.713,1.677 1.442,3.348 2.177,5.015 v 0 c 0.349,0.792 0.692,1.588 1.046,2.378 v 0 c 1.091,2.434 2.201,4.858 3.338,7.269 v 0 c 0.003,0.008 0.006,0.016 0.011,0.023 v 0 c 1.142,2.422 2.313,4.829 3.501,7.227 v 0 c 0.379,0.763 0.768,1.52 1.151,2.282 v 0 c 0.823,1.634 1.651,3.266 2.495,4.888 v 0 c 0.46,0.888 0.93,1.772 1.398,2.655 v 0 c 0.852,1.61 1.709,3.213 2.58,4.809 v 0 c 0.34,0.622 0.679,1.246 1.022,1.866 v 0 c 1.236,2.236 2.486,4.465 3.761,6.677 v 0 c 0.05,0.083 0.098,0.165 0.147,0.248 v 0 c 1.23,2.131 2.486,4.246 3.752,6.353 v 0 c 0.376,0.623 0.755,1.245 1.133,1.867 v 0 c 1.052,1.728 2.116,3.446 3.192,5.157 v 0 c 0.312,0.497 0.62,0.996 0.935,1.491 v 0 c 1.351,2.131 2.722,4.247 4.112,6.351 v 0 c 0.319,0.484 0.646,0.963 0.967,1.445 v 0 c 1.12,1.68 2.251,3.351 3.393,5.012 v 0 c 0.417,0.606 0.833,1.212 1.252,1.815 v 0 c 1.424,2.047 2.859,4.086 4.32,6.105 v 0 c 0.083,0.116 0.168,0.23 0.253,0.346 v 0 c 1.403,1.937 2.826,3.857 4.261,5.769 v 0 c 0.395,0.526 0.792,1.053 1.191,1.577 v 0 c 1.47,1.938 2.95,3.867 4.451,5.776 v 0 c 0.06,0.074 0.116,0.15 0.175,0.225 v 0 c 1.555,1.974 3.135,3.928 4.722,5.871 v 0 c 0.412,0.503 0.824,1.003 1.237,1.502 v 0 c 1.443,1.749 2.898,3.488 4.369,5.211 v 0 c 0.18,0.208 0.354,0.42 0.533,0.629 v 0 c 1.618,1.887 3.256,3.754 4.907,5.609 v 0 c 0.433,0.487 0.869,0.971 1.304,1.455 v 0 c 1.431,1.595 2.875,3.178 4.33,4.748 v 0 c 0.279,0.301 0.555,0.606 0.836,0.907 v 0 c 1.689,1.81 3.397,3.602 5.118,5.38 v 0 c 0.427,0.442 0.858,0.88 1.288,1.32 v 0 c 1.457,1.491 2.922,2.971 4.4,4.437 v 0 c 0.354,0.351 0.706,0.706 1.06,1.055 v 0 c 1.759,1.733 3.534,3.448 5.322,5.145 v 0 c 0.41,0.388 0.822,0.771 1.232,1.157 v 0 c 1.503,1.414 3.015,2.815 4.537,4.203 v 0 c 0.415,0.379 0.828,0.76 1.244,1.136 v 0 c 1.861,1.683 3.736,3.349 5.627,4.993 v 0 c 0.339,0.296 0.683,0.585 1.022,0.878 v 0 c 1.575,1.362 3.162,2.708 4.756,4.042 v 0 c 0.568,0.475 1.139,0.948 1.708,1.419 v 0 c 1.569,1.297 3.146,2.58 4.733,3.849 v 0 c 0.391,0.314 0.777,0.63 1.168,0.941 v 0 c 1.946,1.544 3.906,3.067 5.878,4.571 v 0 c 0.489,0.374 0.982,0.739 1.473,1.109 v 0 c 1.544,1.166 3.097,2.32 4.657,3.462 v 0 c 0.592,0.432 1.183,0.864 1.776,1.293 v 0 c 1.846,1.332 3.7,2.651 5.567,3.949 v 0 c 0.181,0.125 0.36,0.254 0.54,0.38 v 0 c 2.178,1.507 4.37,2.988 6.576,4.446 v 0 c 0.619,0.409 1.248,0.805 1.87,1.211 v 0 c 1.587,1.035 3.175,2.066 4.777,3.076 v 0 c 0.838,0.528 1.685,1.043 2.526,1.564 v 0 c 1.401,0.868 2.803,1.733 4.214,2.58 v 0 c 0.918,0.551 1.842,1.092 2.765,1.634 v 0 c 1.352,0.796 2.705,1.585 4.064,2.363 v 0 c 0.959,0.546 1.92,1.086 2.883,1.623 v 0 c 1.344,0.752 2.693,1.494 4.045,2.228 v 0 c 0.975,0.527 1.951,1.052 2.932,1.571 v 0 c 1.365,0.723 2.736,1.434 4.11,2.139 v 0 c 0.97,0.497 1.94,0.996 2.914,1.484 v 0 c 1.423,0.712 2.853,1.409 4.285,2.102 v 0 c 0.931,0.45 1.859,0.906 2.794,1.349 v 0 c 2.189,1.035 4.385,2.054 6.594,3.042 v 0 c 0.267,0.119 0.535,0.232 0.803,0.351 v 0 c 1.994,0.887 3.999,1.752 6.009,2.599 v 0 c 0.675,0.285 1.352,0.564 2.028,0.844 v 0 c 1.76,0.728 3.524,1.441 5.295,2.137 v 0 c 0.572,0.226 1.143,0.457 1.716,0.68 v 0 c 2.283,0.884 4.576,1.747 6.878,2.58 v 0 c 0.462,0.168 0.927,0.327 1.39,0.492 v 0 c 1.879,0.673 3.766,1.327 5.658,1.964 v 0 c 0.705,0.239 1.411,0.473 2.118,0.707 v 0 c 1.882,0.62 3.769,1.222 5.662,1.807 v 0 c 0.488,0.152 0.974,0.308 1.463,0.457 v 0 c 2.342,0.713 4.693,1.397 7.052,2.056 v 0 c 0.581,0.162 1.163,0.315 1.744,0.475 v 0 c 1.843,0.503 3.69,0.991 5.542,1.461 v 0 c 0.713,0.182 1.428,0.362 2.144,0.539 v 0 c 2.082,0.514 4.17,1.009 6.263,1.481 v 0 c 0.327,0.073 0.651,0.153 0.977,0.225 v 0 c 2.398,0.533 4.807,1.032 7.22,1.509 v 0 c 0.661,0.131 1.323,0.252 1.985,0.379 v 0 c 1.843,0.352 3.688,0.687 5.537,1.005 v 0 c 0.709,0.122 1.418,0.246 2.128,0.363 v 0 c 2.44,0.403 4.886,0.788 7.341,1.132 v 0 c 2.209,0.311 4.412,0.59 6.609,0.85 v 0 c 0.694,0.082 1.386,0.154 2.077,0.231 v 0 c 1.525,0.17 3.049,0.332 4.568,0.477 v 0 c 0.78,0.075 1.556,0.146 2.334,0.214 v 0 c 1.489,0.133 2.976,0.251 4.461,0.359 v 0 c 0.718,0.053 1.44,0.11 2.158,0.156 v 0 c 1.848,0.123 3.69,0.225 5.527,0.312 v 0 c 0.327,0.014 0.653,0.037 0.977,0.051 v 0 c 2.156,0.094 4.307,0.16 6.449,0.206 v 0 c 0.618,0.014 1.233,0.016 1.849,0.025 v 0 c 1.542,0.024 3.081,0.038 4.615,0.036 v 0 c 0.752,-10e-4 1.499,-0.007 2.248,-0.013 v 0 c 1.438,-0.013 2.874,-0.038 4.307,-0.072 v 0 c 0.725,-0.017 1.453,-0.033 2.177,-0.056 v 0 c 1.64,-0.052 3.273,-0.121 4.903,-0.202 v 0 c 0.48,-0.023 0.96,-0.039 1.438,-0.065 v 0 c 2.096,-0.115 4.184,-0.252 6.266,-0.413 v 0 c 0.522,-0.039 1.041,-0.09 1.561,-0.133 v 0 c 1.57,-0.13 3.136,-0.27 4.697,-0.425 v 0 c 0.717,-0.072 1.432,-0.15 2.146,-0.227 v 0 c 1.393,-0.151 2.784,-0.311 4.169,-0.482 v 0 c 0.72,-0.089 1.441,-0.178 2.158,-0.272 v 0 c 1.495,-0.197 2.983,-0.408 4.469,-0.629 v 0 c 0.562,-0.083 1.127,-0.161 1.689,-0.247 v 0 c 2.027,-0.314 4.046,-0.649 6.059,-1.007 v 0 c 0.379,-0.068 0.755,-0.143 1.135,-0.213 v 0 c 1.637,-0.299 3.268,-0.611 4.895,-0.939 v 0 c 0.675,-0.136 1.346,-0.28 2.018,-0.421 v 0 c 1.351,-0.284 2.698,-0.576 4.041,-0.881 v 0 c 0.705,-0.159 1.411,-0.32 2.114,-0.486 v 0 c 1.384,-0.325 2.764,-0.663 4.138,-1.009 v 0 c 0.6,-0.152 1.201,-0.297 1.798,-0.452 v 0 c 1.985,-0.515 3.96,-1.047 5.926,-1.606 v 0 c 0.272,-0.078 0.543,-0.162 0.816,-0.241 v 0 c 1.698,-0.489 3.39,-0.994 5.075,-1.516 v 0 c 0.633,-0.196 1.265,-0.399 1.897,-0.6 v 0 c 1.353,-0.431 2.703,-0.871 4.048,-1.324 v 0 c 0.654,-0.219 1.307,-0.439 1.959,-0.664 v 0 c 1.452,-0.5 2.897,-1.015 4.337,-1.541 v 0 c 0.481,-0.175 0.965,-0.345 1.445,-0.522 v 0 c 1.895,-0.705 3.78,-1.428 5.652,-2.174 v 0 c 0.431,-0.171 0.859,-0.351 1.289,-0.525 v 0 c 1.456,-0.589 2.904,-1.187 4.346,-1.801 v 0 c 0.63,-0.268 1.257,-0.54 1.884,-0.812 v 0 c 1.281,-0.559 2.558,-1.125 3.828,-1.702 v 0 c 0.61,-0.277 1.222,-0.552 1.829,-0.834 v 0 c 1.493,-0.691 2.976,-1.398 4.454,-2.117 v 0 c 0.345,-0.168 0.694,-0.33 1.04,-0.5 v 0 c 1.035,-0.509 2.062,-1.034 3.089,-1.557 v 0 c 0.558,-0.284 1.12,-0.56 1.676,-0.847 v 0 c 1.442,-0.747 2.876,-1.51 4.302,-2.283 v 0 c 0.135,-0.073 0.271,-0.142 0.405,-0.214 v 0 l -113.966,61.996 c -0.099,0.054 -0.202,0.106 -0.303,0.161 v 0 c -1.46,0.791 -2.928,1.572 -4.403,2.336 v 0 c -0.556,0.288 -1.119,0.564 -1.677,0.848 v 0 c -1.029,0.523 -2.055,1.048 -3.092,1.557 v 0 c -0.062,0.032 -0.125,0.065 -0.189,0.096 v 0 c -0.277,0.137 -0.56,0.263 -0.838,0.398 v 0 c -1.482,0.722 -2.971,1.431 -4.466,2.124 v 0 c -0.606,0.28 -1.214,0.555 -1.823,0.83 v 0 c -1.273,0.578 -2.552,1.148 -3.838,1.706 v 0 c -0.624,0.271 -1.248,0.542 -1.875,0.81 v 0 c -1.446,0.615 -2.9,1.216 -4.359,1.805 v 0 c -0.426,0.173 -0.848,0.351 -1.276,0.52 v 0 c -1.876,0.747 -3.761,1.472 -5.659,2.176 v 0 c -0.475,0.177 -0.956,0.344 -1.433,0.519 v 0 c -1.443,0.526 -2.891,1.042 -4.346,1.544 v 0 c -0.652,0.225 -1.304,0.445 -1.957,0.664 v 0 c -1.347,0.452 -2.699,0.893 -4.054,1.324 v 0 c -0.629,0.201 -1.257,0.404 -1.888,0.599 v 0 c -1.692,0.524 -3.389,1.03 -5.094,1.521 v 0 c -0.268,0.077 -0.531,0.16 -0.799,0.236 v 0 c -1.967,0.559 -3.945,1.092 -5.932,1.607 v 0 c -0.158,0.042 -0.315,0.088 -0.472,0.129 v 0 c -0.436,0.111 -0.878,0.21 -1.313,0.32 v 0 c -1.381,0.348 -2.763,0.687 -4.152,1.014 v 0 c -0.701,0.164 -1.403,0.325 -2.106,0.483 v 0 c -1.344,0.304 -2.693,0.598 -4.044,0.881 v 0 c -0.674,0.141 -1.344,0.285 -2.018,0.421 v 0 c -1.627,0.329 -3.258,0.64 -4.895,0.939 v 0 c -0.379,0.069 -0.756,0.146 -1.136,0.214 v 0 c -2.013,0.358 -4.033,0.692 -6.061,1.007 v 0 c -0.559,0.087 -1.119,0.163 -1.678,0.246 v 0 c -1.489,0.221 -2.98,0.433 -4.477,0.63 v 0 c -0.718,0.094 -1.438,0.183 -2.157,0.271 v 0 c -1.387,0.172 -2.777,0.332 -4.171,0.482 v 0 c -0.714,0.078 -1.429,0.155 -2.146,0.227 v 0 c -1.561,0.157 -3.125,0.295 -4.696,0.426 v 0 c -0.521,0.043 -1.039,0.092 -1.562,0.133 v 0 c -2.081,0.16 -4.169,0.298 -6.264,0.412 v 0 c -0.479,0.026 -0.96,0.042 -1.439,0.066 v 0 c -1.631,0.081 -3.264,0.149 -4.903,0.201 v 0 c -0.725,0.024 -1.451,0.039 -2.177,0.057 v 0 c -1.433,0.034 -2.869,0.059 -4.307,0.071 v 0 c -0.75,0.007 -1.498,0.013 -2.247,0.014 v 0 z m 242.196,-94.021 -0.016,0.008 c 0.005,-0.003 0.011,-0.006 0.016,-0.008"/></clipPath>
        <linearGradient id="linearGradient60" spreadMethod="pad" gradientTransform="matrix(-279.02792,-618.06183,-618.06183,279.02792,379.07785,726.0296)" gradientUnits="userSpaceOnUse" y2="0" x2="1" y1="0" x1="0"><stop id="stop56" offset="0" style="stop-opacity:1;stop-color:#006f7f"/><stop id="stop58" offset="1" style="stop-opacity:1;stop-color:#00505b"/></linearGradient>
        <clipPath id="clipPath70" clipPathUnits="userSpaceOnUse"><path id="path68" d="M 0,752.186 H 748.017 V 0 H 0 Z"/></clipPath>
    </defs>
    <g transform="matrix(1.3333333,0,0,-1.3333333,0,1002.9147)" id="g10">
        <g id="g12">
            <g clip-path="url(#clipPath18)" id="g14">
                <g transform="translate(596.1789,660.7048)" id="g20"><path
                    id="path22"
                    style="fill:#004b56;fill-opacity:1;fill-rule:nonzero;stroke:none"
                    d="M 0,0 C 0.028,-0.015 0.057,-0.028 0.085,-0.043 0.181,-0.093 0.274,-0.145 0.37,-0.194 0.247,-0.13 0.124,-0.064 0,0 M -5.156,2.59 C -4.997,2.514 -4.839,2.439 -4.681,2.361 -4.585,2.314 -4.49,2.265 -4.395,2.217 -4.647,2.342 -4.902,2.466 -5.156,2.59 m -24.113,10.332 c 0.088,-0.032 0.178,-0.064 0.266,-0.096 0.07,-0.026 0.139,-0.055 0.209,-0.081 -0.158,0.059 -0.316,0.118 -0.475,0.177 m -12.629,-429.003 c 0.802,1.09 1.596,2.188 2.379,3.295 0.002,0.004 0.005,0.007 0.008,0.011 -0.786,-1.11 -1.582,-2.212 -2.387,-3.306 m -6.691,435.317 c 0.003,0 0.006,-0.001 0.009,-0.002 10e-4,0 0.003,-0.001 0.003,-0.001 z m -9.119,-454.381 c 1.216,1.303 2.412,2.624 3.598,3.959 v 10e-4 c -1.185,-1.336 -2.382,-2.657 -3.598,-3.96 m -12.665,-12.457 c 0,10e-4 0.001,10e-4 0.001,10e-4 1.309,1.183 2.606,2.384 3.889,3.602 -1.283,-1.218 -2.58,-2.419 -3.89,-3.603 m -4.398,-3.847 c 1.202,1.023 2.392,2.061 3.571,3.114 0.004,0.003 0.008,0.006 0.012,0.009 -1.184,-1.056 -2.378,-2.096 -3.583,-3.123 m 0.125,476.69 c 0.032,-0.005 0.064,-0.012 0.096,-0.017 -0.096,0.017 -0.193,0.032 -0.289,0.049 0.065,-0.011 0.129,-0.02 0.193,-0.032 m -6.068,1.009 c 0.004,-0.001 0.007,-0.001 0.01,-0.002 0.006,-0.001 0.011,-0.002 0.016,-0.003 -0.008,0.002 -0.017,0.003 -0.026,0.005 m -21.053,2.425 c 0.059,-0.004 0.117,-0.007 0.174,-0.011 0.035,-0.003 0.071,-0.006 0.106,-0.009 -0.093,0.007 -0.186,0.013 -0.28,0.02 m -6.118,0.402 c 0.009,0 0.018,-0.001 0.027,-0.001 0.018,-0.001 0.037,-0.003 0.054,-0.004 -0.027,0.002 -0.053,0.004 -0.081,0.005 m -6.472,-264.075 c -0.013,-0.506 -0.039,-1.011 -0.056,-1.517 -0.033,-1.012 -0.063,-2.025 -0.111,-3.035 -0.03,-0.608 -0.073,-1.214 -0.108,-1.821 -0.053,-0.905 -0.099,-1.812 -0.164,-2.715 -0.045,-0.644 -0.105,-1.287 -0.157,-1.93 -0.07,-0.864 -0.135,-1.73 -0.216,-2.592 -0.062,-0.663 -0.139,-1.322 -0.207,-1.982 -0.088,-0.84 -0.17,-1.682 -0.268,-2.52 -0.079,-0.675 -0.171,-1.347 -0.257,-2.021 -0.104,-0.821 -0.204,-1.643 -0.319,-2.463 -0.094,-0.682 -0.203,-1.362 -0.304,-2.043 -0.122,-0.805 -0.239,-1.613 -0.369,-2.416 -0.112,-0.692 -0.237,-1.381 -0.356,-2.071 -0.137,-0.79 -0.27,-1.581 -0.415,-2.368 -0.128,-0.695 -0.27,-1.386 -0.405,-2.079 -0.153,-0.779 -0.301,-1.558 -0.462,-2.334 -0.146,-0.699 -0.303,-1.394 -0.455,-2.09 -0.167,-0.766 -0.331,-1.534 -0.507,-2.298 -0.161,-0.695 -0.333,-1.387 -0.5,-2.08 -0.185,-0.762 -0.365,-1.525 -0.559,-2.285 -0.174,-0.691 -0.361,-1.378 -0.543,-2.066 -0.199,-0.756 -0.396,-1.512 -0.605,-2.266 -0.19,-0.688 -0.391,-1.372 -0.588,-2.058 -0.216,-0.749 -0.428,-1.498 -0.652,-2.244 -0.206,-0.687 -0.422,-1.37 -0.634,-2.054 -0.23,-0.739 -0.458,-1.479 -0.696,-2.215 -0.221,-0.684 -0.452,-1.365 -0.679,-2.046 -0.244,-0.731 -0.488,-1.462 -0.74,-2.19 -0.235,-0.68 -0.48,-1.356 -0.722,-2.034 -0.266,-0.741 -0.529,-1.483 -0.803,-2.222 -0.178,-0.478 -0.359,-0.953 -0.539,-1.429 -0.318,-0.84 -0.64,-1.677 -0.969,-2.512 -0.197,-0.502 -0.396,-1.003 -0.597,-1.504 -0.33,-0.82 -0.666,-1.638 -1.005,-2.453 -0.202,-0.486 -0.404,-0.971 -0.61,-1.455 -0.372,-0.873 -0.751,-1.743 -1.133,-2.611 -0.182,-0.411 -0.36,-0.824 -0.543,-1.234 -0.568,-1.266 -1.145,-2.526 -1.736,-3.779 -0.002,-0.005 -0.004,-0.01 -0.007,-0.014 -0.592,-1.258 -1.2,-2.507 -1.817,-3.752 -0.2,-0.405 -0.407,-0.807 -0.61,-1.21 -0.424,-0.842 -0.851,-1.683 -1.285,-2.518 -0.244,-0.467 -0.491,-0.932 -0.737,-1.397 -0.34,-0.644 -0.685,-1.285 -1.032,-1.925 -0.886,-1.633 -1.785,-3.258 -2.712,-4.866 -0.024,-0.043 -0.049,-0.088 -0.073,-0.131 -0.95,-1.647 -1.929,-3.275 -2.919,-4.894 -0.267,-0.434 -0.535,-0.867 -0.804,-1.298 -0.848,-1.363 -1.71,-2.717 -2.587,-4.059 -0.178,-0.275 -0.353,-0.553 -0.535,-0.826 -1.035,-1.569 -2.092,-3.121 -3.166,-4.66 -0.282,-0.404 -0.568,-0.805 -0.853,-1.207 -0.788,-1.112 -1.584,-2.216 -2.392,-3.311 -0.308,-0.417 -0.612,-0.835 -0.923,-1.25 -1.075,-1.437 -2.162,-2.864 -3.27,-4.272 -0.038,-0.048 -0.078,-0.095 -0.115,-0.143 -1.074,-1.361 -2.169,-2.704 -3.273,-4.037 -0.336,-0.404 -0.675,-0.805 -1.014,-1.207 -0.874,-1.039 -1.758,-2.068 -2.651,-3.089 -0.319,-0.365 -0.636,-0.732 -0.958,-1.094 -1.185,-1.336 -2.383,-2.659 -3.599,-3.961 -0.187,-0.202 -0.38,-0.398 -0.569,-0.598 -1.046,-1.112 -2.104,-2.212 -3.173,-3.299 -0.375,-0.382 -0.752,-0.761 -1.13,-1.139 -0.994,-0.997 -1.999,-1.982 -3.012,-2.957 -0.294,-0.282 -0.585,-0.569 -0.88,-0.851 -1.285,-1.221 -2.583,-2.424 -3.897,-3.61 -0.273,-0.247 -0.553,-0.488 -0.828,-0.734 -1.181,-1.055 -2.373,-2.094 -3.576,-3.119 -0.362,-0.307 -0.721,-0.616 -1.084,-0.921 -1.435,-1.204 -2.881,-2.392 -4.346,-3.553 -0.207,-0.164 -0.418,-0.323 -0.625,-0.486 -1.294,-1.018 -2.6,-2.017 -3.918,-3.001 -0.392,-0.294 -0.787,-0.588 -1.181,-0.879 -1.51,-1.11 -3.03,-2.205 -4.569,-3.269 -1.125,-0.779 -2.258,-1.544 -3.396,-2.298 -0.329,-0.217 -0.662,-0.427 -0.993,-0.643 -0.818,-0.534 -1.638,-1.065 -2.464,-1.586 -0.44,-0.277 -0.883,-0.547 -1.325,-0.82 -0.724,-0.449 -1.451,-0.897 -2.181,-1.336 -0.481,-0.288 -0.963,-0.57 -1.446,-0.855 -0.699,-0.411 -1.4,-0.82 -2.103,-1.221 -0.502,-0.286 -1.004,-0.569 -1.508,-0.85 -0.697,-0.389 -1.395,-0.774 -2.097,-1.154 -0.508,-0.275 -1.018,-0.549 -1.528,-0.819 -0.71,-0.376 -1.422,-0.746 -2.137,-1.112 -0.503,-0.259 -1.007,-0.517 -1.513,-0.771 -0.74,-0.371 -1.486,-0.734 -2.231,-1.095 -0.484,-0.234 -0.967,-0.471 -1.453,-0.701 -1.137,-0.538 -2.279,-1.068 -3.428,-1.581 -0.14,-0.063 -0.282,-0.123 -0.423,-0.186 -1.036,-0.46 -2.075,-0.908 -3.118,-1.347 -0.353,-0.149 -0.707,-0.296 -1.06,-0.442 -0.913,-0.378 -1.828,-0.747 -2.746,-1.109 -0.299,-0.117 -0.598,-0.238 -0.897,-0.354 -1.187,-0.461 -2.379,-0.909 -3.576,-1.342 -0.24,-0.087 -0.481,-0.17 -0.723,-0.256 -0.976,-0.349 -1.958,-0.69 -2.942,-1.022 -0.368,-0.124 -0.735,-0.246 -1.104,-0.368 -0.977,-0.321 -1.957,-0.634 -2.94,-0.938 -0.254,-0.079 -0.508,-0.161 -0.764,-0.239 -1.216,-0.37 -2.439,-0.725 -3.665,-1.068 -0.303,-0.085 -0.608,-0.165 -0.913,-0.248 -0.957,-0.262 -1.915,-0.515 -2.876,-0.759 -0.372,-0.095 -0.745,-0.189 -1.118,-0.281 -1.082,-0.267 -2.167,-0.525 -3.256,-0.77 -0.17,-0.038 -0.338,-0.079 -0.507,-0.117 -1.247,-0.277 -2.499,-0.536 -3.753,-0.784 -0.345,-0.068 -0.692,-0.132 -1.038,-0.198 -0.956,-0.183 -1.915,-0.357 -2.876,-0.522 -0.369,-0.064 -0.736,-0.128 -1.105,-0.189 -1.27,-0.21 -2.542,-0.409 -3.818,-0.589 -1.149,-0.161 -2.293,-0.306 -3.436,-0.442 -0.362,-0.043 -0.724,-0.08 -1.086,-0.12 -0.79,-0.089 -1.58,-0.172 -2.367,-0.248 -0.406,-0.039 -0.813,-0.076 -1.218,-0.112 -0.773,-0.068 -1.545,-0.129 -2.315,-0.186 -0.375,-0.027 -0.751,-0.056 -1.125,-0.081 -0.96,-0.063 -1.917,-0.117 -2.871,-0.161 -0.17,-0.009 -0.341,-0.02 -0.51,-0.027 -1.121,-0.049 -2.238,-0.084 -3.354,-0.108 -0.322,-0.006 -0.641,-0.008 -0.962,-0.013 -0.8,-0.012 -1.598,-0.019 -2.394,-0.018 -0.393,0 -0.784,0.003 -1.175,0.007 -0.202,0.002 -0.402,0.007 -0.604,0.01 -17.204,25.701 -27.2,58.009 -27.132,94.269 0.181,98.265 74.137,188.302 165.176,201.096 7.955,1.118 15.773,1.596 23.425,1.496 17.205,-25.7 27.207,-58 27.139,-94.258 -0.002,-1.524 -0.023,-3.046 -0.061,-4.565 m -107.966,-255.665 c 0.172,-0.042 0.343,-0.083 0.513,-0.126 0.171,-0.043 0.344,-0.083 0.516,-0.125 -0.343,0.084 -0.687,0.163 -1.029,0.251 m -106.426,444.811 c 1.946,1.544 3.906,3.068 5.879,4.572 0,0 10e-4,10e-4 0.002,10e-4 -1.975,-1.505 -3.937,-3.03 -5.883,-4.575 0,0 0.002,10e-4 0.002,0.002 m 12.009,9.142 c 0.003,0.002 0.007,0.005 0.01,0.007 -0.843,-0.615 -1.677,-1.245 -2.514,-1.868 0.834,0.621 1.665,1.248 2.504,1.861 m 1.775,1.293 c 1.846,1.333 3.7,2.651 5.568,3.949 0.003,0.002 0.005,0.004 0.009,0.007 -1.873,-1.302 -3.732,-2.624 -5.584,-3.961 0.002,0.002 0.005,0.004 0.007,0.005 m 56.862,33.699 c 0.717,0.34 1.443,0.662 2.163,0.998 -0.721,-0.335 -1.447,-0.659 -2.165,-0.999 0,0 0,0.001 0.002,0.001 m 7.397,3.394 c 0.057,0.025 0.113,0.048 0.17,0.073 -0.057,-0.025 -0.113,-0.049 -0.17,-0.074 z m 8.037,3.442 c 1.264,0.523 2.534,1.028 3.804,1.536 -1.272,-0.508 -2.544,-1.014 -3.809,-1.538 0.001,0.001 0.003,0.002 0.005,0.002 m 7.011,2.817 c 2.284,0.884 4.576,1.747 6.878,2.581 0,0 0,0 0.001,0 -2.304,-0.835 -4.599,-1.698 -6.884,-2.584 z m 21.707,7.55 c 0.001,0.001 0.003,0.001 0.005,0.002 -0.342,-0.106 -0.68,-0.219 -1.022,-0.326 0.34,0.107 0.677,0.219 1.017,0.324 m 10.259,2.988 c 1.841,0.503 3.689,0.991 5.541,1.462 h 0.001 c -1.855,-0.472 -3.705,-0.96 -5.548,-1.464 0.002,0 0.004,0.001 0.006,0.002 m 14.925,3.707 c 2.121,0.471 4.252,0.908 6.387,1.334 -2.135,-0.428 -4.267,-0.864 -6.391,-1.335 10e-4,0.001 0.002,0.001 0.004,0.001 m 9.205,1.887 c 0.795,0.152 1.594,0.288 2.391,0.434 -0.801,-0.146 -1.602,-0.283 -2.4,-0.436 0.003,10e-4 0.007,10e-4 0.009,0.002 m 15.006,2.5 c -2.451,-0.344 -4.892,-0.727 -7.33,-1.13 2.438,0.403 4.879,0.786 7.33,1.13 m 28.711,2.65 c 0.023,0.001 0.044,0.001 0.066,0.002 -0.031,-0.001 -0.06,-0.002 -0.091,-0.003 0.009,0 0.017,10e-4 0.025,10e-4 m 6.449,0.206 c 0.02,0.001 0.039,0.001 0.057,0.001 -0.043,-0.001 -0.086,-0.002 -0.129,-0.003 0.024,0.001 0.049,0.002 0.072,0.002 m -218.369,-91.398 c 10e-4,0 0.002,0.001 0.002,0.001 1.862,1.683 3.737,3.349 5.627,4.994 0,10e-4 0.002,10e-4 0.003,0.002 -1.892,-1.645 -3.768,-3.313 -5.632,-4.997 m -9.743,-9.136 c 0.911,0.881 1.814,1.769 2.733,2.641 0.003,0.003 0.005,0.005 0.008,0.008 -0.921,-0.874 -1.828,-1.766 -2.741,-2.649 m -14.466,-14.707 c 0.003,0.004 0.006,0.007 0.01,0.011 1.69,1.811 3.397,3.602 5.117,5.38 10e-4,0.001 0.003,0.003 0.005,0.005 -1.725,-1.783 -3.438,-3.579 -5.132,-5.396 m -16.279,-18.557 c 0.004,0.003 0.006,0.007 0.01,0.01 1.201,1.455 2.416,2.896 3.635,4.334 -1.223,-1.441 -2.44,-2.886 -3.645,-4.344 m -5.95,-7.366 c 10e-4,0.001 10e-4,0.001 10e-4,0.002 1.556,1.974 3.135,3.928 4.723,5.872 0.002,0.003 0.004,0.006 0.007,0.009 -1.592,-1.948 -3.174,-3.905 -4.731,-5.883 m -10.093,-13.367 c 0.005,0.007 0.01,0.015 0.016,0.022 1.403,1.938 2.826,3.857 4.26,5.769 0.005,0.006 0.009,0.012 0.015,0.018 -1.445,-1.924 -2.879,-3.858 -4.291,-5.809 m -4.562,-6.438 0.005,0.009 c 0.52,0.746 1.052,1.482 1.575,2.225 -0.526,-0.745 -1.059,-1.485 -1.58,-2.234 m -4.645,-6.824 c 0.002,0.002 0.004,0.005 0.005,0.007 0.191,0.287 0.388,0.57 0.58,0.857 -0.193,-0.289 -0.392,-0.575 -0.585,-0.864 m -5.076,-7.793 c 0,0.001 0.001,0.002 0.002,0.004 0.39,0.614 0.793,1.22 1.186,1.832 -0.393,-0.614 -0.797,-1.22 -1.188,-1.836 m -9.022,-14.884 c 0.004,0.006 0.008,0.013 0.012,0.02 1.231,2.13 2.485,4.245 3.752,6.352 0.002,0.001 0.002,0.003 0.004,0.005 -1.273,-2.115 -2.532,-4.238 -3.768,-6.377 m -3.898,-6.91 c 0,0.001 0.001,0.003 0.002,0.004 0.731,1.323 1.482,2.634 2.226,3.95 -0.747,-1.316 -1.496,-2.63 -2.228,-3.954 m -3.602,-6.674 c 0,0.002 0.002,0.003 0.002,0.004 0.852,1.608 1.709,3.212 2.58,4.809 0.003,0.004 0.006,0.009 0.008,0.014 -0.875,-1.601 -1.735,-3.212 -2.59,-4.827 m -11.895,-24.348 c 10e-4,0.002 0.002,0.005 0.003,0.007 1.092,2.434 2.201,4.859 3.338,7.269 0.002,0.004 0.004,0.009 0.006,0.014 -1.141,-2.417 -2.252,-4.849 -3.347,-7.29 m -6.241,-14.698 c 0.607,1.507 1.222,3.01 1.846,4.509 0.002,0.005 0.005,0.01 0.007,0.015 -0.627,-1.504 -1.244,-3.012 -1.853,-4.524 m -5.679,-14.954 c 0.004,0.01 0.007,0.021 0.011,0.031 0.195,0.544 0.394,1.086 0.589,1.629 -0.201,-0.553 -0.402,-1.106 -0.6,-1.66 m -2.384,-6.857 c 0.328,0.984 0.654,1.968 0.994,2.948 0.002,0.004 0.003,0.009 0.004,0.013 -0.34,-0.984 -0.665,-1.974 -0.998,-2.961 m -3.074,-9.471 c 0.004,0.014 0.008,0.027 0.013,0.041 0.24,0.771 0.485,1.542 0.725,2.313 -0.245,-0.785 -0.494,-1.569 -0.738,-2.354 m -2.122,-7.056 c 0.299,1.041 0.595,2.082 0.905,3.119 0.002,0.005 0.004,0.009 0.005,0.014 -0.312,-1.041 -0.606,-2.089 -0.91,-3.133 m -1.87,-6.62 c 0.131,0.488 0.256,0.978 0.39,1.465 10e-4,0.001 10e-4,0.002 0.002,0.003 -0.135,-0.488 -0.259,-0.98 -0.392,-1.468 m -6.61,-28.288 0.024,0.123 c 0.293,1.492 0.576,2.986 0.886,4.474 10e-4,0.006 0.003,0.012 0.004,0.018 -0.32,-1.535 -0.613,-3.076 -0.914,-4.615 m -2.664,-15.199 c 0.139,0.925 0.272,1.85 0.422,2.772 0,0.001 0,0.003 0.001,0.004 -0.149,-0.923 -0.279,-1.851 -0.423,-2.776 m -2.494,-19.27 c 0.002,0.014 0.004,0.028 0.005,0.042 0.167,1.601 0.323,3.204 0.51,4.801 0.001,0.003 0.001,0.006 0.001,0.009 -0.189,-1.614 -0.347,-3.234 -0.516,-4.852 m -0.74,-7.929 c 0.109,1.373 0.213,2.747 0.342,4.117 0,0.003 0,0.006 10e-4,0.009 -0.129,-1.373 -0.229,-2.75 -0.343,-4.126 m -1.121,-19.382 c 0.003,0.1 0.007,0.201 0.01,0.302 0.051,1.549 0.107,3.099 0.172,4.647 -0.075,-1.647 -0.129,-3.298 -0.182,-4.949 M 4.214,-2.233 c 0.057,-0.032 0.115,-0.061 0.173,-0.093 0.134,-0.072 0.27,-0.142 0.405,-0.215 l -113.967,61.997 c -0.099,0.055 -0.202,0.107 -0.303,0.161 -1.46,0.792 -2.927,1.571 -4.403,2.336 -0.556,0.288 -1.119,0.564 -1.678,0.848 -1.028,0.523 -2.054,1.049 -3.09,1.558 -0.063,0.031 -0.125,0.064 -0.19,0.095 -0.277,0.137 -0.56,0.264 -0.838,0.399 -1.482,0.721 -2.97,1.43 -4.467,2.123 -0.605,0.28 -1.213,0.555 -1.822,0.831 -1.273,0.578 -2.553,1.147 -3.838,1.705 -0.624,0.271 -1.248,0.543 -1.875,0.81 -1.446,0.616 -2.9,1.216 -4.359,1.805 -0.426,0.173 -0.849,0.351 -1.276,0.521 -1.875,0.747 -3.761,1.471 -5.659,2.175 -0.475,0.177 -0.956,0.345 -1.433,0.519 -1.443,0.527 -2.891,1.043 -4.346,1.545 -0.651,0.224 -1.304,0.444 -1.957,0.663 -1.347,0.453 -2.698,0.894 -4.054,1.325 -0.63,0.2 -1.258,0.403 -1.888,0.599 -1.692,0.523 -3.389,1.03 -5.094,1.521 -0.268,0.076 -0.531,0.159 -0.799,0.235 -1.967,0.559 -3.945,1.092 -5.932,1.608 -0.158,0.041 -0.314,0.087 -0.472,0.128 -0.436,0.112 -0.877,0.21 -1.313,0.32 -1.381,0.348 -2.763,0.688 -4.152,1.014 -0.701,0.164 -1.402,0.325 -2.106,0.484 -1.343,0.304 -2.693,0.597 -4.045,0.881 -0.672,0.141 -1.343,0.285 -2.017,0.421 -1.626,0.328 -3.258,0.64 -4.895,0.938 -0.379,0.07 -0.756,0.146 -1.136,0.214 -2.012,0.359 -4.033,0.693 -6.061,1.007 -0.558,0.087 -1.119,0.163 -1.679,0.246 -1.488,0.221 -2.979,0.433 -4.476,0.63 -0.718,0.094 -1.438,0.183 -2.157,0.272 -1.387,0.171 -2.777,0.332 -4.17,0.482 -0.715,0.077 -1.43,0.155 -2.147,0.227 -1.56,0.156 -3.125,0.295 -4.695,0.425 -0.522,0.043 -1.04,0.093 -1.563,0.134 -2.081,0.16 -4.169,0.297 -6.264,0.411 -0.479,0.027 -0.96,0.042 -1.439,0.066 -1.631,0.081 -3.264,0.15 -4.903,0.202 -0.725,0.023 -1.451,0.038 -2.177,0.056 -1.433,0.035 -2.869,0.059 -4.306,0.072 -0.75,0.006 -1.498,0.012 -2.248,0.013 -1.536,0.001 -3.075,-0.012 -4.616,-0.036 -0.617,-0.009 -1.23,-0.011 -1.848,-0.025 -2.144,-0.046 -4.293,-0.112 -6.45,-0.206 -0.325,-0.015 -0.651,-0.037 -0.975,-0.052 -1.838,-0.086 -3.682,-0.189 -5.528,-0.311 -0.718,-0.047 -1.439,-0.103 -2.16,-0.156 -1.484,-0.109 -2.97,-0.227 -4.461,-0.359 -0.777,-0.068 -1.554,-0.139 -2.333,-0.214 -1.52,-0.146 -3.044,-0.307 -4.569,-0.477 -0.691,-0.078 -1.383,-0.149 -2.075,-0.231 -2.198,-0.261 -4.402,-0.539 -6.61,-0.85 -2.455,-0.345 -4.901,-0.729 -7.341,-1.132 -0.71,-0.117 -1.419,-0.241 -2.128,-0.363 -1.85,-0.319 -3.695,-0.654 -5.536,-1.005 -0.662,-0.126 -1.326,-0.249 -1.986,-0.379 -2.414,-0.477 -4.822,-0.976 -7.22,-1.508 -0.328,-0.073 -0.653,-0.154 -0.979,-0.227 -2.092,-0.471 -4.178,-0.966 -6.258,-1.479 -0.719,-0.177 -1.435,-0.359 -2.153,-0.541 -1.848,-0.47 -3.691,-0.956 -5.528,-1.459 -0.584,-0.16 -1.17,-0.314 -1.754,-0.477 -2.358,-0.659 -4.707,-1.343 -7.048,-2.054 -0.492,-0.15 -0.982,-0.309 -1.474,-0.461 -1.888,-0.584 -3.771,-1.185 -5.648,-1.803 -0.711,-0.234 -1.42,-0.47 -2.128,-0.709 -1.888,-0.636 -3.769,-1.289 -5.644,-1.96 -0.466,-0.166 -0.936,-0.326 -1.402,-0.496 -2.301,-0.833 -4.59,-1.695 -6.871,-2.578 -0.58,-0.225 -1.156,-0.458 -1.734,-0.686 -1.761,-0.694 -3.516,-1.402 -5.266,-2.126 -0.686,-0.284 -1.371,-0.567 -2.054,-0.855 -1.992,-0.84 -3.976,-1.697 -5.953,-2.575 -0.286,-0.126 -0.573,-0.247 -0.858,-0.375 -1.912,-0.855 -3.818,-1.727 -5.715,-2.618 -0.287,-0.135 -0.571,-0.279 -0.859,-0.414 -0.946,-0.448 -1.884,-0.909 -2.826,-1.365 -1.423,-0.689 -2.844,-1.38 -4.257,-2.088 -0.98,-0.492 -1.955,-0.993 -2.931,-1.493 -1.368,-0.702 -2.734,-1.41 -4.093,-2.13 -0.983,-0.521 -1.964,-1.048 -2.943,-1.578 -1.35,-0.732 -2.695,-1.473 -4.037,-2.222 -0.963,-0.538 -1.926,-1.078 -2.886,-1.626 -1.36,-0.776 -2.711,-1.566 -4.062,-2.36 -0.925,-0.544 -1.85,-1.085 -2.769,-1.638 -1.409,-0.846 -2.809,-1.709 -4.207,-2.575 -0.844,-0.522 -1.692,-1.038 -2.532,-1.567 -1.6,-1.01 -3.19,-2.041 -4.777,-3.076 -0.622,-0.406 -1.25,-0.802 -1.87,-1.212 -2.162,-1.429 -4.313,-2.88 -6.448,-4.357 -0.042,-0.029 -0.084,-0.06 -0.126,-0.089 -0.182,-0.125 -0.36,-0.254 -0.541,-0.38 -1.867,-1.297 -3.721,-2.616 -5.567,-3.948 -0.593,-0.429 -1.184,-0.861 -1.775,-1.293 -1.561,-1.141 -3.112,-2.295 -4.656,-3.46 -0.492,-0.371 -0.987,-0.738 -1.476,-1.112 -1.972,-1.503 -3.931,-3.025 -5.875,-4.569 -0.394,-0.313 -0.784,-0.633 -1.178,-0.948 -1.582,-1.265 -3.155,-2.545 -4.718,-3.837 -0.576,-0.475 -1.15,-0.952 -1.722,-1.431 -1.583,-1.324 -3.156,-2.661 -4.721,-4.012 -0.351,-0.304 -0.708,-0.604 -1.059,-0.909 -1.65,-1.435 -3.289,-2.882 -4.916,-4.346 -0.23,-0.206 -0.456,-0.418 -0.685,-0.625 -0.432,-0.391 -0.86,-0.786 -1.291,-1.179 -1.506,-1.373 -3.002,-2.759 -4.488,-4.157 -0.419,-0.394 -0.84,-0.786 -1.258,-1.182 -1.785,-1.695 -3.557,-3.406 -5.312,-5.135 -0.358,-0.353 -0.711,-0.71 -1.069,-1.064 -1.476,-1.466 -2.943,-2.944 -4.398,-4.434 -0.428,-0.438 -0.856,-0.874 -1.282,-1.314 -1.723,-1.781 -3.433,-3.575 -5.127,-5.389 -0.271,-0.291 -0.538,-0.587 -0.808,-0.879 -1.471,-1.585 -2.927,-3.183 -4.373,-4.793 -0.422,-0.47 -0.844,-0.939 -1.264,-1.411 -0.33,-0.372 -0.666,-0.738 -0.995,-1.111 -1.324,-1.499 -2.637,-3.011 -3.94,-4.531 -0.164,-0.192 -0.327,-0.388 -0.492,-0.581 -1.482,-1.735 -2.948,-3.486 -4.403,-5.249 -0.412,-0.499 -0.823,-0.998 -1.233,-1.5 -1.589,-1.943 -3.167,-3.897 -4.724,-5.872 -0.058,-0.073 -0.114,-0.149 -0.172,-0.223 -1.502,-1.909 -2.982,-3.837 -4.452,-5.775 -0.399,-0.526 -0.797,-1.053 -1.193,-1.581 -1.435,-1.91 -2.858,-3.83 -4.261,-5.767 -0.083,-0.116 -0.169,-0.23 -0.252,-0.346 -1.148,-1.589 -2.287,-3.187 -3.414,-4.794 -0.305,-0.435 -0.602,-0.875 -0.905,-1.312 -0.42,-0.603 -0.836,-1.208 -1.253,-1.813 -1.143,-1.663 -2.274,-3.333 -3.393,-5.012 -0.322,-0.483 -0.648,-0.963 -0.968,-1.447 -1.389,-2.103 -2.759,-4.219 -4.112,-6.35 -0.314,-0.495 -0.622,-0.994 -0.934,-1.491 -1.076,-1.711 -2.14,-3.43 -3.192,-5.158 -0.379,-0.621 -0.757,-1.243 -1.133,-1.867 -1.266,-2.106 -2.521,-4.221 -3.753,-6.352 -0.048,-0.083 -0.097,-0.165 -0.145,-0.248 -1.277,-2.212 -2.527,-4.441 -3.763,-6.678 -0.342,-0.62 -0.682,-1.243 -1.021,-1.865 -0.417,-0.764 -0.842,-1.525 -1.254,-2.292 -0.449,-0.835 -0.883,-1.678 -1.326,-2.516 -0.467,-0.885 -0.937,-1.768 -1.399,-2.656 -0.844,-1.622 -1.672,-3.254 -2.494,-4.889 -0.383,-0.761 -0.773,-1.517 -1.151,-2.281 -1.189,-2.398 -2.359,-4.805 -3.501,-7.227 -0.004,-0.007 -0.008,-0.016 -0.012,-0.024 -1.137,-2.41 -2.246,-4.834 -3.338,-7.268 -0.353,-0.791 -0.697,-1.587 -1.047,-2.38 -0.734,-1.666 -1.463,-3.334 -2.175,-5.011 -0.397,-0.934 -0.786,-1.872 -1.176,-2.81 -0.651,-1.561 -1.292,-3.125 -1.924,-4.695 -0.391,-0.972 -0.779,-1.944 -1.161,-2.919 -0.626,-1.591 -1.238,-3.187 -1.844,-4.786 -0.353,-0.931 -0.71,-1.862 -1.056,-2.796 -0.135,-0.363 -0.277,-0.724 -0.41,-1.088 -0.382,-1.039 -0.74,-2.087 -1.113,-3.129 -0.472,-1.318 -0.948,-2.635 -1.406,-3.958 -0.481,-1.386 -0.942,-2.778 -1.408,-4.17 -0.443,-1.325 -0.891,-2.647 -1.321,-3.977 -0.453,-1.401 -0.885,-2.809 -1.322,-4.216 -0.414,-1.33 -0.834,-2.657 -1.235,-3.992 -0.424,-1.419 -0.83,-2.845 -1.239,-4.269 -0.384,-1.334 -0.774,-2.665 -1.144,-4.004 -0.398,-1.436 -0.773,-2.879 -1.155,-4.32 -0.353,-1.336 -0.715,-2.668 -1.053,-4.008 -0.37,-1.452 -0.715,-2.911 -1.067,-4.368 -0.324,-1.34 -0.656,-2.677 -0.967,-4.022 -0.338,-1.465 -0.652,-2.939 -0.973,-4.41 -0.294,-1.342 -0.597,-2.681 -0.876,-4.027 -0.31,-1.486 -0.594,-2.979 -0.885,-4.469 -0.263,-1.34 -0.535,-2.677 -0.784,-4.019 -0.278,-1.506 -0.53,-3.017 -0.792,-4.527 -0.232,-1.336 -0.474,-2.67 -0.692,-4.009 -0.248,-1.53 -0.468,-3.065 -0.699,-4.599 -0.199,-1.326 -0.41,-2.65 -0.595,-3.979 -0.218,-1.558 -0.407,-3.122 -0.606,-4.684 -0.166,-1.312 -0.347,-2.621 -0.5,-3.936 -0.187,-1.597 -0.344,-3.2 -0.51,-4.802 -0.134,-1.285 -0.283,-2.567 -0.404,-3.854 -0.154,-1.649 -0.277,-3.304 -0.412,-4.957 -0.101,-1.246 -0.217,-2.489 -0.306,-3.737 -0.124,-1.736 -0.214,-3.478 -0.313,-5.218 -0.068,-1.169 -0.152,-2.335 -0.207,-3.505 -0.094,-1.924 -0.151,-3.853 -0.214,-5.78 -0.032,-0.992 -0.083,-1.982 -0.109,-2.975 -0.072,-2.921 -0.113,-5.847 -0.119,-8.777 -0.225,-121.725 58.462,-220.326 147.049,-268.517 l 113.967,-61.997 c -0.194,0.106 -0.386,0.216 -0.58,0.322 49.07,-26.855 107.357,-38.221 169.916,-29.429 175.094,24.608 317.314,197.751 317.665,386.735 0.226,121.977 -58.716,220.733 -147.624,268.81"/></g>
            </g>
        </g>
        <g id="g24">
            <g clip-path="url(#clipPath30)" id="g26">
                <g id="g32">
                    <g id="g34"><path
                        id="path42"
                        style="fill:url(#linearGradient40);stroke:none"
                        d="m 481.883,430.272 c -0.002,-1.524 -0.024,-3.046 -0.062,-4.566 v 0 c -0.012,-0.505 -0.037,-1.01 -0.055,-1.516 v 0 c -0.034,-1.013 -0.063,-2.025 -0.111,-3.035 v 0 c -0.03,-0.608 -0.073,-1.214 -0.108,-1.822 v 0 c -0.052,-0.905 -0.099,-1.811 -0.164,-2.714 v 0 c -0.045,-0.644 -0.105,-1.287 -0.158,-1.93 v 0 c -0.07,-0.865 -0.134,-1.73 -0.216,-2.593 v 0 c -0.062,-0.662 -0.138,-1.321 -0.207,-1.981 v 0 c -0.087,-0.84 -0.169,-1.681 -0.267,-2.52 v 0 c -0.079,-0.675 -0.172,-1.348 -0.257,-2.021 v 0 c -0.104,-0.821 -0.204,-1.644 -0.319,-2.463 v 0 c -0.094,-0.682 -0.203,-1.362 -0.305,-2.043 v 0 c -0.12,-0.806 -0.237,-1.613 -0.368,-2.417 v 0 c -0.112,-0.692 -0.237,-1.38 -0.356,-2.07 v 0 c -0.137,-0.791 -0.27,-1.581 -0.415,-2.368 v 0 c -0.128,-0.695 -0.269,-1.386 -0.405,-2.079 v 0 c -0.152,-0.779 -0.301,-1.558 -0.462,-2.334 v 0 c -0.146,-0.698 -0.303,-1.394 -0.455,-2.091 v 0 c -0.168,-0.766 -0.332,-1.533 -0.507,-2.298 v 0 c -0.161,-0.694 -0.333,-1.386 -0.501,-2.079 v 0 c -0.184,-0.762 -0.365,-1.526 -0.557,-2.285 v 0 c -0.175,-0.691 -0.362,-1.378 -0.544,-2.066 v 0 c -0.199,-0.756 -0.396,-1.513 -0.605,-2.266 v 0 c -0.19,-0.688 -0.391,-1.373 -0.588,-2.059 v 0 c -0.217,-0.748 -0.428,-1.498 -0.653,-2.243 v 0 c -0.204,-0.687 -0.421,-1.37 -0.634,-2.054 v 0 c -0.229,-0.739 -0.458,-1.48 -0.694,-2.215 v 0 c -0.223,-0.685 -0.453,-1.365 -0.681,-2.046 v 0 c -0.244,-0.731 -0.487,-1.463 -0.739,-2.19 v 0 c -0.235,-0.681 -0.48,-1.357 -0.722,-2.034 v 0 c -0.266,-0.742 -0.53,-1.483 -0.803,-2.222 v 0 c -0.177,-0.478 -0.359,-0.953 -0.539,-1.429 v 0 c -0.318,-0.84 -0.639,-1.677 -0.969,-2.512 v 0 c -0.197,-0.503 -0.397,-1.003 -0.597,-1.503 v 0 c -0.331,-0.821 -0.666,-1.639 -1.006,-2.455 v 0 c -0.201,-0.485 -0.403,-0.971 -0.609,-1.454 v 0 c -0.372,-0.874 -0.75,-1.743 -1.134,-2.611 v 0 c -0.181,-0.411 -0.359,-0.824 -0.543,-1.234 v 0 c -0.567,-1.266 -1.144,-2.526 -1.735,-3.78 v 0 c -0.002,-0.004 -0.003,-0.009 -0.007,-0.013 v 0 c -0.592,-1.258 -1.2,-2.508 -1.817,-3.753 v 0 c -0.2,-0.404 -0.407,-0.806 -0.61,-1.209 v 0 c -0.424,-0.842 -0.851,-1.683 -1.286,-2.518 v 0 c -0.243,-0.467 -0.49,-0.933 -0.736,-1.398 v 0 c -0.34,-0.644 -0.686,-1.283 -1.032,-1.924 v 0 c -0.886,-1.634 -1.786,-3.258 -2.712,-4.867 v 0 c -0.025,-0.043 -0.049,-0.087 -0.073,-0.131 v 0 c -0.951,-1.647 -1.929,-3.274 -2.919,-4.893 v 0 c -0.267,-0.435 -0.536,-0.867 -0.804,-1.298 v 0 c -0.849,-1.364 -1.71,-2.717 -2.587,-4.059 v 0 c -0.179,-0.275 -0.353,-0.553 -0.535,-0.826 v 0 c -1.035,-1.57 -2.092,-3.121 -3.166,-4.66 v 0 c -0.282,-0.405 -0.568,-0.805 -0.853,-1.207 v 0 c -0.788,-1.113 -1.584,-2.216 -2.392,-3.311 v 0 c -0.308,-0.417 -0.613,-0.836 -0.923,-1.25 v 0 c -1.076,-1.437 -2.162,-2.864 -3.271,-4.273 v 0 c -0.037,-0.048 -0.077,-0.094 -0.114,-0.142 v 0 c -1.074,-1.362 -2.169,-2.705 -3.273,-4.037 v 0 c -0.336,-0.405 -0.675,-0.805 -1.014,-1.207 v 0 c -0.874,-1.039 -1.757,-2.069 -2.651,-3.089 v 0 c -0.32,-0.366 -0.636,-0.733 -0.959,-1.095 v 0 c -1.184,-1.336 -2.382,-2.658 -3.598,-3.96 v 0 c -0.187,-0.202 -0.38,-0.398 -0.57,-0.598 v 0 c -1.045,-1.112 -2.103,-2.212 -3.172,-3.299 v 0 c -0.375,-0.382 -0.752,-0.761 -1.13,-1.139 v 0 c -0.994,-0.997 -1.999,-1.983 -3.012,-2.956 v 0 c -0.295,-0.284 -0.585,-0.571 -0.881,-0.852 v 0 c -1.283,-1.221 -2.583,-2.424 -3.896,-3.61 v 0 c -0.274,-0.247 -0.553,-0.488 -0.828,-0.735 v 0 c -1.181,-1.054 -2.373,-2.093 -3.577,-3.118 v 0 c -0.361,-0.307 -0.72,-0.616 -1.083,-0.921 v 0 c -1.435,-1.204 -2.881,-2.392 -4.346,-3.553 v 0 c -0.207,-0.164 -0.418,-0.324 -0.625,-0.486 v 0 c -1.294,-1.018 -2.601,-2.017 -3.918,-3.001 v 0 c -0.393,-0.294 -0.787,-0.588 -1.181,-0.879 v 0 c -1.511,-1.111 -3.03,-2.205 -4.569,-3.27 v 0 c -1.125,-0.778 -2.258,-1.543 -3.396,-2.297 v 0 c -0.33,-0.218 -0.663,-0.427 -0.993,-0.643 v 0 c -0.818,-0.534 -1.638,-1.066 -2.464,-1.586 v 0 c -0.44,-0.277 -0.883,-0.547 -1.325,-0.82 v 0 c -0.725,-0.449 -1.451,-0.896 -2.182,-1.336 v 0 c -0.48,-0.288 -0.963,-0.57 -1.445,-0.855 v 0 c -0.699,-0.411 -1.4,-0.82 -2.103,-1.222 v 0 c -0.503,-0.286 -1.004,-0.568 -1.508,-0.849 v 0 c -0.697,-0.39 -1.396,-0.774 -2.097,-1.154 v 0 c -0.508,-0.276 -1.019,-0.549 -1.528,-0.82 v 0 c -0.71,-0.375 -1.422,-0.745 -2.137,-1.112 v 0 c -0.504,-0.258 -1.008,-0.516 -1.513,-0.771 v 0 c -0.74,-0.371 -1.485,-0.733 -2.231,-1.094 v 0 c -0.484,-0.234 -0.966,-0.471 -1.453,-0.7 v 0 c -1.137,-0.54 -2.279,-1.069 -3.427,-1.583 v 0 c -0.142,-0.063 -0.283,-0.122 -0.424,-0.185 v 0 c -1.036,-0.46 -2.075,-0.908 -3.118,-1.347 v 0 c -0.353,-0.15 -0.706,-0.297 -1.06,-0.442 v 0 c -0.913,-0.378 -1.829,-0.747 -2.747,-1.109 v 0 c -0.299,-0.118 -0.597,-0.239 -0.896,-0.355 v 0 c -1.187,-0.46 -2.379,-0.908 -3.576,-1.342 v 0 c -0.24,-0.087 -0.481,-0.169 -0.723,-0.255 v 0 c -0.976,-0.349 -1.958,-0.69 -2.942,-1.022 v 0 c -0.368,-0.124 -0.735,-0.246 -1.105,-0.368 v 0 c -0.976,-0.321 -1.957,-0.634 -2.939,-0.938 v 0 c -0.254,-0.079 -0.508,-0.162 -0.764,-0.239 v 0 c -1.216,-0.37 -2.439,-0.725 -3.664,-1.068 v 0 c -0.305,-0.085 -0.609,-0.165 -0.914,-0.249 v 0 c -0.957,-0.261 -1.915,-0.514 -2.876,-0.758 v 0 c -0.372,-0.095 -0.745,-0.189 -1.118,-0.281 v 0 c -1.082,-0.267 -2.167,-0.525 -3.256,-0.77 v 0 c -0.169,-0.038 -0.338,-0.08 -0.508,-0.117 v 0 c -1.245,-0.278 -2.497,-0.536 -3.753,-0.785 v 0 c -0.344,-0.068 -0.691,-0.131 -1.037,-0.198 v 0 c -0.955,-0.182 -1.915,-0.356 -2.876,-0.522 v 0 c -0.369,-0.063 -0.736,-0.127 -1.105,-0.188 v 0 c -1.269,-0.21 -2.542,-0.41 -3.818,-0.589 v 0 c -1.149,-0.161 -2.293,-0.306 -3.436,-0.442 v 0 c -0.362,-0.042 -0.724,-0.08 -1.086,-0.121 v 0 c -0.79,-0.088 -1.58,-0.171 -2.368,-0.247 v 0 c -0.405,-0.039 -0.811,-0.076 -1.217,-0.112 v 0 c -0.773,-0.068 -1.545,-0.129 -2.315,-0.186 v 0 c -0.375,-0.027 -0.752,-0.057 -1.125,-0.081 v 0 c -0.96,-0.063 -1.917,-0.117 -2.871,-0.161 v 0 c -0.17,-0.009 -0.341,-0.02 -0.51,-0.027 v 0 c -1.122,-0.05 -2.239,-0.085 -3.354,-0.108 v 0 c -0.322,-0.006 -0.641,-0.008 -0.963,-0.013 v 0 c -0.8,-0.012 -1.597,-0.02 -2.393,-0.019 v 0 c -0.393,10e-4 -0.785,0.004 -1.175,0.008 v 0 c -0.748,0.006 -1.494,0.019 -2.238,0.036 v 0 c -0.376,0.009 -0.753,0.018 -1.129,0.03 v 0 c -0.853,0.026 -1.703,0.062 -2.552,0.105 v 0 c -0.249,0.012 -0.499,0.02 -0.747,0.034 v 0 c -1.089,0.059 -2.176,0.131 -3.258,0.214 v 0 c -0.27,0.022 -0.539,0.047 -0.809,0.069 v 0 c -0.816,0.068 -1.63,0.141 -2.441,0.222 v 0 c -0.375,0.037 -0.747,0.078 -1.121,0.118 v 0 c -0.724,0.078 -1.446,0.162 -2.167,0.251 v 0 c -0.373,0.046 -0.746,0.091 -1.118,0.141 v 0 c -0.781,0.102 -1.559,0.212 -2.336,0.328 v 0 c -0.287,0.043 -0.576,0.082 -0.864,0.126 v 0 c -1.056,0.164 -2.106,0.338 -3.154,0.524 v 0 c -0.197,0.035 -0.39,0.075 -0.586,0.11 v 0 c -0.852,0.157 -1.702,0.319 -2.549,0.49 v 0 c -0.351,0.071 -0.702,0.145 -1.052,0.219 v 0 c -0.701,0.148 -1.4,0.299 -2.098,0.457 v 0 c -0.367,0.083 -0.732,0.166 -1.098,0.252 v 0 c -0.721,0.171 -1.441,0.347 -2.158,0.528 v 0 c -0.309,0.077 -0.619,0.153 -0.928,0.232 v 0 c -1.033,0.268 -2.062,0.545 -3.085,0.836 v 0 c -0.137,0.039 -0.272,0.081 -0.408,0.121 v 0 c -0.889,0.255 -1.773,0.52 -2.655,0.794 v 0 c -0.328,0.1 -0.654,0.206 -0.981,0.31 v 0 c -0.706,0.224 -1.409,0.454 -2.11,0.689 v 0 c -0.339,0.114 -0.676,0.227 -1.014,0.344 v 0 c -0.759,0.261 -1.516,0.531 -2.268,0.807 v 0 c -0.246,0.089 -0.492,0.175 -0.737,0.266 v 0 c -0.988,0.366 -1.97,0.743 -2.946,1.132 v 0 c -0.219,0.088 -0.435,0.178 -0.653,0.267 v 0 c -0.762,0.307 -1.523,0.622 -2.278,0.943 v 0 c -0.324,0.138 -0.646,0.278 -0.968,0.418 v 0 c -0.671,0.292 -1.339,0.589 -2.005,0.891 v 0 c -0.313,0.142 -0.627,0.284 -0.938,0.428 v 0 c -0.786,0.364 -1.564,0.734 -2.342,1.112 v 0 c -0.16,0.079 -0.321,0.154 -0.48,0.232 v 0 c -1.674,0.823 -3.33,1.678 -4.965,2.568 v 0 l 113.966,-61.996 c 1.636,-0.89 3.29,-1.745 4.964,-2.568 v 0 c 0.02,-0.01 0.04,-0.022 0.061,-0.031 v 0 c 0.141,-0.07 0.286,-0.136 0.427,-0.204 v 0 c 0.773,-0.376 1.55,-0.746 2.331,-1.108 v 0 c 0.315,-0.146 0.63,-0.288 0.946,-0.431 v 0 c 0.664,-0.301 1.332,-0.598 2.002,-0.89 v 0 c 0.322,-0.139 0.643,-0.279 0.967,-0.417 v 0 c 0.753,-0.32 1.511,-0.633 2.271,-0.94 v 0 c 0.221,-0.09 0.44,-0.183 0.663,-0.271 v 0 c 0.974,-0.388 1.954,-0.765 2.941,-1.131 v 0 c 0.248,-0.092 0.498,-0.18 0.748,-0.27 v 0 c 0.749,-0.274 1.502,-0.542 2.258,-0.802 v 0 c 0.337,-0.117 0.677,-0.232 1.017,-0.346 v 0 c 0.699,-0.236 1.402,-0.464 2.107,-0.688 v 0 c 0.328,-0.105 0.655,-0.21 0.984,-0.312 v 0 c 0.88,-0.272 1.763,-0.536 2.65,-0.792 v 0 c 0.138,-0.039 0.273,-0.082 0.411,-0.121 v 0 c 1.024,-0.291 2.053,-0.568 3.086,-0.836 v 0 c 0.082,-0.021 0.162,-0.045 0.246,-0.067 v 0 c 0.225,-0.058 0.454,-0.109 0.68,-0.166 v 0 c 0.719,-0.181 1.439,-0.358 2.162,-0.528 v 0 c 0.364,-0.085 0.727,-0.168 1.092,-0.251 v 0 c 0.699,-0.158 1.4,-0.311 2.104,-0.458 v 0 c 0.35,-0.073 0.699,-0.148 1.05,-0.22 v 0 c 0.844,-0.169 1.689,-0.33 2.537,-0.486 v 0 c 0.199,-0.037 0.399,-0.077 0.599,-0.112 v 0 c 1.046,-0.187 2.095,-0.36 3.15,-0.523 v 0 c 0.291,-0.045 0.585,-0.086 0.877,-0.129 v 0 c 0.771,-0.115 1.545,-0.225 2.321,-0.327 v 0 c 0.375,-0.049 0.751,-0.095 1.127,-0.142 v 0 c 0.719,-0.089 1.439,-0.172 2.161,-0.249 v 0 c 0.374,-0.04 0.747,-0.082 1.121,-0.12 v 0 c 0.812,-0.081 1.626,-0.153 2.441,-0.22 v 0 c 0.271,-0.023 0.54,-0.049 0.811,-0.07 v 0 c 1.082,-0.083 2.168,-0.154 3.258,-0.214 v 0 c 0.249,-0.013 0.499,-0.021 0.748,-0.034 v 0 c 0.847,-0.041 1.696,-0.077 2.547,-0.105 v 0 c 0.377,-0.012 0.755,-0.02 1.133,-0.029 v 0 c 0.746,-0.018 1.494,-0.031 2.241,-0.037 v 0 c 0.389,-0.004 0.777,-0.006 1.167,-0.007 v 0 c 0.799,-0.001 1.599,0.006 2.402,0.019 v 0 c 0.319,0.004 0.639,0.006 0.958,0.012 v 0 c 1.115,0.025 2.232,0.059 3.354,0.108 v 0 c 0.17,0.008 0.341,0.019 0.51,0.026 v 0 c 0.954,0.045 1.911,0.099 2.87,0.162 v 0 c 0.375,0.025 0.751,0.054 1.126,0.081 v 0 c 0.771,0.057 1.544,0.118 2.317,0.187 v 0 c 0.404,0.036 0.809,0.073 1.213,0.111 v 0 c 0.79,0.076 1.582,0.16 2.375,0.249 v 0 c 0.361,0.039 0.721,0.077 1.081,0.12 v 0 c 1.142,0.135 2.287,0.28 3.435,0.441 v 0 c 1.276,0.179 2.55,0.379 3.82,0.589 v 0 c 0.367,0.061 0.734,0.125 1.101,0.188 v 0 c 0.964,0.167 1.926,0.341 2.886,0.524 v 0 c 0.343,0.066 0.686,0.13 1.028,0.197 v 0 c 1.254,0.248 2.506,0.507 3.753,0.784 v 0 c 0.174,0.038 0.347,0.081 0.521,0.12 v 0 c 1.084,0.244 2.166,0.501 3.246,0.767 v 0 c 0.373,0.092 0.744,0.186 1.117,0.281 v 0 c 0.963,0.245 1.924,0.499 2.883,0.761 v 0 c 0.3,0.082 0.604,0.162 0.904,0.245 v 0 c 1.226,0.343 2.447,0.699 3.665,1.069 v 0 c 0.258,0.078 0.514,0.161 0.77,0.241 v 0 c 0.983,0.304 1.963,0.616 2.941,0.938 v 0 c 0.365,0.121 0.731,0.243 1.097,0.366 v 0 c 0.984,0.332 1.966,0.673 2.945,1.022 v 0 c 0.241,0.087 0.483,0.169 0.722,0.256 v 0 c 1.197,0.434 2.39,0.882 3.577,1.342 v 0 c 0.299,0.116 0.596,0.237 0.894,0.353 v 0 c 0.92,0.363 1.836,0.733 2.751,1.111 v 0 c 0.351,0.146 0.704,0.292 1.056,0.44 v 0 c 1.044,0.439 2.084,0.889 3.119,1.349 v 0 c 0.141,0.062 0.283,0.122 0.424,0.185 v 0 c 0.996,0.446 1.989,0.9 2.978,1.363 v 0 c 0.15,0.071 0.299,0.147 0.449,0.217 v 0 c 0.487,0.232 0.971,0.469 1.457,0.704 v 0 c 0.743,0.36 1.487,0.723 2.226,1.093 v 0 c 0.507,0.253 1.011,0.513 1.516,0.772 v 0 c 0.714,0.366 1.427,0.735 2.136,1.111 v 0 c 0.509,0.27 1.017,0.543 1.525,0.817 v 0 c 0.703,0.382 1.404,0.768 2.104,1.158 v 0 c 0.499,0.28 1.001,0.561 1.498,0.846 v 0 c 0.707,0.403 1.41,0.813 2.111,1.225 v 0 c 0.481,0.284 0.964,0.566 1.443,0.854 v 0 c 0.732,0.439 1.458,0.887 2.184,1.336 v 0 c 0.441,0.273 0.883,0.542 1.32,0.818 v 0 c 0.824,0.52 1.641,1.05 2.457,1.582 v 0 c 0.334,0.218 0.671,0.43 1.004,0.65 v 0 c 1.124,0.743 2.241,1.496 3.351,2.264 v 0 c 0.015,0.01 0.028,0.022 0.043,0.032 v 0 c 1.538,1.063 3.059,2.159 4.568,3.27 v 0 c 0.396,0.291 0.789,0.585 1.183,0.878 v 0 c 1.315,0.983 2.621,1.981 3.914,2.998 v 0 c 0.209,0.165 0.422,0.325 0.63,0.491 v 0 c 1.464,1.16 2.909,2.347 4.343,3.55 v 0 c 0.363,0.305 0.725,0.615 1.085,0.924 v 0 c 1.204,1.024 2.396,2.063 3.577,3.117 v 0 c 0.195,0.175 0.396,0.34 0.589,0.515 v 0 c 0.081,0.071 0.159,0.148 0.239,0.22 v 0 c 1.312,1.185 2.611,2.388 3.896,3.61 v 0 c 0.295,0.28 0.585,0.567 0.879,0.849 v 0 c 1.014,0.976 2.02,1.962 3.014,2.959 v 0 c 0.378,0.378 0.754,0.757 1.129,1.138 v 0 c 1.067,1.085 2.125,2.183 3.17,3.295 v 0 c 0.19,0.202 0.384,0.4 0.574,0.603 v 0 c 1.217,1.303 2.414,2.625 3.599,3.961 v 0 c 0.106,0.12 0.217,0.236 0.322,0.355 v 0 c 0.215,0.243 0.42,0.494 0.632,0.736 v 0 c 0.894,1.021 1.779,2.052 2.654,3.092 v 0 c 0.338,0.402 0.678,0.802 1.012,1.206 v 0 c 1.108,1.336 2.205,2.682 3.281,4.046 v 0 c 0.035,0.045 0.072,0.088 0.107,0.133 v 0 c 1.107,1.407 2.195,2.835 3.27,4.272 v 0 c 0.311,0.416 0.618,0.835 0.925,1.253 v 0 c 0.808,1.093 1.602,2.196 2.389,3.307 v 0 c 0.188,0.265 0.384,0.524 0.57,0.791 v 0 c 0.099,0.138 0.19,0.281 0.287,0.42 v 0 c 1.073,1.538 2.13,3.09 3.165,4.657 v 0 c 0.182,0.276 0.357,0.555 0.537,0.83 v 0 c 0.875,1.34 1.735,2.692 2.582,4.053 v 0 c 0.269,0.433 0.539,0.867 0.807,1.302 v 0 c 0.99,1.618 1.968,3.247 2.918,4.893 v 0 c 0.025,0.044 0.048,0.088 0.073,0.132 v 0 c 0.927,1.606 1.825,3.23 2.709,4.862 v 0 c 0.116,0.212 0.239,0.419 0.353,0.631 v 0 c 0.232,0.433 0.457,0.871 0.687,1.306 v 0 c 0.244,0.46 0.488,0.92 0.728,1.383 v 0 c 0.437,0.841 0.868,1.687 1.295,2.535 v 0 c 0.201,0.399 0.404,0.796 0.603,1.195 v 0 c 0.617,1.246 1.225,2.497 1.819,3.755 v 0 c 0.002,0.005 0.004,0.009 0.006,0.014 v 0 c 0.592,1.253 1.168,2.514 1.736,3.78 v 0 c 0.184,0.409 0.361,0.822 0.543,1.233 v 0 c 0.383,0.868 0.762,1.737 1.133,2.611 v 0 c 0.206,0.484 0.408,0.97 0.609,1.455 v 0 c 0.341,0.816 0.676,1.633 1.007,2.453 v 0 c 0.2,0.501 0.399,1.002 0.597,1.504 v 0 c 0.328,0.834 0.65,1.672 0.968,2.512 v 0 c 0.181,0.476 0.362,0.951 0.54,1.429 v 0 c 0.07,0.192 0.146,0.384 0.217,0.576 v 0 c 0.2,0.547 0.389,1.1 0.586,1.649 v 0 c 0.242,0.676 0.486,1.351 0.722,2.029 v 0 c 0.252,0.73 0.495,1.463 0.74,2.196 v 0 c 0.227,0.68 0.457,1.359 0.678,2.041 v 0 c 0.238,0.738 0.466,1.478 0.696,2.219 v 0 c 0.213,0.683 0.429,1.365 0.634,2.05 v 0 c 0.224,0.746 0.436,1.496 0.652,2.244 v 0 c 0.197,0.687 0.398,1.371 0.588,2.059 v 0 c 0.208,0.754 0.405,1.51 0.605,2.265 v 0 c 0.183,0.688 0.369,1.377 0.544,2.068 v 0 c 0.193,0.759 0.373,1.523 0.558,2.285 v 0 c 0.166,0.692 0.338,1.384 0.498,2.079 v 0 c 0.178,0.765 0.342,1.534 0.51,2.302 v 0 c 0.153,0.695 0.309,1.388 0.453,2.085 v 0 c 0.162,0.778 0.311,1.559 0.464,2.34 v 0 c 0.135,0.691 0.276,1.38 0.404,2.074 v 0 c 0.147,0.788 0.278,1.58 0.415,2.37 v 0 c 0.119,0.689 0.245,1.378 0.356,2.069 v 0 c 0.131,0.803 0.246,1.609 0.367,2.414 v 0 c 0.103,0.682 0.211,1.362 0.307,2.046 v 0 c 0.115,0.818 0.213,1.642 0.318,2.463 v 0 c 0.086,0.673 0.178,1.345 0.257,2.02 v 0 c 0.098,0.839 0.181,1.681 0.268,2.522 v 0 c 0.069,0.66 0.145,1.319 0.208,1.98 v 0 c 0.08,0.863 0.145,1.729 0.215,2.595 v 0 c 0.053,0.642 0.113,1.283 0.158,1.927 v 0 c 0.064,0.903 0.111,1.809 0.163,2.714 v 0 c 0.035,0.608 0.079,1.214 0.108,1.823 v 0 c 0.049,1.008 0.078,2.019 0.111,3.03 v 0 c 0.018,0.507 0.044,1.014 0.055,1.522 v 0 c 0.039,1.519 0.06,3.041 0.062,4.564 v 0 c 0.118,63.291 -30.4,114.562 -76.466,139.622 v 0 l -113.967,61.996 c 46.066,-25.059 76.585,-76.33 76.467,-139.621"/></g>
                </g>
            </g>
        </g>
        <g id="g44">
            <g clip-path="url(#clipPath50)" id="g46">
                <g id="g52">
                    <g id="g54"><path
                        id="path62"
                        style="fill:url(#linearGradient60);stroke:none"
                        d="m 358.774,752.186 c -1.367,-0.002 -2.736,-0.015 -4.107,-0.036 v 0 c -0.618,-0.009 -1.232,-0.012 -1.85,-0.025 v 0 c -2.143,-0.046 -4.292,-0.113 -6.448,-0.206 v 0 c -0.326,-0.015 -0.652,-0.037 -0.976,-0.052 v 0 c -1.838,-0.086 -3.682,-0.19 -5.529,-0.311 v 0 c -0.717,-0.048 -1.438,-0.104 -2.159,-0.157 v 0 c -1.484,-0.108 -2.971,-0.227 -4.461,-0.358 v 0 c -0.777,-0.068 -1.554,-0.14 -2.333,-0.214 v 0 c -1.52,-0.147 -3.044,-0.307 -4.569,-0.478 v 0 c -0.691,-0.077 -1.383,-0.149 -2.076,-0.231 v 0 c -2.197,-0.26 -4.401,-0.539 -6.609,-0.849 v 0 c -2.455,-0.345 -4.901,-0.729 -7.342,-1.132 v 0 c -0.71,-0.117 -1.419,-0.241 -2.127,-0.363 v 0 c -1.85,-0.319 -3.695,-0.654 -5.537,-1.005 v 0 c -0.661,-0.126 -1.325,-0.249 -1.984,-0.38 v 0 c -2.415,-0.476 -4.823,-0.976 -7.221,-1.508 v 0 c -0.328,-0.073 -0.653,-0.153 -0.979,-0.226 v 0 c -2.092,-0.472 -4.178,-0.966 -6.258,-1.479 v 0 c -0.718,-0.177 -1.436,-0.359 -2.153,-0.542 v 0 c -1.848,-0.47 -3.691,-0.956 -5.529,-1.459 v 0 c -0.584,-0.159 -1.17,-0.313 -1.754,-0.476 v 0 c -2.357,-0.659 -4.707,-1.343 -7.048,-2.055 v 0 c -0.492,-0.149 -0.981,-0.308 -1.473,-0.459 v 0 c -1.889,-0.586 -3.772,-1.187 -5.648,-1.804 v 0 c -0.711,-0.234 -1.42,-0.47 -2.129,-0.709 v 0 c -1.887,-0.637 -3.768,-1.289 -5.643,-1.96 v 0 c -0.467,-0.166 -0.937,-0.326 -1.402,-0.496 v 0 c -2.301,-0.834 -4.59,-1.695 -6.871,-2.579 v 0 c -0.58,-0.224 -1.157,-0.458 -1.735,-0.685 v 0 c -1.76,-0.695 -3.515,-1.403 -5.266,-2.126 v 0 c -0.684,-0.284 -1.37,-0.568 -2.053,-0.856 v 0 c -1.992,-0.839 -3.977,-1.696 -5.953,-2.574 v 0 c -0.286,-0.126 -0.573,-0.247 -0.859,-0.375 v 0 c -1.911,-0.856 -3.817,-1.728 -5.715,-2.618 v 0 c -0.287,-0.135 -0.57,-0.279 -0.857,-0.415 v 0 c -0.947,-0.447 -1.886,-0.908 -2.827,-1.364 v 0 c -1.423,-0.689 -2.843,-1.38 -4.256,-2.089 v 0 c -0.981,-0.491 -1.956,-0.993 -2.933,-1.492 v 0 c -1.367,-0.702 -2.733,-1.41 -4.092,-2.131 v 0 c -0.984,-0.52 -1.964,-1.047 -2.944,-1.577 v 0 c -1.349,-0.732 -2.693,-1.473 -4.035,-2.222 v 0 c -0.964,-0.539 -1.927,-1.079 -2.888,-1.627 v 0 c -1.359,-0.775 -2.71,-1.566 -4.061,-2.36 v 0 c -0.925,-0.543 -1.851,-1.084 -2.77,-1.638 v 0 c -1.409,-0.845 -2.808,-1.708 -4.206,-2.574 v 0 c -0.844,-0.522 -1.692,-1.038 -2.532,-1.567 v 0 c -1.6,-1.01 -3.19,-2.042 -4.777,-3.076 v 0 c -0.622,-0.406 -1.25,-0.802 -1.87,-1.212 v 0 c -2.162,-1.429 -4.313,-2.88 -6.449,-4.357 v 0 c -0.041,-0.03 -0.083,-0.06 -0.126,-0.089 v 0 c -0.181,-0.125 -0.359,-0.255 -0.541,-0.38 v 0 c -1.866,-1.298 -3.72,-2.616 -5.566,-3.949 v 0 c -0.593,-0.428 -1.185,-0.86 -1.775,-1.292 v 0 c -1.561,-1.142 -3.112,-2.295 -4.657,-3.461 v 0 c -0.492,-0.371 -0.986,-0.738 -1.475,-1.111 v 0 c -1.972,-1.503 -3.931,-3.025 -5.875,-4.569 v 0 c -0.395,-0.313 -0.785,-0.633 -1.178,-0.948 v 0 c -1.582,-1.266 -3.155,-2.545 -4.719,-3.837 v 0 c -0.575,-0.475 -1.149,-0.952 -1.721,-1.432 v 0 c -1.583,-1.323 -3.157,-2.66 -4.721,-4.011 v 0 c -0.352,-0.304 -0.708,-0.604 -1.059,-0.909 v 0 c -1.65,-1.435 -3.29,-2.882 -4.917,-4.346 v 0 c -0.229,-0.206 -0.455,-0.418 -0.684,-0.625 v 0 c -0.432,-0.391 -0.86,-0.787 -1.291,-1.179 v 0 c -1.506,-1.373 -3.002,-2.759 -4.489,-4.157 v 0 c -0.418,-0.394 -0.839,-0.787 -1.257,-1.183 v 0 c -1.785,-1.694 -3.557,-3.405 -5.312,-5.134 v 0 c -0.358,-0.353 -0.712,-0.71 -1.069,-1.065 v 0 c -1.477,-1.465 -2.944,-2.944 -4.398,-4.433 v 0 c -0.429,-0.438 -0.856,-0.874 -1.282,-1.314 v 0 c -1.723,-1.78 -3.433,-3.576 -5.126,-5.389 v 0 c -0.272,-0.292 -0.538,-0.587 -0.809,-0.879 v 0 c -1.471,-1.585 -2.927,-3.184 -4.373,-4.793 v 0 c -0.422,-0.47 -0.844,-0.94 -1.264,-1.411 v 0 c -0.33,-0.372 -0.666,-0.738 -0.995,-1.111 v 0 c -1.324,-1.499 -2.637,-3.01 -3.941,-4.531 v 0 c -0.163,-0.192 -0.325,-0.388 -0.491,-0.581 v 0 c -1.482,-1.736 -2.948,-3.487 -4.403,-5.249 v 0 c -0.412,-0.499 -0.823,-0.999 -1.234,-1.5 v 0 c -1.588,-1.944 -3.167,-3.897 -4.723,-5.873 v 0 c -0.058,-0.073 -0.114,-0.148 -0.172,-0.222 v 0 c -1.502,-1.909 -2.982,-3.837 -4.452,-5.775 v 0 c -0.4,-0.526 -0.797,-1.053 -1.193,-1.581 v 0 c -1.435,-1.91 -2.858,-3.831 -4.261,-5.768 v 0 C 77.849,597.5 77.763,597.386 77.68,597.27 v 0 c -1.148,-1.59 -2.287,-3.187 -3.414,-4.794 v 0 c -0.305,-0.434 -0.602,-0.875 -0.905,-1.312 v 0 c -0.42,-0.603 -0.836,-1.209 -1.253,-1.813 v 0 c -1.143,-1.663 -2.273,-3.333 -3.393,-5.012 v 0 c -0.322,-0.484 -0.648,-0.963 -0.968,-1.447 v 0 c -1.389,-2.103 -2.76,-4.22 -4.112,-6.35 v 0 c -0.315,-0.495 -0.622,-0.995 -0.934,-1.491 v 0 c -1.076,-1.711 -2.14,-3.43 -3.192,-5.158 v 0 c -0.379,-0.621 -0.757,-1.243 -1.133,-1.867 v 0 c -1.267,-2.106 -2.521,-4.222 -3.753,-6.352 v 0 c -0.048,-0.084 -0.097,-0.166 -0.145,-0.249 v 0 c -1.276,-2.212 -2.526,-4.44 -3.763,-6.677 v 0 c -0.342,-0.621 -0.681,-1.243 -1.022,-1.865 v 0 c -0.416,-0.765 -0.841,-1.525 -1.253,-2.293 v 0 c -0.449,-0.834 -0.883,-1.677 -1.327,-2.515 v 0 c -0.466,-0.885 -0.936,-1.768 -1.398,-2.656 v 0 c -0.844,-1.623 -1.672,-3.255 -2.494,-4.889 v 0 c -0.383,-0.76 -0.773,-1.517 -1.151,-2.281 v 0 c -1.189,-2.398 -2.359,-4.805 -3.501,-7.227 v 0 c -0.004,-0.008 -0.008,-0.016 -0.012,-0.024 v 0 c -1.137,-2.41 -2.246,-4.835 -3.338,-7.268 v 0 c -0.354,-0.791 -0.698,-1.587 -1.047,-2.381 v 0 c -0.734,-1.666 -1.462,-3.333 -2.175,-5.011 v 0 c -0.397,-0.933 -0.786,-1.872 -1.177,-2.809 v 0 c -0.65,-1.561 -1.292,-3.125 -1.924,-4.695 v 0 c -0.39,-0.972 -0.777,-1.945 -1.161,-2.92 v 0 c -0.625,-1.59 -1.237,-3.186 -1.843,-4.785 v 0 c -0.353,-0.931 -0.71,-1.862 -1.056,-2.796 v 0 c -0.135,-0.364 -0.277,-0.724 -0.41,-1.088 v 0 c -0.382,-1.039 -0.741,-2.087 -1.113,-3.129 v 0 c -0.472,-1.318 -0.949,-2.635 -1.407,-3.958 v 0 c -0.48,-1.386 -0.941,-2.778 -1.407,-4.17 v 0 c -0.443,-1.325 -0.892,-2.648 -1.321,-3.978 v 0 c -0.453,-1.4 -0.885,-2.809 -1.322,-4.215 v 0 c -0.414,-1.33 -0.834,-2.658 -1.235,-3.993 v 0 c -0.425,-1.419 -0.83,-2.845 -1.239,-4.268 v 0 c -0.383,-1.334 -0.774,-2.665 -1.145,-4.004 v 0 c -0.397,-1.436 -0.772,-2.879 -1.154,-4.32 v 0 c -0.353,-1.336 -0.714,-2.668 -1.054,-4.008 v 0 c -0.369,-1.452 -0.714,-2.912 -1.066,-4.369 v 0 c -0.324,-1.339 -0.656,-2.676 -0.967,-4.021 v 0 c -0.337,-1.466 -0.652,-2.938 -0.973,-4.41 v 0 C 8.729,443.06 8.426,441.721 8.147,440.374 v 0 c -0.31,-1.485 -0.594,-2.978 -0.885,-4.469 v 0 c -0.263,-1.339 -0.535,-2.676 -0.785,-4.018 v 0 c -0.278,-1.506 -0.53,-3.018 -0.792,-4.527 v 0 c -0.231,-1.336 -0.473,-2.67 -0.691,-4.009 v 0 c -0.247,-1.53 -0.469,-3.065 -0.699,-4.599 v 0 c -0.199,-1.327 -0.41,-2.65 -0.596,-3.979 v 0 c -0.218,-1.559 -0.406,-3.122 -0.605,-4.684 v 0 c -0.166,-1.313 -0.347,-2.621 -0.5,-3.936 v 0 c -0.187,-1.598 -0.344,-3.201 -0.51,-4.802 v 0 C 1.949,400.066 1.801,398.784 1.68,397.497 v 0 c -0.155,-1.65 -0.278,-3.304 -0.412,-4.958 v 0 C 1.167,391.294 1.051,390.05 0.962,388.803 v 0 c -0.124,-1.736 -0.214,-3.478 -0.313,-5.218 v 0 C 0.581,382.416 0.497,381.25 0.442,380.08 v 0 c -0.095,-1.924 -0.15,-3.853 -0.214,-5.78 v 0 C 0.195,373.307 0.145,372.318 0.12,371.325 v 0 C 0.047,368.403 0.006,365.477 0,362.548 v 0 -1.387 C 0.22,240.072 58.797,142.039 147.049,94.03 v 0 L 261.016,32.034 C 172.428,80.224 113.74,178.826 113.967,300.551 v 0 c 0.005,2.93 0.046,5.856 0.119,8.778 v 0 c 0.026,0.993 0.075,1.982 0.108,2.975 v 0 c 0.064,1.927 0.12,3.856 0.213,5.779 v 0 c 0.056,1.17 0.14,2.337 0.208,3.506 v 0 c 0.1,1.74 0.19,3.481 0.313,5.217 v 0 c 0.088,1.249 0.205,2.491 0.306,3.737 v 0 c 0.134,1.653 0.258,3.308 0.412,4.957 v 0 c 0.122,1.288 0.27,2.57 0.404,3.855 v 0 c 0.167,1.601 0.324,3.204 0.51,4.8 v 0 c 0.153,1.315 0.334,2.625 0.5,3.937 v 0 c 0.2,1.562 0.387,3.127 0.606,4.685 v 0 c 0.185,1.328 0.397,2.65 0.596,3.976 v 0 c 0.229,1.534 0.451,3.071 0.699,4.601 v 0 c 0.217,1.339 0.459,2.671 0.69,4.005 v 0 c 0.261,1.512 0.514,3.024 0.793,4.531 v 0 c 0.249,1.342 0.521,2.677 0.782,4.015 v 0 c 0.294,1.492 0.577,2.986 0.887,4.474 v 0 c 0.28,1.344 0.581,2.682 0.876,4.023 v 0 c 0.322,1.472 0.636,2.946 0.974,4.414 v 0 c 0.31,1.342 0.642,2.677 0.965,4.014 v 0 c 0.352,1.461 0.699,2.922 1.068,4.377 v 0 c 0.338,1.337 0.7,2.668 1.052,4.001 v 0 c 0.382,1.443 0.757,2.889 1.155,4.327 v 0 c 0.369,1.335 0.76,2.663 1.143,3.993 v 0 c 0.41,1.428 0.816,2.859 1.242,4.281 v 0 c 0.4,1.33 0.817,2.653 1.23,3.977 v 0 c 0.438,1.412 0.873,2.826 1.327,4.231 v 0 c 0.429,1.325 0.875,2.643 1.316,3.963 v 0 c 0.467,1.397 0.93,2.794 1.412,4.185 v 0 c 0.457,1.318 0.931,2.628 1.4,3.94 v 0 c 0.507,1.414 1.01,2.829 1.532,4.237 v 0 c 0.344,0.929 0.698,1.854 1.049,2.781 v 0 c 0.607,1.603 1.223,3.204 1.849,4.8 v 0 c 0.383,0.971 0.77,1.941 1.158,2.909 v 0 c 0.633,1.573 1.276,3.141 1.927,4.705 v 0 c 0.39,0.935 0.779,1.871 1.175,2.803 v 0 c 0.713,1.677 1.442,3.348 2.177,5.015 v 0 c 0.349,0.792 0.692,1.588 1.046,2.378 v 0 c 1.091,2.434 2.201,4.858 3.338,7.269 v 0 c 0.003,0.008 0.006,0.016 0.011,0.023 v 0 c 1.142,2.422 2.313,4.829 3.501,7.227 v 0 c 0.379,0.763 0.768,1.52 1.151,2.282 v 0 c 0.823,1.634 1.651,3.266 2.495,4.888 v 0 c 0.46,0.888 0.93,1.772 1.398,2.655 v 0 c 0.852,1.61 1.709,3.213 2.58,4.809 v 0 c 0.34,0.622 0.679,1.246 1.022,1.866 v 0 c 1.236,2.236 2.486,4.465 3.761,6.677 v 0 c 0.05,0.083 0.098,0.165 0.147,0.248 v 0 c 1.23,2.131 2.486,4.246 3.752,6.353 v 0 c 0.376,0.623 0.755,1.245 1.133,1.867 v 0 c 1.052,1.728 2.116,3.446 3.192,5.157 v 0 c 0.312,0.497 0.62,0.996 0.935,1.491 v 0 c 1.351,2.131 2.722,4.247 4.112,6.351 v 0 c 0.319,0.484 0.646,0.963 0.967,1.445 v 0 c 1.12,1.68 2.251,3.351 3.393,5.012 v 0 c 0.417,0.606 0.833,1.212 1.252,1.815 v 0 c 1.424,2.047 2.859,4.086 4.32,6.105 v 0 c 0.083,0.116 0.168,0.23 0.253,0.346 v 0 c 1.403,1.937 2.826,3.857 4.261,5.769 v 0 c 0.395,0.526 0.792,1.053 1.191,1.577 v 0 c 1.47,1.938 2.95,3.867 4.451,5.776 v 0 c 0.06,0.074 0.116,0.15 0.175,0.225 v 0 c 1.555,1.974 3.135,3.928 4.722,5.871 v 0 c 0.412,0.503 0.824,1.003 1.237,1.502 v 0 c 1.443,1.749 2.898,3.488 4.369,5.211 v 0 c 0.18,0.208 0.354,0.42 0.533,0.629 v 0 c 1.618,1.887 3.256,3.754 4.907,5.609 v 0 c 0.433,0.487 0.869,0.971 1.304,1.455 v 0 c 1.431,1.595 2.875,3.178 4.33,4.748 v 0 c 0.279,0.301 0.555,0.606 0.836,0.907 v 0 c 1.689,1.81 3.397,3.602 5.118,5.38 v 0 c 0.427,0.442 0.858,0.88 1.288,1.32 v 0 c 1.457,1.491 2.922,2.971 4.4,4.437 v 0 c 0.354,0.351 0.706,0.706 1.06,1.055 v 0 c 1.759,1.733 3.534,3.448 5.322,5.145 v 0 c 0.41,0.388 0.822,0.771 1.232,1.157 v 0 c 1.503,1.414 3.015,2.815 4.537,4.203 v 0 c 0.415,0.379 0.828,0.76 1.244,1.136 v 0 c 1.861,1.683 3.736,3.349 5.627,4.993 v 0 c 0.339,0.296 0.683,0.585 1.022,0.878 v 0 c 1.575,1.362 3.162,2.708 4.756,4.042 v 0 c 0.568,0.475 1.139,0.948 1.708,1.419 v 0 c 1.569,1.297 3.146,2.58 4.733,3.849 v 0 c 0.391,0.314 0.777,0.63 1.168,0.941 v 0 c 1.946,1.544 3.906,3.067 5.878,4.571 v 0 c 0.489,0.374 0.982,0.739 1.473,1.109 v 0 c 1.544,1.166 3.097,2.32 4.657,3.462 v 0 c 0.592,0.432 1.183,0.864 1.776,1.293 v 0 c 1.846,1.332 3.7,2.651 5.567,3.949 v 0 c 0.181,0.125 0.36,0.254 0.54,0.38 v 0 c 2.178,1.507 4.37,2.988 6.576,4.446 v 0 c 0.619,0.409 1.248,0.805 1.87,1.211 v 0 c 1.587,1.035 3.175,2.066 4.777,3.076 v 0 c 0.838,0.528 1.685,1.043 2.526,1.564 v 0 c 1.401,0.868 2.803,1.733 4.214,2.58 v 0 c 0.918,0.551 1.842,1.092 2.765,1.634 v 0 c 1.352,0.796 2.705,1.585 4.064,2.363 v 0 c 0.959,0.546 1.92,1.086 2.883,1.623 v 0 c 1.344,0.752 2.693,1.494 4.045,2.228 v 0 c 0.975,0.527 1.951,1.052 2.932,1.571 v 0 c 1.365,0.723 2.736,1.434 4.11,2.139 v 0 c 0.97,0.497 1.94,0.996 2.914,1.484 v 0 c 1.423,0.712 2.853,1.409 4.285,2.102 v 0 c 0.931,0.45 1.859,0.906 2.794,1.349 v 0 c 2.189,1.035 4.385,2.054 6.594,3.042 v 0 c 0.267,0.119 0.535,0.232 0.803,0.351 v 0 c 1.994,0.887 3.999,1.752 6.009,2.599 v 0 c 0.675,0.285 1.352,0.564 2.028,0.844 v 0 c 1.76,0.728 3.524,1.441 5.295,2.137 v 0 c 0.572,0.226 1.143,0.457 1.716,0.68 v 0 c 2.283,0.884 4.576,1.747 6.878,2.58 v 0 c 0.462,0.168 0.927,0.327 1.39,0.492 v 0 c 1.879,0.673 3.766,1.327 5.658,1.964 v 0 c 0.705,0.239 1.411,0.473 2.118,0.707 v 0 c 1.882,0.62 3.769,1.222 5.662,1.807 v 0 c 0.488,0.152 0.974,0.308 1.463,0.457 v 0 c 2.342,0.713 4.693,1.397 7.052,2.056 v 0 c 0.581,0.162 1.163,0.315 1.744,0.475 v 0 c 1.843,0.503 3.69,0.991 5.542,1.461 v 0 c 0.713,0.182 1.428,0.362 2.144,0.539 v 0 c 2.082,0.514 4.17,1.009 6.263,1.481 v 0 c 0.327,0.073 0.651,0.153 0.977,0.225 v 0 c 2.398,0.533 4.807,1.032 7.22,1.509 v 0 c 0.661,0.131 1.323,0.252 1.985,0.379 v 0 c 1.843,0.352 3.688,0.687 5.537,1.005 v 0 c 0.709,0.122 1.418,0.246 2.128,0.363 v 0 c 2.44,0.403 4.886,0.788 7.341,1.132 v 0 c 2.209,0.311 4.412,0.59 6.609,0.85 v 0 c 0.694,0.082 1.386,0.154 2.077,0.231 v 0 c 1.525,0.17 3.049,0.332 4.568,0.477 v 0 c 0.78,0.075 1.556,0.146 2.334,0.214 v 0 c 1.489,0.133 2.976,0.251 4.461,0.359 v 0 c 0.718,0.053 1.44,0.11 2.158,0.156 v 0 c 1.848,0.123 3.69,0.225 5.527,0.312 v 0 c 0.327,0.014 0.653,0.037 0.977,0.051 v 0 c 2.156,0.094 4.307,0.16 6.449,0.206 v 0 c 0.618,0.014 1.233,0.016 1.849,0.025 v 0 c 1.542,0.024 3.081,0.038 4.615,0.036 v 0 c 0.752,-10e-4 1.499,-0.007 2.248,-0.013 v 0 c 1.438,-0.013 2.874,-0.038 4.307,-0.072 v 0 c 0.725,-0.017 1.453,-0.033 2.177,-0.056 v 0 c 1.64,-0.052 3.273,-0.121 4.903,-0.202 v 0 c 0.48,-0.023 0.96,-0.039 1.438,-0.065 v 0 c 2.096,-0.115 4.184,-0.252 6.266,-0.413 v 0 c 0.522,-0.039 1.041,-0.09 1.561,-0.133 v 0 c 1.57,-0.13 3.136,-0.27 4.697,-0.425 v 0 c 0.717,-0.072 1.432,-0.15 2.146,-0.227 v 0 c 1.393,-0.151 2.784,-0.311 4.169,-0.482 v 0 c 0.72,-0.089 1.441,-0.178 2.158,-0.272 v 0 c 1.495,-0.197 2.983,-0.408 4.469,-0.629 v 0 c 0.562,-0.083 1.127,-0.161 1.689,-0.247 v 0 c 2.027,-0.314 4.046,-0.649 6.059,-1.007 v 0 c 0.379,-0.068 0.755,-0.143 1.135,-0.213 v 0 c 1.637,-0.299 3.268,-0.611 4.895,-0.939 v 0 c 0.675,-0.136 1.346,-0.28 2.018,-0.421 v 0 c 1.351,-0.284 2.698,-0.576 4.041,-0.881 v 0 c 0.705,-0.159 1.411,-0.32 2.114,-0.486 v 0 c 1.384,-0.325 2.764,-0.663 4.138,-1.009 v 0 c 0.6,-0.152 1.201,-0.297 1.798,-0.452 v 0 c 1.985,-0.515 3.96,-1.047 5.926,-1.606 v 0 c 0.272,-0.078 0.543,-0.162 0.816,-0.241 v 0 c 1.698,-0.489 3.39,-0.994 5.075,-1.516 v 0 c 0.633,-0.196 1.265,-0.399 1.897,-0.6 v 0 c 1.353,-0.431 2.703,-0.871 4.048,-1.324 v 0 c 0.654,-0.219 1.307,-0.439 1.959,-0.664 v 0 c 1.452,-0.5 2.897,-1.015 4.337,-1.541 v 0 c 0.481,-0.175 0.965,-0.345 1.445,-0.522 v 0 c 1.895,-0.705 3.78,-1.428 5.652,-2.174 v 0 c 0.431,-0.171 0.859,-0.351 1.289,-0.525 v 0 c 1.456,-0.589 2.904,-1.187 4.346,-1.801 v 0 c 0.63,-0.268 1.257,-0.54 1.884,-0.812 v 0 c 1.281,-0.559 2.558,-1.125 3.828,-1.702 v 0 c 0.61,-0.277 1.222,-0.552 1.829,-0.834 v 0 c 1.493,-0.691 2.976,-1.398 4.454,-2.117 v 0 c 0.345,-0.168 0.694,-0.33 1.04,-0.5 v 0 c 1.035,-0.509 2.062,-1.034 3.089,-1.557 v 0 c 0.558,-0.284 1.12,-0.56 1.676,-0.847 v 0 c 1.442,-0.747 2.876,-1.51 4.302,-2.283 v 0 c 0.135,-0.073 0.271,-0.142 0.405,-0.214 v 0 l -113.966,61.996 c -0.099,0.054 -0.202,0.106 -0.303,0.161 v 0 c -1.46,0.791 -2.928,1.572 -4.403,2.336 v 0 c -0.556,0.288 -1.119,0.564 -1.677,0.848 v 0 c -1.029,0.523 -2.055,1.048 -3.092,1.557 v 0 c -0.062,0.032 -0.125,0.065 -0.189,0.096 v 0 c -0.277,0.137 -0.56,0.263 -0.838,0.398 v 0 c -1.482,0.722 -2.971,1.431 -4.466,2.124 v 0 c -0.606,0.28 -1.214,0.555 -1.823,0.83 v 0 c -1.273,0.578 -2.552,1.148 -3.838,1.706 v 0 c -0.624,0.271 -1.248,0.542 -1.875,0.81 v 0 c -1.446,0.615 -2.9,1.216 -4.359,1.805 v 0 c -0.426,0.173 -0.848,0.351 -1.276,0.52 v 0 c -1.876,0.747 -3.761,1.472 -5.659,2.176 v 0 c -0.475,0.177 -0.956,0.344 -1.433,0.519 v 0 c -1.443,0.526 -2.891,1.042 -4.346,1.544 v 0 c -0.652,0.225 -1.304,0.445 -1.957,0.664 v 0 c -1.347,0.452 -2.699,0.893 -4.054,1.324 v 0 c -0.629,0.201 -1.257,0.404 -1.888,0.599 v 0 c -1.692,0.524 -3.389,1.03 -5.094,1.521 v 0 c -0.268,0.077 -0.531,0.16 -0.799,0.236 v 0 c -1.967,0.559 -3.945,1.092 -5.932,1.607 v 0 c -0.158,0.042 -0.315,0.088 -0.472,0.129 v 0 c -0.436,0.111 -0.878,0.21 -1.313,0.32 v 0 c -1.381,0.348 -2.763,0.687 -4.152,1.014 v 0 c -0.701,0.164 -1.403,0.325 -2.106,0.483 v 0 c -1.344,0.304 -2.693,0.598 -4.044,0.881 v 0 c -0.674,0.141 -1.344,0.285 -2.018,0.421 v 0 c -1.627,0.329 -3.258,0.64 -4.895,0.939 v 0 c -0.379,0.069 -0.756,0.146 -1.136,0.214 v 0 c -2.013,0.358 -4.033,0.692 -6.061,1.007 v 0 c -0.559,0.087 -1.119,0.163 -1.678,0.246 v 0 c -1.489,0.221 -2.98,0.433 -4.477,0.63 v 0 c -0.718,0.094 -1.438,0.183 -2.157,0.271 v 0 c -1.387,0.172 -2.777,0.332 -4.171,0.482 v 0 c -0.714,0.078 -1.429,0.155 -2.146,0.227 v 0 c -1.561,0.157 -3.125,0.295 -4.696,0.426 v 0 c -0.521,0.043 -1.039,0.092 -1.562,0.133 v 0 c -2.081,0.16 -4.169,0.298 -6.264,0.412 v 0 c -0.479,0.026 -0.96,0.042 -1.439,0.066 v 0 c -1.631,0.081 -3.264,0.149 -4.903,0.201 v 0 c -0.725,0.024 -1.451,0.039 -2.177,0.057 v 0 c -1.433,0.034 -2.869,0.059 -4.307,0.071 v 0 c -0.75,0.007 -1.498,0.013 -2.247,0.014 v 0 z m 242.196,-94.021 -0.016,0.008 c 0.005,-0.003 0.011,-0.006 0.016,-0.008"/></g>
                </g>
            </g>
        </g>
        <g id="g64">
            <g clip-path="url(#clipPath70)" id="g66">
                <g transform="translate(430.6574,167.1715)" id="g72"><path
                    id="path74"
                    style="fill:#009fb6;fill-opacity:1;fill-rule:nonzero;stroke:none"
                    d="M 0,0 C 91.048,12.796 165.01,102.834 165.192,201.104 165.375,299.368 91.708,368.659 0.661,355.863 -90.378,343.068 -164.332,253.031 -164.515,154.767 -164.697,56.497 -91.039,-12.795 0,0 M 0.966,520.101 C 176.06,544.708 317.71,411.458 317.359,222.49 317.009,33.506 174.788,-139.637 -0.306,-164.245 -175.388,-188.851 -317.041,-55.604 -316.69,133.38 c 0.351,188.968 142.574,362.115 317.656,386.721"/></g>
            </g>
        </g>
    </g>
</svg>
