<?xml version="1.0" encoding="UTF-8" standalone="no"?>
<svg
   xmlns:dc="http://purl.org/dc/elements/1.1/"
   xmlns:cc="http://creativecommons.org/ns#"
   xmlns:rdf="http://www.w3.org/1999/02/22-rdf-syntax-ns#"
   xmlns:svg="http://www.w3.org/2000/svg"
   xmlns="http://www.w3.org/2000/svg"
   viewBox="0 0 975.35065 878.24402"
   height="878.24402"
   width="975.35065"
   xml:space="preserve"
   id="svg2"
   version="1.1"><metadata
     id="metadata8"><rdf:RDF><cc:Work
         rdf:about=""><dc:format>image/svg+xml</dc:format><dc:type
           rdf:resource="http://purl.org/dc/dcmitype/StillImage" /></cc:Work></rdf:RDF></metadata><defs
     id="defs6"><clipPath
       id="clipPath18"
       clipPathUnits="userSpaceOnUse"><path
         id="path16"
         d="M 0,658.683 H 731.513 V 0 H 0 Z" /></clipPath><clipPath
       id="clipPath30"
       clipPathUnits="userSpaceOnUse"><path
         id="path28"
         d="m 370.05,545.584 c -0.389,-0.004 -0.777,-0.005 -1.167,-0.011 v 0 c -2.056,-0.03 -4.115,-0.086 -6.179,-0.162 v 0 c -0.437,-0.015 -0.875,-0.036 -1.314,-0.054 v 0 c -2,-0.084 -4.002,-0.185 -6.008,-0.312 v 0 c -0.149,-0.009 -0.298,-0.016 -0.447,-0.025 v 0 c -2.105,-0.137 -4.215,-0.305 -6.324,-0.49 v 0 c -0.468,-0.042 -0.933,-0.083 -1.4,-0.125 v 0 c -2.092,-0.195 -4.184,-0.408 -6.279,-0.65 v 0 c -0.278,-0.033 -0.556,-0.07 -0.834,-0.102 v 0 c -1.93,-0.229 -3.86,-0.481 -5.789,-0.75 v 0 c -0.26,-0.036 -0.521,-0.064 -0.782,-0.101 v 0 c -0.217,-0.031 -0.435,-0.066 -0.653,-0.098 v 0 c -0.553,-0.081 -1.105,-0.165 -1.658,-0.249 v 0 c -0.867,-0.131 -1.735,-0.264 -2.603,-0.404 v 0 c -0.576,-0.093 -1.151,-0.188 -1.727,-0.284 v 0 c -0.853,-0.142 -1.704,-0.289 -2.556,-0.44 v 0 c -0.574,-0.101 -1.147,-0.204 -1.721,-0.309 v 0 c -0.865,-0.159 -1.73,-0.323 -2.594,-0.49 v 0 c -0.555,-0.107 -1.11,-0.213 -1.664,-0.324 v 0 c -0.927,-0.184 -1.853,-0.378 -2.779,-0.572 v 0 c -0.485,-0.103 -0.969,-0.201 -1.452,-0.305 v 0 c -1.271,-0.275 -2.541,-0.558 -3.809,-0.851 v 0 c -0.134,-0.031 -0.269,-0.059 -0.403,-0.091 v 0 c -1.404,-0.325 -2.806,-0.665 -4.205,-1.013 v 0 c -0.439,-0.11 -0.877,-0.226 -1.316,-0.337 v 0 c -0.783,-0.199 -1.567,-0.395 -2.348,-0.602 v 0 c -0.121,-0.031 -0.241,-0.068 -0.361,-0.101 v 0 c -2.005,-0.531 -4.005,-1.089 -6,-1.668 v 0 c -0.437,-0.127 -0.873,-0.258 -1.31,-0.387 v 0 c -1.833,-0.543 -3.663,-1.103 -5.486,-1.685 v 0 c -0.247,-0.079 -0.495,-0.154 -0.743,-0.234 v 0 c -1.991,-0.643 -3.975,-1.315 -5.952,-2.007 v 0 c -0.462,-0.161 -0.922,-0.324 -1.383,-0.488 v 0 c -2.005,-0.713 -4.004,-1.442 -5.993,-2.205 v 0 c -2.081,-0.799 -4.133,-1.621 -6.159,-2.46 v 0 c -0.075,-0.031 -0.15,-0.061 -0.223,-0.091 v 0 c -1.965,-0.817 -3.899,-1.653 -5.812,-2.506 v 0 c -0.13,-0.058 -0.264,-0.116 -0.395,-0.174 v 0 c -1.864,-0.837 -3.7,-1.691 -5.511,-2.561 v 0 c -0.169,-0.08 -0.339,-0.159 -0.506,-0.24 v 0 c -1.776,-0.857 -3.524,-1.732 -5.251,-2.621 v 0 c -0.123,-0.063 -0.252,-0.123 -0.374,-0.187 v 0 c -0.104,-0.053 -0.205,-0.109 -0.309,-0.162 v 0 c -0.744,-0.387 -1.482,-0.779 -2.219,-1.172 v 0 c -0.296,-0.158 -0.599,-0.315 -0.895,-0.474 v 0 c -1.027,-0.555 -2.046,-1.115 -3.056,-1.681 v 0 c -0.176,-0.099 -0.348,-0.199 -0.523,-0.298 v 0 c -0.831,-0.468 -1.657,-0.939 -2.475,-1.415 v 0 c -0.348,-0.203 -0.691,-0.409 -1.037,-0.613 v 0 c -0.641,-0.377 -1.28,-0.756 -1.912,-1.138 v 0 c -0.383,-0.231 -0.761,-0.465 -1.141,-0.698 v 0 c -0.588,-0.36 -1.174,-0.722 -1.755,-1.086 v 0 c -0.391,-0.246 -0.78,-0.493 -1.168,-0.74 v 0 c -0.565,-0.359 -1.126,-0.721 -1.684,-1.085 v 0 c -0.383,-0.249 -0.766,-0.499 -1.147,-0.751 v 0 c -0.562,-0.372 -1.12,-0.746 -1.675,-1.122 v 0 c -0.362,-0.244 -0.726,-0.488 -1.083,-0.734 v 0 c -0.59,-0.404 -1.172,-0.812 -1.751,-1.22 v 0 c -0.251,-0.176 -0.506,-0.35 -0.756,-0.526 v 0 c -0.044,-0.032 -0.085,-0.063 -0.127,-0.094 v 0 c -1.491,-1.06 -2.95,-2.135 -4.385,-3.222 v 0 c -0.141,-0.106 -0.283,-0.21 -0.422,-0.316 v 0 c -1.417,-1.08 -2.804,-2.172 -4.166,-3.276 v 0 c -0.146,-0.118 -0.293,-0.236 -0.439,-0.354 v 0 c -1.344,-1.097 -2.659,-2.207 -3.949,-3.327 v 0 c -0.15,-0.13 -0.301,-0.26 -0.452,-0.39 v 0 c -1.274,-1.114 -2.519,-2.24 -3.738,-3.376 v 0 c -0.092,-0.086 -0.19,-0.168 -0.282,-0.254 v 0 c -0.06,-0.056 -0.116,-0.114 -0.175,-0.17 v 0 c -1.17,-1.098 -2.311,-2.205 -3.429,-3.32 v 0 c -0.162,-0.162 -0.324,-0.323 -0.485,-0.485 v 0 c -1.101,-1.109 -2.175,-2.227 -3.225,-3.353 v 0 c -0.16,-0.172 -0.321,-0.343 -0.48,-0.515 v 0 c -1.038,-1.124 -2.049,-2.257 -3.037,-3.397 v 0 c -0.152,-0.176 -0.304,-0.353 -0.455,-0.529 v 0 c -0.979,-1.144 -1.934,-2.295 -2.862,-3.453 v 0 c -0.063,-0.079 -0.132,-0.156 -0.194,-0.234 v 0 c -0.16,-0.2 -0.312,-0.403 -0.47,-0.602 v 0 c -0.285,-0.362 -0.568,-0.724 -0.848,-1.087 v 0 c -0.26,-0.338 -0.519,-0.678 -0.775,-1.019 v 0 c -0.274,-0.362 -0.547,-0.726 -0.815,-1.09 v 0 c -0.254,-0.344 -0.505,-0.688 -0.754,-1.034 v 0 c -0.263,-0.363 -0.525,-0.728 -0.783,-1.092 v 0 c -0.243,-0.347 -0.486,-0.693 -0.726,-1.04 v 0 c -0.254,-0.367 -0.505,-0.734 -0.753,-1.102 v 0 c -0.236,-0.348 -0.468,-0.696 -0.698,-1.044 v 0 c -0.243,-0.369 -0.483,-0.738 -0.721,-1.107 v 0 c -0.226,-0.351 -0.451,-0.704 -0.673,-1.056 v 0 c -0.233,-0.37 -0.463,-0.74 -0.69,-1.111 v 0 c -0.217,-0.352 -0.431,-0.706 -0.643,-1.06 v 0 c -0.224,-0.373 -0.444,-0.747 -0.662,-1.121 v 0 c -0.207,-0.353 -0.411,-0.708 -0.613,-1.062 v 0 c -0.213,-0.375 -0.424,-0.751 -0.633,-1.127 v 0 c -0.107,-0.194 -0.219,-0.387 -0.325,-0.581 v 0 c -0.077,-0.14 -0.147,-0.281 -0.222,-0.422 v 0 c -0.289,-0.531 -0.57,-1.067 -0.848,-1.602 v 0 c -0.145,-0.278 -0.29,-0.556 -0.433,-0.835 v 0 c -0.331,-0.652 -0.653,-1.307 -0.968,-1.963 v 0 c -0.076,-0.158 -0.157,-0.315 -0.231,-0.473 v 0 c -0.387,-0.812 -0.761,-1.626 -1.123,-2.442 v 0 c -0.1,-0.227 -0.196,-0.455 -0.295,-0.683 v 0 c -0.257,-0.591 -0.511,-1.183 -0.757,-1.777 v 0 c -0.122,-0.298 -0.241,-0.597 -0.361,-0.896 v 0 c -0.213,-0.532 -0.423,-1.065 -0.626,-1.598 v 0 c -0.118,-0.31 -0.234,-0.62 -0.348,-0.93 v 0 c -0.201,-0.54 -0.393,-1.082 -0.583,-1.623 v 0 c -0.101,-0.291 -0.205,-0.584 -0.303,-0.876 v 0 c -0.213,-0.629 -0.416,-1.26 -0.615,-1.892 v 0 c -0.062,-0.198 -0.129,-0.396 -0.19,-0.596 v 0 c -0.255,-0.828 -0.497,-1.659 -0.727,-2.489 v 0 c -0.008,-0.033 -0.018,-0.065 -0.028,-0.097 v 0 c -0.018,-0.07 -0.033,-0.139 -0.052,-0.208 v 0 c -0.31,-1.139 -0.595,-2.28 -0.858,-3.422 v 0 c -0.032,-0.139 -0.067,-0.276 -0.098,-0.415 v 0 c -0.26,-1.15 -0.49,-2.302 -0.701,-3.454 v 0 c -0.038,-0.214 -0.078,-0.426 -0.116,-0.64 v 0 c -0.199,-1.137 -0.376,-2.274 -0.527,-3.414 v 0 c -0.026,-0.195 -0.049,-0.391 -0.074,-0.587 v 0 c -0.148,-1.18 -0.28,-2.362 -0.377,-3.545 v 0 c -0.005,-0.055 -0.007,-0.109 -0.012,-0.164 v 0 c -0.094,-1.163 -0.158,-2.326 -0.202,-3.49 v 0 c -0.006,-0.164 -0.015,-0.328 -0.02,-0.493 v 0 c -0.037,-1.147 -0.045,-2.295 -0.031,-3.441 v 0 c 0.002,-0.217 0.005,-0.434 0.009,-0.651 v 0 c 0.022,-1.142 0.067,-2.283 0.138,-3.423 v 0 c 0.011,-0.182 0.027,-0.364 0.04,-0.545 v 0 c 0.083,-1.196 0.185,-2.391 0.323,-3.583 v 0 l 21.648,-187.536 c -0.136,1.193 -0.24,2.388 -0.322,3.583 v 0 c -0.013,0.182 -0.029,0.363 -0.04,0.545 v 0 c -0.071,1.141 -0.116,2.281 -0.138,3.422 v 0 c -0.004,0.218 -0.007,0.435 -0.01,0.652 v 0 c -0.013,1.146 -0.004,2.293 0.032,3.44 v 0 c 0.005,0.165 0.013,0.33 0.02,0.495 v 0 c 0.044,1.162 0.108,2.326 0.203,3.489 v 0 c 0.003,0.055 0.006,0.11 0.011,0.165 v 0 c 0.098,1.181 0.227,2.364 0.377,3.545 v 0 c 0.025,0.196 0.046,0.391 0.074,0.587 v 0 c 0.151,1.137 0.328,2.275 0.528,3.411 v 0 c 0.037,0.215 0.075,0.43 0.115,0.644 v 0 c 0.211,1.151 0.441,2.301 0.7,3.45 v 0 c 0.033,0.14 0.068,0.28 0.1,0.421 v 0 c 0.262,1.138 0.546,2.277 0.856,3.413 v 0 c 0.029,0.103 0.054,0.208 0.082,0.312 v 0 c 0.229,0.829 0.471,1.658 0.724,2.486 v 0 c 0.063,0.202 0.132,0.406 0.196,0.609 v 0 c 0.198,0.626 0.398,1.252 0.609,1.877 v 0 c 0.1,0.296 0.205,0.59 0.308,0.885 v 0 c 0.188,0.538 0.38,1.076 0.578,1.613 v 0 c 0.115,0.312 0.233,0.624 0.351,0.936 v 0 c 0.203,0.533 0.412,1.065 0.625,1.596 v 0 c 0.12,0.298 0.238,0.597 0.362,0.895 v 0 c 0.246,0.594 0.499,1.186 0.756,1.778 v 0 c 0.099,0.228 0.194,0.456 0.295,0.684 v 0 c 0.362,0.814 0.735,1.628 1.121,2.439 v 0 c 0.077,0.162 0.159,0.324 0.238,0.486 v 0 c 0.313,0.652 0.634,1.303 0.963,1.952 v 0 c 0.142,0.28 0.29,0.559 0.435,0.839 v 0 c 0.277,0.532 0.557,1.066 0.844,1.597 v 0 c 0.182,0.337 0.365,0.671 0.551,1.008 v 0 c 0.207,0.373 0.417,0.747 0.629,1.12 v 0 c 0.202,0.356 0.409,0.712 0.616,1.068 v 0 c 0.217,0.372 0.437,0.744 0.659,1.116 v 0 c 0.213,0.354 0.429,0.709 0.646,1.064 v 0 c 0.226,0.369 0.456,0.738 0.687,1.108 v 0 c 0.223,0.352 0.447,0.705 0.675,1.058 v 0 c 0.238,0.369 0.478,0.737 0.721,1.104 v 0 c 0.23,0.349 0.462,0.697 0.697,1.044 v 0 c 0.248,0.369 0.501,0.737 0.756,1.105 v 0 c 0.239,0.347 0.479,0.694 0.724,1.039 v 0 c 0.258,0.364 0.519,0.727 0.781,1.091 v 0 c 0.25,0.346 0.502,0.692 0.758,1.038 v 0 c 0.266,0.362 0.536,0.723 0.809,1.084 v 0 c 0.259,0.341 0.518,0.683 0.78,1.023 v 0 c 0.28,0.362 0.562,0.724 0.846,1.084 v 0 c 0.22,0.279 0.441,0.559 0.665,0.837 v 0 c 0.928,1.158 1.882,2.309 2.861,3.451 v 0 c 0.152,0.179 0.305,0.356 0.459,0.533 v 0 c 0.985,1.14 1.997,2.271 3.034,3.395 v 0 c 0.159,0.173 0.32,0.345 0.481,0.518 v 0 c 1.05,1.125 2.123,2.242 3.224,3.351 v 0 c 0.16,0.161 0.323,0.322 0.483,0.483 v 0 c 1.12,1.116 2.26,2.224 3.43,3.321 v 0 c 0.151,0.143 0.304,0.283 0.457,0.424 v 0 c 1.22,1.136 2.465,2.262 3.739,3.376 v 0 c 0.149,0.132 0.302,0.26 0.452,0.391 v 0 c 1.29,1.119 2.604,2.23 3.949,3.326 v 0 c 0.145,0.119 0.293,0.237 0.439,0.355 v 0 c 1.363,1.103 2.75,2.197 4.167,3.276 v 0 c 0.139,0.106 0.279,0.21 0.417,0.314 v 0 c 1.436,1.087 2.898,2.164 4.39,3.225 v 0 c 0.289,0.206 0.581,0.408 0.873,0.613 v 0 c 0.584,0.41 1.169,0.819 1.76,1.226 v 0 c 0.358,0.245 0.72,0.489 1.081,0.733 v 0 c 0.556,0.375 1.114,0.75 1.676,1.122 v 0 c 0.382,0.252 0.764,0.502 1.148,0.753 v 0 c 0.558,0.363 1.118,0.724 1.683,1.083 v 0 c 0.388,0.248 0.779,0.496 1.171,0.742 v 0 c 0.579,0.363 1.163,0.724 1.749,1.083 v 0 c 0.381,0.234 0.762,0.468 1.145,0.7 v 0 c 0.633,0.382 1.273,0.761 1.914,1.14 v 0 c 0.345,0.202 0.687,0.408 1.034,0.609 v 0 c 0.818,0.477 1.646,0.949 2.478,1.419 v 0 c 0.175,0.098 0.346,0.199 0.52,0.296 v 0 c 1.01,0.566 2.03,1.126 3.057,1.68 v 0 c 0.298,0.16 0.601,0.318 0.9,0.477 v 0 c 0.734,0.392 1.469,0.783 2.213,1.168 v 0 c 0.227,0.118 0.456,0.234 0.684,0.351 v 0 c 1.727,0.889 3.476,1.764 5.253,2.622 v 0 c 0.165,0.08 0.333,0.158 0.499,0.237 v 0 c 1.814,0.871 3.652,1.727 5.518,2.563 v 0 c 0.129,0.058 0.261,0.115 0.391,0.173 v 0 c 1.912,0.853 3.848,1.69 5.813,2.507 v 0 c 0.075,0.031 0.149,0.059 0.223,0.09 v 0 c 2.026,0.84 4.078,1.661 6.16,2.461 v 0 c 1.988,0.763 3.989,1.492 5.992,2.205 v 0 c 0.461,0.163 0.923,0.327 1.383,0.488 v 0 c 1.979,0.692 3.962,1.365 5.954,2.007 v 0 c 0.247,0.08 0.493,0.154 0.74,0.233 v 0 c 1.824,0.583 3.656,1.143 5.49,1.686 v 0 c 0.435,0.129 0.871,0.259 1.307,0.387 v 0 c 1.996,0.579 3.996,1.137 6.002,1.669 v 0 c 0.901,0.239 1.806,0.472 2.71,0.702 v 0 c 0.438,0.111 0.875,0.227 1.313,0.336 v 0 c 1.4,0.349 2.802,0.688 4.206,1.015 v 0 c 0.133,0.03 0.269,0.059 0.403,0.09 v 0 c 1.268,0.292 2.538,0.577 3.808,0.851 v 0 c 0.485,0.105 0.969,0.203 1.452,0.304 v 0 c 0.927,0.195 1.852,0.388 2.78,0.574 v 0 c 0.555,0.11 1.111,0.216 1.665,0.323 v 0 c 0.863,0.167 1.727,0.331 2.591,0.489 v 0 c 0.575,0.106 1.15,0.208 1.724,0.31 v 0 c 0.851,0.15 1.703,0.297 2.554,0.439 v 0 c 0.577,0.097 1.153,0.192 1.729,0.285 v 0 c 0.867,0.139 1.734,0.273 2.602,0.404 v 0 c 0.552,0.084 1.106,0.169 1.659,0.249 v 0 c 0.477,0.069 0.956,0.132 1.433,0.199 v 0 c 1.93,0.27 3.86,0.521 5.79,0.749 v 0 c 0.278,0.033 0.556,0.071 0.834,0.102 v 0 c 2.095,0.243 4.188,0.456 6.28,0.65 v 0 c 0.466,0.043 0.932,0.085 1.398,0.125 v 0 c 2.111,0.185 4.218,0.354 6.324,0.491 v 0 c 0.15,0.009 0.299,0.016 0.448,0.026 v 0 c 2.006,0.127 4.007,0.227 6.007,0.311 v 0 c 0.439,0.018 0.878,0.038 1.315,0.054 v 0 c 2.063,0.077 4.123,0.132 6.179,0.162 v 0 c 0.389,0.005 0.778,0.006 1.168,0.011 v 0 c 1.895,0.02 3.788,0.021 5.676,0.003 v 0 c 0.293,-0.003 0.588,-0.002 0.881,-0.006 v 0 c 2.055,-0.028 4.102,-0.083 6.144,-0.156 v 0 c 0.458,-0.016 0.913,-0.035 1.369,-0.054 v 0 c 2.065,-0.084 4.126,-0.184 6.176,-0.315 v 0 c 1.38,-0.089 2.754,-0.188 4.126,-0.297 v 0 c 0.337,-0.026 0.672,-0.059 1.01,-0.088 v 0 c 1.038,-0.086 2.078,-0.176 3.112,-0.275 v 0 c 0.507,-0.048 1.01,-0.103 1.516,-0.154 v 0 c 0.863,-0.087 1.725,-0.176 2.584,-0.272 v 0 c 0.558,-0.062 1.113,-0.129 1.668,-0.195 v 0 c 0.805,-0.096 1.612,-0.192 2.414,-0.294 v 0 c 0.575,-0.074 1.146,-0.152 1.72,-0.229 v 0 c 0.781,-0.104 1.561,-0.213 2.339,-0.326 v 0 c 0.578,-0.083 1.155,-0.168 1.732,-0.256 v 0 c 0.773,-0.117 1.546,-0.239 2.317,-0.363 v 0 c 0.568,-0.092 1.135,-0.184 1.7,-0.279 v 0 c 0.782,-0.131 1.561,-0.268 2.341,-0.408 v 0 c 0.548,-0.097 1.096,-0.194 1.642,-0.296 v 0 c 0.463,-0.085 0.923,-0.177 1.385,-0.265 v 0 c 1.671,-0.321 3.333,-0.657 4.985,-1.01 v 0 c 0.294,-0.063 0.591,-0.122 0.884,-0.186 v 0 c 1.842,-0.402 3.668,-0.828 5.482,-1.269 v 0 c 0.42,-0.103 0.836,-0.207 1.255,-0.312 v 0 c 1.723,-0.43 3.437,-0.875 5.136,-1.343 v 0 c 0.136,-0.037 0.274,-0.072 0.409,-0.109 v 0 c 1.798,-0.499 3.577,-1.024 5.345,-1.565 v 0 c 0.427,-0.129 0.853,-0.261 1.278,-0.393 v 0 c 1.603,-0.501 3.197,-1.014 4.776,-1.549 v 0 c 0.086,-0.029 0.175,-0.057 0.26,-0.086 v 0 c 1.65,-0.562 3.279,-1.148 4.898,-1.746 v 0 c 0.418,-0.155 0.835,-0.312 1.251,-0.469 v 0 c 1.451,-0.547 2.891,-1.108 4.316,-1.685 v 0 c 0.18,-0.074 0.364,-0.143 0.543,-0.217 v 0 c 1.572,-0.642 3.123,-1.308 4.662,-1.988 v 0 c 0.383,-0.168 0.763,-0.339 1.143,-0.511 v 0 c 1.434,-0.644 2.854,-1.302 4.256,-1.977 v 0 c 0.174,-0.084 0.351,-0.165 0.525,-0.249 v 0 c 1.532,-0.744 3.039,-1.513 4.533,-2.295 v 0 c 0.364,-0.19 0.726,-0.383 1.087,-0.576 v 0 c 1.398,-0.745 2.781,-1.503 4.144,-2.281 v 0 c 0.112,-0.064 0.227,-0.125 0.337,-0.189 v 0 c 1.448,-0.833 2.868,-1.689 4.273,-2.557 v 0 c 0.486,-0.302 0.971,-0.604 1.452,-0.909 v 0 c 0.401,-0.253 0.8,-0.507 1.196,-0.764 v 0 c 0.602,-0.39 1.196,-0.785 1.789,-1.181 v 0 c 0.369,-0.248 0.741,-0.493 1.108,-0.743 v 0 c 0.644,-0.441 1.279,-0.887 1.913,-1.335 v 0 c 0.303,-0.214 0.609,-0.425 0.91,-0.64 v 0 c 0.926,-0.668 1.844,-1.342 2.749,-2.028 v 0 c 0.027,-0.021 0.055,-0.043 0.083,-0.065 v 0 c 0.874,-0.663 1.737,-1.336 2.589,-2.017 v 0 c 0.292,-0.233 0.577,-0.473 0.866,-0.708 v 0 c 0.584,-0.474 1.167,-0.95 1.739,-1.433 v 0 c 0.333,-0.28 0.66,-0.566 0.989,-0.849 v 0 c 0.52,-0.448 1.036,-0.896 1.546,-1.349 v 0 c 0.341,-0.304 0.676,-0.609 1.013,-0.915 v 0 c 0.412,-0.375 0.82,-0.754 1.226,-1.134 v 0 c 0.88,-0.824 1.748,-1.658 2.597,-2.504 v 0 c 0.168,-0.168 0.34,-0.331 0.508,-0.498 v 0 c 0.996,-1.004 1.965,-2.024 2.917,-3.057 v 0 c 0.252,-0.272 0.496,-0.55 0.745,-0.825 v 0 c 0.724,-0.802 1.435,-1.612 2.132,-2.431 v 0 c 0.263,-0.308 0.526,-0.615 0.784,-0.926 v 0 c 0.895,-1.077 1.776,-2.163 2.623,-3.27 v 0 c 10.317,-13.461 16.134,-27.881 17.824,-42.527 v 0 l -21.649,187.535 c -1.69,14.647 -7.507,29.067 -17.823,42.529 v 0 c -0.848,1.105 -1.729,2.192 -2.624,3.269 v 0 c -0.258,0.31 -0.521,0.617 -0.784,0.926 v 0 c -0.697,0.82 -1.408,1.63 -2.133,2.432 v 0 c -0.247,0.275 -0.493,0.552 -0.744,0.825 v 0 c -0.952,1.032 -1.922,2.053 -2.919,3.057 v 0 c -0.164,0.166 -0.336,0.328 -0.504,0.494 v 0 c -0.85,0.847 -1.718,1.683 -2.599,2.508 v 0 c -0.148,0.138 -0.288,0.283 -0.437,0.421 v 0 c -0.259,0.24 -0.527,0.474 -0.79,0.712 v 0 c -0.335,0.306 -0.672,0.612 -1.011,0.914 v 0 c -0.51,0.455 -1.028,0.903 -1.546,1.35 v 0 c -0.33,0.284 -0.656,0.568 -0.989,0.849 v 0 c -0.574,0.483 -1.156,0.959 -1.739,1.433 v 0 c -0.29,0.236 -0.575,0.475 -0.867,0.708 v 0 c -0.851,0.681 -1.715,1.354 -2.589,2.018 v 0 c -0.028,0.022 -0.055,0.043 -0.083,0.065 v 0 c -0.905,0.685 -1.822,1.359 -2.748,2.026 v 0 c -0.303,0.218 -0.613,0.429 -0.917,0.645 v 0 c -0.632,0.446 -1.264,0.892 -1.906,1.33 v 0 c -0.368,0.251 -0.742,0.498 -1.112,0.746 v 0 c -0.593,0.396 -1.184,0.79 -1.783,1.178 v 0 c -0.398,0.258 -0.799,0.513 -1.201,0.767 v 0 c -0.319,0.202 -0.631,0.408 -0.951,0.608 v 0 c -0.163,0.101 -0.334,0.197 -0.498,0.298 v 0 c -1.406,0.869 -2.825,1.726 -4.272,2.557 v 0 c -0.113,0.065 -0.227,0.126 -0.34,0.19 v 0 c -1.361,0.778 -2.744,1.537 -4.141,2.281 v 0 c -0.362,0.193 -0.725,0.386 -1.089,0.577 v 0 c -1.493,0.782 -3.001,1.55 -4.532,2.294 v 0 c -0.175,0.084 -0.354,0.165 -0.528,0.25 v 0 c -1.401,0.676 -2.821,1.333 -4.254,1.976 v 0 c -0.213,0.097 -0.421,0.2 -0.635,0.296 v 0 c -0.167,0.074 -0.339,0.143 -0.507,0.217 v 0 c -1.539,0.678 -3.09,1.343 -4.663,1.986 v 0 c -0.179,0.075 -0.364,0.145 -0.546,0.218 v 0 c -1.424,0.577 -2.864,1.136 -4.313,1.684 v 0 c -0.416,0.158 -0.833,0.315 -1.251,0.469 v 0 c -1.62,0.599 -3.249,1.185 -4.896,1.746 v 0 c -0.088,0.029 -0.176,0.057 -0.262,0.086 v 0 c -1.578,0.534 -3.173,1.048 -4.776,1.549 v 0 c -0.219,0.068 -0.433,0.144 -0.652,0.211 v 0 c -0.207,0.064 -0.42,0.121 -0.627,0.184 v 0 c -1.768,0.54 -3.547,1.065 -5.344,1.563 v 0 c -0.136,0.038 -0.274,0.072 -0.408,0.11 v 0 c -1.7,0.467 -3.413,0.912 -5.137,1.343 v 0 c -0.418,0.103 -0.835,0.209 -1.254,0.311 v 0 c -1.816,0.442 -3.642,0.868 -5.482,1.268 v 0 c -0.293,0.064 -0.59,0.125 -0.885,0.187 v 0 c -1.652,0.353 -3.315,0.689 -4.986,1.009 v 0 c -0.25,0.049 -0.496,0.105 -0.746,0.152 v 0 c -0.212,0.04 -0.424,0.075 -0.636,0.115 v 0 c -0.549,0.101 -1.097,0.199 -1.646,0.296 v 0 c -0.778,0.138 -1.557,0.276 -2.339,0.408 v 0 c -0.565,0.095 -1.131,0.187 -1.699,0.279 v 0 c -0.771,0.124 -1.543,0.245 -2.319,0.363 v 0 c -0.576,0.087 -1.152,0.173 -1.731,0.256 v 0 c -0.777,0.112 -1.557,0.22 -2.337,0.326 v 0 c -0.574,0.077 -1.147,0.154 -1.723,0.228 v 0 c -0.802,0.103 -1.606,0.198 -2.413,0.295 v 0 c -0.555,0.064 -1.11,0.133 -1.667,0.195 v 0 c -0.86,0.095 -1.722,0.183 -2.584,0.271 v 0 c -0.506,0.052 -1.01,0.107 -1.517,0.154 v 0 c -1.035,0.1 -2.073,0.189 -3.113,0.276 v 0 c -0.337,0.028 -0.672,0.06 -1.009,0.087 v 0 c -1.345,0.107 -2.695,0.205 -4.049,0.293 v 0 c -0.025,10e-4 -0.05,0.002 -0.076,0.003 v 0 c -2.051,0.132 -4.112,0.232 -6.178,0.317 v 0 c -0.455,0.018 -0.91,0.037 -1.367,0.053 v 0 c -2.043,0.074 -4.09,0.129 -6.144,0.156 v 0 c -0.295,0.003 -0.588,0.003 -0.882,0.006 v 0 c -0.88,0.009 -1.76,0.013 -2.642,0.013 v 0 c -1.01,0 -2.022,-0.005 -3.035,-0.016" /></clipPath><linearGradient
       id="linearGradient40"
       spreadMethod="pad"
       gradientTransform="matrix(48,-238.00002,-238.00002,-48,320.11316,556.38861)"
       gradientUnits="userSpaceOnUse"
       y2="0"
       x2="1"
       y1="0"
       x1="0"><stop
         id="stop36"
         offset="0"
         style="stop-opacity:1;stop-color:#1b1b1b" /><stop
         id="stop38"
         offset="1"
         style="stop-opacity:1;stop-color:#131313" /></linearGradient><clipPath
       id="clipPath50"
       clipPathUnits="userSpaceOnUse"><path
         id="path48"
         d="M 0,658.683 H 731.513 V 0 H 0 Z" /></clipPath><clipPath
       id="clipPath62"
       clipPathUnits="userSpaceOnUse"><path
         id="path60"
         d="m 703.938,403.494 c -3.79,-13.78 -9.368,-27.423 -16.649,-40.761 v 0 c -6.206,-11.368 -13.649,-22.515 -22.276,-33.337 v 0 c -8.152,-10.228 -17.36,-20.166 -27.582,-29.728 v 0 c -10.467,-9.788 -21.994,-19.184 -34.537,-28.091 v 0 C 588.455,261.323 572.673,251.716 555.62,242.896 v 0 c -14.613,-7.556 -30.159,-14.533 -46.592,-20.841 v 0 c -17.167,-6.59 -34.67,-12.207 -52.361,-16.877 v 0 c -20.018,-5.283 -40.273,-9.353 -60.553,-12.246 v 0 c -36.796,-5.249 -73.667,-6.619 -109.319,-4.325 v 0 c -20.202,1.298 -40.013,3.774 -59.197,7.388 v 0 c -16.453,3.098 -32.445,7.034 -47.828,11.782 v 0 c -14.609,4.51 -28.669,9.752 -42.053,15.706 v 0 c -13.77,6.125 -26.823,13.005 -39.019,20.614 v 0 c -14.202,8.861 -27.245,18.712 -38.908,29.517 v 0 c -9.03,8.365 -17.232,17.302 -24.506,26.794 v 0 C 15.443,326.295 4.257,354.026 1.005,382.192 v 0 l 21.65,-187.536 c 3.251,-28.167 14.437,-55.898 34.277,-81.784 v 0 C 64.206,103.379 72.41,94.443 81.437,86.079 v 0 c 11.664,-10.806 24.707,-20.657 38.91,-29.518 v 0 c 12.196,-7.61 25.249,-14.489 39.02,-20.615 v 0 C 172.75,29.993 186.809,24.75 201.42,20.241 v 0 c 15.382,-4.748 31.374,-8.683 47.826,-11.783 v 0 C 268.431,4.845 288.241,2.369 308.444,1.07 v 0 c 35.651,-2.293 72.522,-0.922 109.319,4.325 v 0 c 20.28,2.893 40.536,6.963 60.554,12.248 v 0 c 17.69,4.669 35.193,10.286 52.36,16.876 v 0 c 16.434,6.308 31.979,13.284 46.592,20.841 v 0 c 17.052,8.819 32.836,18.426 47.274,28.681 v 0 c 12.543,8.907 24.07,18.303 34.536,28.092 v 0 c 10.222,9.561 19.431,19.498 27.582,29.726 v 0 c 8.628,10.823 16.071,21.97 22.276,33.338 v 0 c 7.281,13.339 12.859,26.981 16.65,40.761 v 0 c 5.515,20.057 7.244,40.407 4.921,60.534 v 0 l -21.649,187.536 c 2.324,-20.126 0.596,-40.476 -4.921,-60.534" /></clipPath><linearGradient
       id="linearGradient72"
       spreadMethod="pad"
       gradientTransform="matrix(51.999996,-349.99997,-349.99997,-51.999996,369.28806,305.29913)"
       gradientUnits="userSpaceOnUse"
       y2="0"
       x2="1"
       y1="0"
       x1="0"><stop
         id="stop68"
         offset="0"
         style="stop-opacity:1;stop-color:#1b1b1b" /><stop
         id="stop70"
         offset="1"
         style="stop-opacity:1;stop-color:#131313" /></linearGradient></defs><g
     transform="matrix(1.3333333,0,0,-1.3333333,0,878.244)"
     id="g10"><g
       id="g12"><g
         clip-path="url(#clipPath18)"
         id="g14"><g
           transform="translate(709.7884,441.8226)"
           id="g20"><path
             id="path22"
             style="fill:#121212;fill-opacity:1;fill-rule:nonzero;stroke:none"
             d="M 0,0 C 0,-0.011 -0.001,-0.023 -0.002,-0.034 0,0.004 0,0.042 0.002,0.081 0.001,0.054 0.001,0.027 0,0 m -0.176,-4.104 c 0,-0.01 -0.001,-0.019 -0.002,-0.027 0.001,0.011 0.002,0.023 0.002,0.035 z M -0.46,-8.195 c -0.012,-0.14 -0.028,-0.28 -0.04,-0.419 0.023,0.275 0.046,0.55 0.068,0.825 -0.011,-0.135 -0.017,-0.271 -0.028,-0.406 m -0.058,26.317 c 0.01,-0.1 0.016,-0.2 0.024,-0.299 -0.012,0.137 -0.023,0.275 -0.034,0.413 0.003,-0.038 0.007,-0.076 0.01,-0.114 m -3.359,-48.529 c -0.014,-0.062 -0.029,-0.124 -0.043,-0.185 0.024,0.109 0.049,0.218 0.074,0.327 -0.011,-0.047 -0.02,-0.095 -0.031,-0.142 m -0.965,-4.077 c -0.013,-0.056 -0.029,-0.11 -0.043,-0.165 0.057,0.227 0.111,0.453 0.166,0.68 -0.042,-0.172 -0.08,-0.344 -0.123,-0.515 m -1.063,-4.032 c -0.014,-0.05 -0.031,-0.101 -0.044,-0.151 0.022,0.082 0.046,0.163 0.068,0.244 -0.009,-0.032 -0.015,-0.062 -0.024,-0.093 m -9.238,-25.691 c -0.025,-0.057 -0.053,-0.113 -0.079,-0.17 0.051,0.113 0.102,0.226 0.152,0.338 -0.026,-0.055 -0.048,-0.111 -0.073,-0.168 M -17.3,-68.9 c -0.008,-0.017 -0.016,-0.033 -0.024,-0.05 0.01,0.021 0.02,0.041 0.03,0.062 -0.002,-0.004 -0.004,-0.008 -0.006,-0.012 m -75.438,-90.743 c -0.028,-0.021 -0.054,-0.042 -0.08,-0.062 0.052,0.041 0.104,0.082 0.156,0.123 -0.026,-0.021 -0.051,-0.041 -0.076,-0.061 m -9.076,-6.923 c -0.046,-0.034 -0.093,-0.067 -0.139,-0.101 0.098,0.072 0.194,0.144 0.291,0.215 -0.052,-0.038 -0.102,-0.076 -0.152,-0.114 m -39.894,-25.65 c -0.113,-0.063 -0.229,-0.125 -0.343,-0.188 0.297,0.166 0.593,0.333 0.889,0.499 -0.184,-0.103 -0.362,-0.208 -0.546,-0.311 m -5.874,-3.228 c -0.106,-0.057 -0.215,-0.114 -0.322,-0.171 0.155,0.083 0.311,0.166 0.467,0.25 -0.049,-0.026 -0.096,-0.053 -0.145,-0.079 m -11.522,-5.989 c -0.038,-0.02 -0.077,-0.038 -0.115,-0.057 l 0.206,0.103 c -0.03,-0.015 -0.06,-0.031 -0.091,-0.046 m -11.458,-5.538 c -0.099,-0.046 -0.199,-0.091 -0.297,-0.136 0.183,0.085 0.367,0.17 0.55,0.256 -0.085,-0.04 -0.169,-0.081 -0.253,-0.12 m -11.822,-5.306 c -0.152,-0.065 -0.307,-0.129 -0.46,-0.195 0.295,0.127 0.592,0.255 0.887,0.383 -0.143,-0.062 -0.283,-0.126 -0.427,-0.188 m -12.167,-5.057 c -0.201,-0.081 -0.405,-0.158 -0.606,-0.238 0.403,0.16 0.805,0.321 1.207,0.482 -0.201,-0.081 -0.399,-0.164 -0.601,-0.244 m -7.615,277.073 v 0 c 0.002,-0.002 0.005,-0.004 0.007,-0.006 -0.002,0.002 -0.004,0.004 -0.007,0.006 m -16.367,-285.934 c -1.953,-0.666 -3.91,-1.318 -5.871,-1.96 -0.001,0 -0.003,-0.001 -0.004,-0.001 1.962,0.642 3.922,1.295 5.877,1.961 -0.001,0 -0.002,0 -0.002,0 m -7.678,-2.555 c -1.269,-0.41 -2.543,-0.8 -3.813,-1.2 1.271,0.4 2.545,0.79 3.814,1.2 0,0 -0.001,0 -0.001,0 m -48.514,105.49 c -61.939,-23.776 -132.29,-23.201 -185.1,-2.58 0.062,0.043 0.124,0.088 0.187,0.131 0.358,0.245 0.72,0.488 1.081,0.732 0.555,0.376 1.114,0.751 1.676,1.123 0.381,0.252 0.764,0.502 1.148,0.752 0.557,0.363 1.118,0.724 1.682,1.084 0.389,0.247 0.779,0.495 1.172,0.741 0.579,0.363 1.163,0.724 1.749,1.084 0.381,0.234 0.761,0.467 1.145,0.699 0.632,0.383 1.272,0.762 1.914,1.14 0.344,0.203 0.686,0.408 1.034,0.61 0.818,0.477 1.646,0.949 2.477,1.418 0.175,0.098 0.346,0.199 0.521,0.296 1.01,0.566 2.029,1.126 3.057,1.68 0.297,0.161 0.6,0.318 0.899,0.477 0.734,0.392 1.47,0.783 2.214,1.169 0.226,0.118 0.456,0.233 0.683,0.35 1.728,0.89 3.477,1.765 5.253,2.622 0.165,0.08 0.333,0.158 0.499,0.237 1.815,0.871 3.653,1.727 5.518,2.563 0.13,0.058 0.262,0.115 0.392,0.173 1.912,0.853 3.848,1.691 5.813,2.507 0.074,0.031 0.148,0.06 0.223,0.091 2.026,0.839 4.078,1.661 6.16,2.46 1.988,0.763 3.988,1.492 5.992,2.205 0.461,0.164 0.922,0.328 1.383,0.489 1.978,0.691 3.962,1.364 5.954,2.007 0.246,0.079 0.493,0.153 0.739,0.232 1.824,0.583 3.656,1.143 5.49,1.686 0.436,0.129 0.872,0.26 1.307,0.387 1.996,0.579 3.996,1.137 6.002,1.67 0.902,0.239 1.807,0.471 2.71,0.701 0.438,0.112 0.876,0.227 1.313,0.337 1.401,0.348 2.803,0.688 4.207,1.014 0.133,0.031 0.268,0.059 0.402,0.09 1.268,0.293 2.538,0.577 3.809,0.851 0.484,0.105 0.968,0.203 1.452,0.305 0.926,0.194 1.852,0.388 2.78,0.573 0.555,0.111 1.11,0.216 1.665,0.323 0.863,0.167 1.726,0.331 2.591,0.49 0.574,0.105 1.149,0.208 1.723,0.309 0.852,0.151 1.704,0.297 2.555,0.44 0.576,0.096 1.152,0.192 1.729,0.284 0.866,0.14 1.734,0.273 2.601,0.404 0.553,0.084 1.107,0.169 1.66,0.249 0.477,0.07 0.955,0.133 1.433,0.199 1.93,0.27 3.86,0.521 5.79,0.75 0.277,0.033 0.556,0.07 0.834,0.102 2.094,0.242 4.187,0.455 6.279,0.649 0.466,0.043 0.933,0.085 1.399,0.125 2.11,0.186 4.218,0.354 6.324,0.491 0.149,0.009 0.299,0.016 0.447,0.026 2.006,0.127 4.008,0.228 6.008,0.311 0.438,0.018 0.877,0.038 1.314,0.054 2.064,0.077 4.123,0.132 6.179,0.162 0.39,0.006 0.778,0.007 1.168,0.011 1.896,0.02 3.788,0.022 5.677,0.003 0.293,-0.003 0.588,-0.002 0.881,-0.006 2.054,-0.027 4.102,-0.082 6.144,-0.155 0.457,-0.017 0.912,-0.035 1.368,-0.054 2.066,-0.084 4.126,-0.185 6.177,-0.316 1.379,-0.089 2.754,-0.187 4.125,-0.297 0.338,-0.026 0.673,-0.059 1.01,-0.087 1.039,-0.087 2.078,-0.176 3.112,-0.275 0.507,-0.048 1.011,-0.103 1.517,-0.155 0.862,-0.087 1.724,-0.175 2.584,-0.271 0.557,-0.063 1.112,-0.13 1.668,-0.195 0.805,-0.096 1.611,-0.192 2.413,-0.295 0.575,-0.074 1.147,-0.151 1.722,-0.228 0.78,-0.105 1.56,-0.214 2.337,-0.326 0.579,-0.083 1.156,-0.169 1.733,-0.256 0.773,-0.118 1.546,-0.239 2.316,-0.363 0.569,-0.092 1.135,-0.184 1.7,-0.28 0.783,-0.131 1.562,-0.268 2.341,-0.407 0.548,-0.098 1.097,-0.195 1.643,-0.296 0.463,-0.086 0.923,-0.178 1.385,-0.266 1.671,-0.321 3.333,-0.657 4.984,-1.01 0.295,-0.063 0.592,-0.122 0.885,-0.186 1.842,-0.401 3.668,-0.827 5.482,-1.269 0.419,-0.102 0.836,-0.207 1.254,-0.311 1.724,-0.431 3.438,-0.876 5.137,-1.343 0.136,-0.038 0.273,-0.072 0.408,-0.11 1.799,-0.498 3.578,-1.024 5.346,-1.564 0.426,-0.13 0.852,-0.261 1.277,-0.394 1.604,-0.501 3.198,-1.014 4.776,-1.549 0.086,-0.029 0.175,-0.056 0.261,-0.086 1.65,-0.561 3.279,-1.148 4.898,-1.746 0.418,-0.155 0.835,-0.311 1.251,-0.468 0.682,-0.258 1.353,-0.53 2.032,-0.794 -13.425,-9.234 -28.982,-17.412 -46.48,-24.13 m 39.057,-108.438 c -1.641,-0.495 -3.284,-0.978 -4.93,-1.457 1.649,0.48 3.295,0.964 4.939,1.46 -0.003,-0.001 -0.006,-0.002 -0.009,-0.003 m -8.481,-2.481 c -0.353,-0.1 -0.706,-0.195 -1.058,-0.293 0.355,0.099 0.712,0.195 1.067,0.296 -0.003,-0.001 -0.007,-0.002 -0.009,-0.003 m -7.872,-2.167 c -1.864,-0.496 -3.732,-0.975 -5.6,-1.45 -0.004,-0.001 -0.007,-0.002 -0.01,-0.003 1.872,0.476 3.744,0.956 5.612,1.454 -0.001,0 -0.001,-0.001 -0.002,-0.001 m -16.221,-4.049 c -0.002,-10e-4 -0.004,-10e-4 -0.007,-10e-4 1.493,0.346 2.981,0.717 4.473,1.078 -1.489,-0.361 -2.976,-0.73 -4.466,-1.077 m -0.939,-0.211 c -2.388,-0.551 -4.779,-1.086 -7.173,-1.603 -0.001,0 -0.001,0 -0.002,0 2.419,0.522 4.836,1.063 7.251,1.62 -0.025,-0.006 -0.05,-0.011 -0.076,-0.017 m -15.308,-3.29 c -0.001,0 -0.002,0 -0.003,0 1.616,0.322 3.23,0.66 4.845,0.999 -1.613,-0.339 -3.227,-0.676 -4.842,-0.999 m -8.175,-1.562 c -0.001,0 -0.002,0 -0.004,0 0.08,0.014 0.16,0.03 0.24,0.045 -0.079,-0.015 -0.158,-0.03 -0.236,-0.045 m -8.224,-1.439 c -0.002,-0.001 -0.005,-0.001 -0.007,-0.001 1.279,0.213 2.556,0.436 3.834,0.659 -1.275,-0.223 -2.55,-0.445 -3.827,-0.658 m -8.323,-1.324 c -0.002,-0.001 -0.005,-0.001 -0.008,-0.002 0.67,0.102 1.34,0.209 2.011,0.312 -0.667,-0.102 -1.335,-0.21 -2.003,-0.31 m -3.221,-0.484 c -2.111,-0.305 -4.221,-0.597 -6.332,-0.878 -0.011,-0.001 -0.023,-0.003 -0.036,-0.005 2.124,0.282 4.249,0.576 6.372,0.884 -10e-4,0 -0.003,0 -0.004,-0.001 m -7.838,-1.083 c -2.624,-0.341 -5.248,-0.661 -7.871,-0.962 -0.002,-0.001 -0.004,-0.001 -0.005,-0.001 2.628,0.302 5.256,0.623 7.884,0.964 -0.002,0 -0.005,-0.001 -0.008,-0.001 m -10.05,-1.202 c -0.17,-0.019 -0.339,-0.035 -0.508,-0.054 0.174,0.019 0.348,0.036 0.521,0.055 -0.005,0 -0.009,-0.001 -0.013,-0.001 m -8.514,-0.878 c -1.803,-0.171 -3.605,-0.332 -5.408,-0.485 -0.003,0 -0.006,-0.001 -0.01,-0.001 1.809,0.153 3.617,0.315 5.426,0.487 -0.003,0 -0.005,0 -0.008,-0.001 m -15.924,-1.283 c -2.617,-0.17 -5.232,-0.319 -7.846,-0.451 h -0.003 c 2.615,0.132 5.233,0.281 7.853,0.452 -0.002,-0.001 -0.003,-0.001 -0.004,-0.001 m -10.051,-0.551 c -1.902,-0.089 -3.801,-0.169 -5.7,-0.236 h -0.007 c 1.907,0.067 3.813,0.148 5.721,0.236 -0.004,0 -0.01,0 -0.014,0 m -8.427,-0.325 c -1.793,-0.055 -3.584,-0.1 -5.374,-0.137 h -0.002 c 1.793,0.037 3.587,0.082 5.382,0.137 z m -15.782,-0.258 c -0.129,0 -0.257,0.003 -0.387,0.003 0.13,0 0.258,-0.003 0.387,-0.003 m -9.983,0.095 c -1.858,0.033 -3.716,0.074 -5.569,0.127 -0.002,0 -0.005,10e-4 -0.008,10e-4 1.861,-0.054 3.726,-0.095 5.593,-0.128 z m -8.28,0.213 c -1.76,0.06 -3.517,0.129 -5.271,0.206 -0.004,0 -0.008,0 -0.012,10e-4 1.761,-0.078 3.525,-0.147 5.291,-0.207 z m -7.842,0.321 c -1.41,0.07 -2.815,0.154 -4.221,0.234 1.408,-0.08 2.815,-0.165 4.227,-0.234 z m -7.68,0.429 c -1.785,0.114 -3.562,0.251 -5.342,0.383 1.782,-0.132 3.56,-0.269 5.347,-0.384 -10e-4,0 -0.003,0 -0.005,0.001 m -10.088,0.756 c -0.886,0.075 -1.769,0.158 -2.654,0.235 0.887,-0.078 1.771,-0.161 2.657,-0.235 z m -16.928,1.712 c -1.542,0.182 -3.083,0.367 -4.62,0.563 -10e-4,0.001 -0.003,0.001 -0.005,0.001 1.54,-0.197 3.085,-0.382 4.63,-0.565 -10e-4,0 -0.003,0 -0.005,0.001 m -7.949,1.005 c -0.901,0.122 -1.799,0.25 -2.699,0.376 0.903,-0.126 1.804,-0.255 2.708,-0.377 -0.003,0 -0.006,0.001 -0.009,0.001 m 169.922,348.982 c -0.013,0.002 -0.027,0.005 -0.041,0.008 -0.002,10e-4 -0.005,10e-4 -0.007,0.002 0.017,-0.004 0.033,-0.007 0.048,-0.01 m -189.943,-345.849 c -0.001,0 -0.002,0 -0.002,0 1.487,-0.265 2.977,-0.527 4.471,-0.779 -1.494,0.252 -2.983,0.514 -4.469,0.779 m -3.19,0.575 c -0.439,0.082 -0.875,0.17 -1.313,0.253 0.438,-0.083 0.875,-0.172 1.314,-0.253 z m -7.091,1.367 c -2.377,0.48 -4.744,0.98 -7.1,1.495 l -0.006,0.001 c 2.361,-0.516 4.73,-1.017 7.112,-1.497 -0.002,0 -0.004,0.001 -0.006,0.001 m -16.594,3.684 c -1.714,0.414 -3.42,0.839 -5.121,1.272 -10e-4,0.001 -0.002,0.001 -0.003,0.001 1.702,-0.433 3.41,-0.859 5.125,-1.273 z m -11.902,270.408 c -0.078,-0.098 -0.153,-0.196 -0.229,-0.293 0.173,0.22 0.343,0.442 0.518,0.663 -0.096,-0.124 -0.193,-0.247 -0.289,-0.37 m -10.787,-16.152 c -0.08,-0.144 -0.162,-0.289 -0.243,-0.433 0.104,0.189 0.212,0.376 0.317,0.564 -0.025,-0.043 -0.049,-0.087 -0.074,-0.131 M 21.711,-181.791 c -0.006,0.84 -0.018,1.68 -0.037,2.52 -0.014,0.544 -0.028,1.089 -0.046,1.633 -0.029,0.851 -0.067,1.702 -0.11,2.554 -0.028,0.523 -0.051,1.046 -0.083,1.569 -0.057,0.924 -0.126,1.847 -0.201,2.77 -0.035,0.443 -0.063,0.885 -0.102,1.328 -0.12,1.363 -0.255,2.725 -0.412,4.086 L -0.93,22.206 c 0.007,-0.059 0.012,-0.117 0.018,-0.174 -3.225,28.225 -14.414,56.017 -34.295,81.957 -85.101,111.039 -297.203,146.118 -473.734,78.354 -135.536,-52.027 -210.699,-149.544 -199.8,-242.283 -0.013,0.103 -0.03,0.206 -0.042,0.31 l 21.649,-187.537 c 3.251,-28.166 14.438,-55.897 34.278,-81.784 1.183,-1.544 2.4,-3.068 3.631,-4.582 0.323,-0.397 0.648,-0.792 0.974,-1.186 1.119,-1.355 2.254,-2.699 3.411,-4.03 0.142,-0.163 0.278,-0.328 0.421,-0.49 1.282,-1.466 2.595,-2.913 3.923,-4.35 0.344,-0.371 0.691,-0.741 1.039,-1.111 1.141,-1.216 2.297,-2.422 3.471,-3.616 0.245,-0.25 0.486,-0.503 0.732,-0.752 1.379,-1.39 2.782,-2.764 4.205,-4.125 0.353,-0.338 0.711,-0.673 1.068,-1.009 0.544,-0.514 1.081,-1.032 1.63,-1.542 0.497,-0.461 1.012,-0.91 1.514,-1.367 0.649,-0.59 1.297,-1.179 1.953,-1.763 0.978,-0.87 1.969,-1.73 2.964,-2.587 0.637,-0.548 1.269,-1.099 1.912,-1.641 1.098,-0.925 2.213,-1.837 3.332,-2.747 0.56,-0.456 1.112,-0.918 1.678,-1.369 1.613,-1.29 3.247,-2.564 4.902,-3.822 0.08,-0.061 0.159,-0.125 0.24,-0.186 1.735,-1.315 3.497,-2.61 5.278,-3.891 0.584,-0.42 1.181,-0.83 1.769,-1.246 1.212,-0.857 2.426,-1.712 3.659,-2.553 0.711,-0.485 1.431,-0.961 2.149,-1.442 1.132,-0.757 2.269,-1.512 3.416,-2.256 0.769,-0.498 1.544,-0.99 2.318,-1.482 0.611,-0.387 1.21,-0.782 1.826,-1.166 0.595,-0.372 1.204,-0.734 1.804,-1.103 0.575,-0.353 1.15,-0.706 1.729,-1.055 1.562,-0.946 3.139,-1.879 4.729,-2.8 0.285,-0.165 0.567,-0.335 0.853,-0.5 1.865,-1.073 3.752,-2.127 5.653,-3.167 0.538,-0.294 1.081,-0.583 1.622,-0.875 1.416,-0.764 2.842,-1.521 4.278,-2.267 0.622,-0.324 1.244,-0.647 1.869,-0.967 1.57,-0.803 3.152,-1.596 4.744,-2.379 0.406,-0.199 0.806,-0.403 1.214,-0.601 1.979,-0.963 3.976,-1.908 5.988,-2.838 0.526,-0.243 1.058,-0.48 1.586,-0.721 0.982,-0.448 1.96,-0.901 2.95,-1.341 0.568,-0.254 1.147,-0.499 1.719,-0.749 0.618,-0.271 1.238,-0.542 1.859,-0.81 1.701,-0.734 3.413,-1.457 5.135,-2.169 0.376,-0.155 0.747,-0.314 1.123,-0.468 2.072,-0.848 4.16,-1.678 6.261,-2.492 0.556,-0.216 1.118,-0.427 1.677,-0.641 1.615,-0.617 3.238,-1.226 4.87,-1.824 0.641,-0.235 1.282,-0.471 1.926,-0.703 1.956,-0.705 3.92,-1.398 5.897,-2.075 0.204,-0.07 0.405,-0.143 0.609,-0.212 2.169,-0.739 4.356,-1.457 6.551,-2.162 0.631,-0.203 1.264,-0.401 1.897,-0.601 0.843,-0.266 1.683,-0.539 2.53,-0.8 0.783,-0.242 1.575,-0.472 2.36,-0.71 0.733,-0.221 1.464,-0.443 2.198,-0.66 1.884,-0.558 3.778,-1.103 5.679,-1.636 0.393,-0.11 0.781,-0.225 1.174,-0.334 2.275,-0.632 4.564,-1.244 6.863,-1.84 0.659,-0.171 1.322,-0.335 1.985,-0.504 1.689,-0.43 3.384,-0.852 5.086,-1.263 0.784,-0.19 1.568,-0.377 2.354,-0.562 1.718,-0.406 3.44,-0.8 5.17,-1.186 0.659,-0.147 1.316,-0.299 1.977,-0.443 2.358,-0.516 4.725,-1.016 7.103,-1.496 0.401,-0.081 0.807,-0.156 1.21,-0.236 1.553,-0.309 3.105,-0.618 4.667,-0.912 0.406,-0.077 0.817,-0.145 1.224,-0.22 1.048,-0.195 2.101,-0.381 3.154,-0.569 1.498,-0.267 2.999,-0.532 4.504,-0.785 1.085,-0.183 2.173,-0.359 3.261,-0.535 1.489,-0.24 2.98,-0.475 4.475,-0.701 1.102,-0.167 2.204,-0.331 3.309,-0.491 1.504,-0.217 3.011,-0.425 4.521,-0.629 1.096,-0.148 2.19,-0.295 3.287,-0.436 1.551,-0.198 3.108,-0.385 4.664,-0.569 1.063,-0.125 2.123,-0.255 3.188,-0.373 1.653,-0.185 3.311,-0.355 4.971,-0.523 0.974,-0.099 1.947,-0.204 2.923,-0.298 1.958,-0.187 3.923,-0.356 5.89,-0.52 0.683,-0.058 1.362,-0.123 2.045,-0.178 2.587,-0.206 5.181,-0.394 7.782,-0.561 0.067,-0.005 0.133,-0.008 0.199,-0.012 0.381,-0.025 0.765,-0.043 1.147,-0.067 2.176,-0.133 4.355,-0.255 6.539,-0.362 0.842,-0.041 1.687,-0.076 2.529,-0.113 1.769,-0.078 3.539,-0.148 5.313,-0.208 0.894,-0.029 1.787,-0.059 2.681,-0.085 1.866,-0.053 3.735,-0.094 5.606,-0.128 0.736,-0.013 1.471,-0.031 2.209,-0.042 2.581,-0.035 5.166,-0.054 7.757,-0.052 0.421,0 0.842,0.008 1.262,0.009 2.182,0.007 4.368,0.027 6.555,0.061 0.858,0.013 1.716,0.033 2.574,0.051 1.797,0.036 3.594,0.082 5.394,0.137 0.903,0.027 1.807,0.056 2.712,0.088 1.906,0.068 3.813,0.149 5.721,0.237 0.73,0.034 1.457,0.063 2.187,0.1 2.615,0.132 5.233,0.281 7.854,0.451 0.451,0.029 0.902,0.066 1.352,0.097 2.179,0.147 4.358,0.306 6.54,0.481 0.87,0.069 1.74,0.145 2.61,0.219 1.807,0.153 3.615,0.315 5.422,0.487 0.911,0.086 1.822,0.173 2.734,0.264 1.928,0.194 3.857,0.4 5.788,0.614 0.72,0.08 1.44,0.154 2.162,0.237 2.627,0.303 5.254,0.623 7.882,0.965 0.495,0.064 0.99,0.136 1.486,0.202 1.701,0.226 3.402,0.452 5.104,0.694 0.413,0.059 0.826,0.126 1.239,0.186 1.076,0.156 2.151,0.321 3.227,0.484 1.659,0.251 3.316,0.506 4.973,0.772 1.111,0.179 2.223,0.363 3.333,0.549 1.638,0.274 3.274,0.556 4.911,0.845 1.103,0.195 2.205,0.391 3.308,0.593 1.674,0.308 3.346,0.626 5.018,0.949 1.053,0.203 2.104,0.404 3.156,0.613 1.807,0.361 3.614,0.738 5.42,1.118 0.907,0.191 1.815,0.374 2.721,0.57 2.461,0.531 4.92,1.081 7.375,1.648 0.244,0.057 0.49,0.108 0.735,0.165 2.705,0.628 5.405,1.281 8.101,1.953 0.819,0.204 1.635,0.42 2.453,0.628 1.529,0.389 3.058,0.771 4.583,1.174 0.374,0.098 0.745,0.203 1.119,0.303 0.781,0.208 1.558,0.422 2.337,0.633 1.848,0.501 3.693,1.012 5.536,1.535 0.846,0.239 1.693,0.48 2.539,0.724 1.984,0.573 3.964,1.159 5.942,1.757 0.602,0.182 1.204,0.357 1.806,0.541 2.548,0.78 5.092,1.58 7.63,2.4 0.604,0.196 1.206,0.399 1.808,0.596 1.96,0.642 3.917,1.294 5.87,1.96 0.838,0.285 1.674,0.575 2.51,0.865 1.807,0.626 3.609,1.264 5.41,1.912 0.773,0.278 1.547,0.553 2.319,0.835 2.517,0.92 5.031,1.854 7.535,2.815 2.084,0.801 4.154,1.612 6.21,2.433 0.695,0.278 1.38,0.564 2.071,0.844 1.356,0.549 2.715,1.097 4.058,1.655 0.808,0.336 1.605,0.68 2.409,1.019 1.212,0.512 2.427,1.021 3.629,1.541 0.855,0.369 1.699,0.747 2.548,1.12 1.137,0.499 2.278,0.995 3.405,1.501 0.871,0.392 1.732,0.79 2.597,1.185 1.091,0.498 2.185,0.993 3.267,1.497 0.876,0.408 1.743,0.823 2.613,1.236 1.056,0.5 2.116,0.999 3.163,1.505 0.875,0.423 1.741,0.852 2.61,1.279 1.028,0.506 2.058,1.009 3.078,1.52 0.871,0.437 1.732,0.88 2.598,1.32 0.777,0.396 1.563,0.787 2.335,1.187 0.201,0.103 0.396,0.211 0.596,0.314 1.423,0.739 2.831,1.486 4.236,2.236 0.584,0.311 1.174,0.619 1.755,0.932 1.974,1.065 3.932,2.14 5.87,3.226 0.342,0.192 0.676,0.387 1.016,0.579 1.595,0.9 3.182,1.804 4.752,2.718 0.67,0.39 1.33,0.786 1.995,1.178 1.231,0.726 2.458,1.453 3.673,2.187 0.739,0.446 1.47,0.897 2.203,1.347 1.129,0.692 2.253,1.386 3.367,2.085 0.753,0.472 1.5,0.947 2.246,1.422 1.087,0.692 2.166,1.388 3.241,2.087 0.736,0.48 1.472,0.96 2.203,1.443 1.084,0.717 2.158,1.439 3.228,2.163 0.693,0.468 1.387,0.935 2.074,1.406 1.142,0.784 2.271,1.575 3.397,2.367 0.472,0.331 0.954,0.657 1.423,0.99 0.131,0.093 0.258,0.188 0.389,0.281 0.757,0.54 1.503,1.085 2.253,1.628 0.814,0.588 1.629,1.175 2.434,1.768 0.741,0.547 1.472,1.099 2.207,1.649 0.794,0.596 1.592,1.19 2.378,1.789 0.729,0.556 1.445,1.116 2.166,1.675 0.777,0.602 1.557,1.203 2.325,1.81 0.712,0.562 1.413,1.129 2.117,1.694 0.761,0.61 1.523,1.219 2.275,1.833 0.697,0.571 1.385,1.145 2.075,1.718 0.74,0.615 1.481,1.229 2.213,1.848 0.687,0.581 1.364,1.167 2.044,1.751 0.719,0.618 1.438,1.235 2.147,1.857 0.672,0.588 1.333,1.18 1.997,1.772 0.702,0.625 1.405,1.249 2.097,1.877 0.656,0.596 1.304,1.196 1.952,1.794 0.488,0.451 0.985,0.897 1.467,1.348 0.195,0.183 0.385,0.368 0.579,0.552 0.609,0.573 1.21,1.149 1.813,1.725 0.68,0.651 1.361,1.302 2.033,1.956 0.596,0.582 1.186,1.167 1.776,1.752 0.662,0.656 1.322,1.311 1.975,1.97 0.582,0.589 1.158,1.18 1.734,1.771 0.641,0.659 1.279,1.319 1.912,1.981 0.57,0.597 1.133,1.196 1.696,1.795 0.622,0.664 1.24,1.328 1.853,1.994 0.554,0.602 1.103,1.206 1.649,1.81 0.605,0.67 1.205,1.34 1.8,2.012 0.536,0.606 1.069,1.213 1.598,1.821 0.589,0.677 1.173,1.357 1.753,2.037 0.518,0.608 1.034,1.218 1.544,1.828 0.572,0.684 1.137,1.368 1.699,2.054 0.503,0.614 1.004,1.229 1.499,1.844 0.222,0.276 0.45,0.549 0.669,0.824 0.308,0.385 0.602,0.774 0.905,1.16 0.548,0.695 1.093,1.391 1.631,2.089 0.503,0.652 0.999,1.305 1.493,1.96 0.528,0.7 1.053,1.401 1.573,2.103 0.484,0.656 0.963,1.314 1.438,1.972 0.51,0.705 1.017,1.412 1.517,2.12 0.466,0.66 0.926,1.32 1.383,1.982 0.492,0.71 0.98,1.422 1.46,2.135 0.45,0.665 0.893,1.33 1.332,1.997 0.471,0.713 0.938,1.427 1.399,2.142 0.432,0.671 0.859,1.342 1.282,2.014 0.451,0.717 0.897,1.434 1.338,2.152 0.414,0.676 0.824,1.352 1.23,2.029 0.43,0.718 0.855,1.437 1.275,2.156 0.396,0.681 0.791,1.363 1.18,2.045 0.41,0.722 0.814,1.446 1.215,2.169 0.206,0.372 0.421,0.741 0.624,1.114 0.147,0.268 0.283,0.539 0.428,0.808 0.555,1.026 1.096,2.055 1.63,3.084 0.277,0.536 0.56,1.07 0.831,1.607 0.637,1.252 1.254,2.508 1.86,3.766 0.149,0.307 0.304,0.613 0.451,0.92 0.743,1.563 1.462,3.129 2.158,4.699 0.191,0.429 0.371,0.861 0.558,1.291 0.498,1.146 0.991,2.292 1.464,3.442 0.236,0.57 0.462,1.142 0.692,1.713 0.411,1.024 0.813,2.049 1.205,3.076 0.227,0.598 0.453,1.197 0.674,1.796 0.381,1.035 0.752,2.071 1.114,3.108 0.197,0.565 0.397,1.13 0.588,1.696 0.407,1.203 0.795,2.408 1.174,3.613 0.123,0.391 0.254,0.781 0.375,1.172 0.488,1.59 0.952,3.183 1.392,4.778 0.018,0.064 0.039,0.127 0.057,0.191 0.351,1.282 0.687,2.565 1.01,3.849 0.054,0.218 0.102,0.437 0.156,0.655 0.281,1.141 0.553,2.281 0.808,3.424 0.106,0.47 0.203,0.94 0.303,1.411 0.194,0.895 0.383,1.789 0.561,2.685 0.104,0.53 0.203,1.061 0.302,1.591 0.16,0.843 0.313,1.685 0.457,2.528 0.095,0.547 0.186,1.093 0.274,1.639 0.137,0.841 0.264,1.682 0.387,2.523 0.078,0.536 0.156,1.071 0.228,1.606 0.12,0.887 0.229,1.774 0.334,2.661 0.057,0.484 0.119,0.967 0.172,1.452 0.119,1.088 0.222,2.176 0.318,3.264 0.025,0.28 0.056,0.558 0.078,0.838 0.114,1.366 0.209,2.734 0.287,4.101 0.02,0.374 0.032,0.748 0.051,1.122 0.049,0.995 0.094,1.991 0.123,2.986 0.016,0.503 0.023,1.007 0.034,1.51 0.017,0.87 0.031,1.739 0.034,2.609 0.002,0.54 -0.001,1.08 -0.005,1.62" /></g></g></g><g
       id="g24"><g
         clip-path="url(#clipPath30)"
         id="g26"><g
           id="g32"><g
             id="g34"><path
               id="path42"
               style="fill:url(#linearGradient40);stroke:none"
               d="m 370.05,545.584 c -0.389,-0.004 -0.777,-0.005 -1.167,-0.011 v 0 c -2.056,-0.03 -4.115,-0.086 -6.179,-0.162 v 0 c -0.437,-0.015 -0.875,-0.036 -1.314,-0.054 v 0 c -2,-0.084 -4.002,-0.185 -6.008,-0.312 v 0 c -0.149,-0.009 -0.298,-0.016 -0.447,-0.025 v 0 c -2.105,-0.137 -4.215,-0.305 -6.324,-0.49 v 0 c -0.468,-0.042 -0.933,-0.083 -1.4,-0.125 v 0 c -2.092,-0.195 -4.184,-0.408 -6.279,-0.65 v 0 c -0.278,-0.033 -0.556,-0.07 -0.834,-0.102 v 0 c -1.93,-0.229 -3.86,-0.481 -5.789,-0.75 v 0 c -0.26,-0.036 -0.521,-0.064 -0.782,-0.101 v 0 c -0.217,-0.031 -0.435,-0.066 -0.653,-0.098 v 0 c -0.553,-0.081 -1.105,-0.165 -1.658,-0.249 v 0 c -0.867,-0.131 -1.735,-0.264 -2.603,-0.404 v 0 c -0.576,-0.093 -1.151,-0.188 -1.727,-0.284 v 0 c -0.853,-0.142 -1.704,-0.289 -2.556,-0.44 v 0 c -0.574,-0.101 -1.147,-0.204 -1.721,-0.309 v 0 c -0.865,-0.159 -1.73,-0.323 -2.594,-0.49 v 0 c -0.555,-0.107 -1.11,-0.213 -1.664,-0.324 v 0 c -0.927,-0.184 -1.853,-0.378 -2.779,-0.572 v 0 c -0.485,-0.103 -0.969,-0.201 -1.452,-0.305 v 0 c -1.271,-0.275 -2.541,-0.558 -3.809,-0.851 v 0 c -0.134,-0.031 -0.269,-0.059 -0.403,-0.091 v 0 c -1.404,-0.325 -2.806,-0.665 -4.205,-1.013 v 0 c -0.439,-0.11 -0.877,-0.226 -1.316,-0.337 v 0 c -0.783,-0.199 -1.567,-0.395 -2.348,-0.602 v 0 c -0.121,-0.031 -0.241,-0.068 -0.361,-0.101 v 0 c -2.005,-0.531 -4.005,-1.089 -6,-1.668 v 0 c -0.437,-0.127 -0.873,-0.258 -1.31,-0.387 v 0 c -1.833,-0.543 -3.663,-1.103 -5.486,-1.685 v 0 c -0.247,-0.079 -0.495,-0.154 -0.743,-0.234 v 0 c -1.991,-0.643 -3.975,-1.315 -5.952,-2.007 v 0 c -0.462,-0.161 -0.922,-0.324 -1.383,-0.488 v 0 c -2.005,-0.713 -4.004,-1.442 -5.993,-2.205 v 0 c -2.081,-0.799 -4.133,-1.621 -6.159,-2.46 v 0 c -0.075,-0.031 -0.15,-0.061 -0.223,-0.091 v 0 c -1.965,-0.817 -3.899,-1.653 -5.812,-2.506 v 0 c -0.13,-0.058 -0.264,-0.116 -0.395,-0.174 v 0 c -1.864,-0.837 -3.7,-1.691 -5.511,-2.561 v 0 c -0.169,-0.08 -0.339,-0.159 -0.506,-0.24 v 0 c -1.776,-0.857 -3.524,-1.732 -5.251,-2.621 v 0 c -0.123,-0.063 -0.252,-0.123 -0.374,-0.187 v 0 c -0.104,-0.053 -0.205,-0.109 -0.309,-0.162 v 0 c -0.744,-0.387 -1.482,-0.779 -2.219,-1.172 v 0 c -0.296,-0.158 -0.599,-0.315 -0.895,-0.474 v 0 c -1.027,-0.555 -2.046,-1.115 -3.056,-1.681 v 0 c -0.176,-0.099 -0.348,-0.199 -0.523,-0.298 v 0 c -0.831,-0.468 -1.657,-0.939 -2.475,-1.415 v 0 c -0.348,-0.203 -0.691,-0.409 -1.037,-0.613 v 0 c -0.641,-0.377 -1.28,-0.756 -1.912,-1.138 v 0 c -0.383,-0.231 -0.761,-0.465 -1.141,-0.698 v 0 c -0.588,-0.36 -1.174,-0.722 -1.755,-1.086 v 0 c -0.391,-0.246 -0.78,-0.493 -1.168,-0.74 v 0 c -0.565,-0.359 -1.126,-0.721 -1.684,-1.085 v 0 c -0.383,-0.249 -0.766,-0.499 -1.147,-0.751 v 0 c -0.562,-0.372 -1.12,-0.746 -1.675,-1.122 v 0 c -0.362,-0.244 -0.726,-0.488 -1.083,-0.734 v 0 c -0.59,-0.404 -1.172,-0.812 -1.751,-1.22 v 0 c -0.251,-0.176 -0.506,-0.35 -0.756,-0.526 v 0 c -0.044,-0.032 -0.085,-0.063 -0.127,-0.094 v 0 c -1.491,-1.06 -2.95,-2.135 -4.385,-3.222 v 0 c -0.141,-0.106 -0.283,-0.21 -0.422,-0.316 v 0 c -1.417,-1.08 -2.804,-2.172 -4.166,-3.276 v 0 c -0.146,-0.118 -0.293,-0.236 -0.439,-0.354 v 0 c -1.344,-1.097 -2.659,-2.207 -3.949,-3.327 v 0 c -0.15,-0.13 -0.301,-0.26 -0.452,-0.39 v 0 c -1.274,-1.114 -2.519,-2.24 -3.738,-3.376 v 0 c -0.092,-0.086 -0.19,-0.168 -0.282,-0.254 v 0 c -0.06,-0.056 -0.116,-0.114 -0.175,-0.17 v 0 c -1.17,-1.098 -2.311,-2.205 -3.429,-3.32 v 0 c -0.162,-0.162 -0.324,-0.323 -0.485,-0.485 v 0 c -1.101,-1.109 -2.175,-2.227 -3.225,-3.353 v 0 c -0.16,-0.172 -0.321,-0.343 -0.48,-0.515 v 0 c -1.038,-1.124 -2.049,-2.257 -3.037,-3.397 v 0 c -0.152,-0.176 -0.304,-0.353 -0.455,-0.529 v 0 c -0.979,-1.144 -1.934,-2.295 -2.862,-3.453 v 0 c -0.063,-0.079 -0.132,-0.156 -0.194,-0.234 v 0 c -0.16,-0.2 -0.312,-0.403 -0.47,-0.602 v 0 c -0.285,-0.362 -0.568,-0.724 -0.848,-1.087 v 0 c -0.26,-0.338 -0.519,-0.678 -0.775,-1.019 v 0 c -0.274,-0.362 -0.547,-0.726 -0.815,-1.09 v 0 c -0.254,-0.344 -0.505,-0.688 -0.754,-1.034 v 0 c -0.263,-0.363 -0.525,-0.728 -0.783,-1.092 v 0 c -0.243,-0.347 -0.486,-0.693 -0.726,-1.04 v 0 c -0.254,-0.367 -0.505,-0.734 -0.753,-1.102 v 0 c -0.236,-0.348 -0.468,-0.696 -0.698,-1.044 v 0 c -0.243,-0.369 -0.483,-0.738 -0.721,-1.107 v 0 c -0.226,-0.351 -0.451,-0.704 -0.673,-1.056 v 0 c -0.233,-0.37 -0.463,-0.74 -0.69,-1.111 v 0 c -0.217,-0.352 -0.431,-0.706 -0.643,-1.06 v 0 c -0.224,-0.373 -0.444,-0.747 -0.662,-1.121 v 0 c -0.207,-0.353 -0.411,-0.708 -0.613,-1.062 v 0 c -0.213,-0.375 -0.424,-0.751 -0.633,-1.127 v 0 c -0.107,-0.194 -0.219,-0.387 -0.325,-0.581 v 0 c -0.077,-0.14 -0.147,-0.281 -0.222,-0.422 v 0 c -0.289,-0.531 -0.57,-1.067 -0.848,-1.602 v 0 c -0.145,-0.278 -0.29,-0.556 -0.433,-0.835 v 0 c -0.331,-0.652 -0.653,-1.307 -0.968,-1.963 v 0 c -0.076,-0.158 -0.157,-0.315 -0.231,-0.473 v 0 c -0.387,-0.812 -0.761,-1.626 -1.123,-2.442 v 0 c -0.1,-0.227 -0.196,-0.455 -0.295,-0.683 v 0 c -0.257,-0.591 -0.511,-1.183 -0.757,-1.777 v 0 c -0.122,-0.298 -0.241,-0.597 -0.361,-0.896 v 0 c -0.213,-0.532 -0.423,-1.065 -0.626,-1.598 v 0 c -0.118,-0.31 -0.234,-0.62 -0.348,-0.93 v 0 c -0.201,-0.54 -0.393,-1.082 -0.583,-1.623 v 0 c -0.101,-0.291 -0.205,-0.584 -0.303,-0.876 v 0 c -0.213,-0.629 -0.416,-1.26 -0.615,-1.892 v 0 c -0.062,-0.198 -0.129,-0.396 -0.19,-0.596 v 0 c -0.255,-0.828 -0.497,-1.659 -0.727,-2.489 v 0 c -0.008,-0.033 -0.018,-0.065 -0.028,-0.097 v 0 c -0.018,-0.07 -0.033,-0.139 -0.052,-0.208 v 0 c -0.31,-1.139 -0.595,-2.28 -0.858,-3.422 v 0 c -0.032,-0.139 -0.067,-0.276 -0.098,-0.415 v 0 c -0.26,-1.15 -0.49,-2.302 -0.701,-3.454 v 0 c -0.038,-0.214 -0.078,-0.426 -0.116,-0.64 v 0 c -0.199,-1.137 -0.376,-2.274 -0.527,-3.414 v 0 c -0.026,-0.195 -0.049,-0.391 -0.074,-0.587 v 0 c -0.148,-1.18 -0.28,-2.362 -0.377,-3.545 v 0 c -0.005,-0.055 -0.007,-0.109 -0.012,-0.164 v 0 c -0.094,-1.163 -0.158,-2.326 -0.202,-3.49 v 0 c -0.006,-0.164 -0.015,-0.328 -0.02,-0.493 v 0 c -0.037,-1.147 -0.045,-2.295 -0.031,-3.441 v 0 c 0.002,-0.217 0.005,-0.434 0.009,-0.651 v 0 c 0.022,-1.142 0.067,-2.283 0.138,-3.423 v 0 c 0.011,-0.182 0.027,-0.364 0.04,-0.545 v 0 c 0.083,-1.196 0.185,-2.391 0.323,-3.583 v 0 l 21.648,-187.536 c -0.136,1.193 -0.24,2.388 -0.322,3.583 v 0 c -0.013,0.182 -0.029,0.363 -0.04,0.545 v 0 c -0.071,1.141 -0.116,2.281 -0.138,3.422 v 0 c -0.004,0.218 -0.007,0.435 -0.01,0.652 v 0 c -0.013,1.146 -0.004,2.293 0.032,3.44 v 0 c 0.005,0.165 0.013,0.33 0.02,0.495 v 0 c 0.044,1.162 0.108,2.326 0.203,3.489 v 0 c 0.003,0.055 0.006,0.11 0.011,0.165 v 0 c 0.098,1.181 0.227,2.364 0.377,3.545 v 0 c 0.025,0.196 0.046,0.391 0.074,0.587 v 0 c 0.151,1.137 0.328,2.275 0.528,3.411 v 0 c 0.037,0.215 0.075,0.43 0.115,0.644 v 0 c 0.211,1.151 0.441,2.301 0.7,3.45 v 0 c 0.033,0.14 0.068,0.28 0.1,0.421 v 0 c 0.262,1.138 0.546,2.277 0.856,3.413 v 0 c 0.029,0.103 0.054,0.208 0.082,0.312 v 0 c 0.229,0.829 0.471,1.658 0.724,2.486 v 0 c 0.063,0.202 0.132,0.406 0.196,0.609 v 0 c 0.198,0.626 0.398,1.252 0.609,1.877 v 0 c 0.1,0.296 0.205,0.59 0.308,0.885 v 0 c 0.188,0.538 0.38,1.076 0.578,1.613 v 0 c 0.115,0.312 0.233,0.624 0.351,0.936 v 0 c 0.203,0.533 0.412,1.065 0.625,1.596 v 0 c 0.12,0.298 0.238,0.597 0.362,0.895 v 0 c 0.246,0.594 0.499,1.186 0.756,1.778 v 0 c 0.099,0.228 0.194,0.456 0.295,0.684 v 0 c 0.362,0.814 0.735,1.628 1.121,2.439 v 0 c 0.077,0.162 0.159,0.324 0.238,0.486 v 0 c 0.313,0.652 0.634,1.303 0.963,1.952 v 0 c 0.142,0.28 0.29,0.559 0.435,0.839 v 0 c 0.277,0.532 0.557,1.066 0.844,1.597 v 0 c 0.182,0.337 0.365,0.671 0.551,1.008 v 0 c 0.207,0.373 0.417,0.747 0.629,1.12 v 0 c 0.202,0.356 0.409,0.712 0.616,1.068 v 0 c 0.217,0.372 0.437,0.744 0.659,1.116 v 0 c 0.213,0.354 0.429,0.709 0.646,1.064 v 0 c 0.226,0.369 0.456,0.738 0.687,1.108 v 0 c 0.223,0.352 0.447,0.705 0.675,1.058 v 0 c 0.238,0.369 0.478,0.737 0.721,1.104 v 0 c 0.23,0.349 0.462,0.697 0.697,1.044 v 0 c 0.248,0.369 0.501,0.737 0.756,1.105 v 0 c 0.239,0.347 0.479,0.694 0.724,1.039 v 0 c 0.258,0.364 0.519,0.727 0.781,1.091 v 0 c 0.25,0.346 0.502,0.692 0.758,1.038 v 0 c 0.266,0.362 0.536,0.723 0.809,1.084 v 0 c 0.259,0.341 0.518,0.683 0.78,1.023 v 0 c 0.28,0.362 0.562,0.724 0.846,1.084 v 0 c 0.22,0.279 0.441,0.559 0.665,0.837 v 0 c 0.928,1.158 1.882,2.309 2.861,3.451 v 0 c 0.152,0.179 0.305,0.356 0.459,0.533 v 0 c 0.985,1.14 1.997,2.271 3.034,3.395 v 0 c 0.159,0.173 0.32,0.345 0.481,0.518 v 0 c 1.05,1.125 2.123,2.242 3.224,3.351 v 0 c 0.16,0.161 0.323,0.322 0.483,0.483 v 0 c 1.12,1.116 2.26,2.224 3.43,3.321 v 0 c 0.151,0.143 0.304,0.283 0.457,0.424 v 0 c 1.22,1.136 2.465,2.262 3.739,3.376 v 0 c 0.149,0.132 0.302,0.26 0.452,0.391 v 0 c 1.29,1.119 2.604,2.23 3.949,3.326 v 0 c 0.145,0.119 0.293,0.237 0.439,0.355 v 0 c 1.363,1.103 2.75,2.197 4.167,3.276 v 0 c 0.139,0.106 0.279,0.21 0.417,0.314 v 0 c 1.436,1.087 2.898,2.164 4.39,3.225 v 0 c 0.289,0.206 0.581,0.408 0.873,0.613 v 0 c 0.584,0.41 1.169,0.819 1.76,1.226 v 0 c 0.358,0.245 0.72,0.489 1.081,0.733 v 0 c 0.556,0.375 1.114,0.75 1.676,1.122 v 0 c 0.382,0.252 0.764,0.502 1.148,0.753 v 0 c 0.558,0.363 1.118,0.724 1.683,1.083 v 0 c 0.388,0.248 0.779,0.496 1.171,0.742 v 0 c 0.579,0.363 1.163,0.724 1.749,1.083 v 0 c 0.381,0.234 0.762,0.468 1.145,0.7 v 0 c 0.633,0.382 1.273,0.761 1.914,1.14 v 0 c 0.345,0.202 0.687,0.408 1.034,0.609 v 0 c 0.818,0.477 1.646,0.949 2.478,1.419 v 0 c 0.175,0.098 0.346,0.199 0.52,0.296 v 0 c 1.01,0.566 2.03,1.126 3.057,1.68 v 0 c 0.298,0.16 0.601,0.318 0.9,0.477 v 0 c 0.734,0.392 1.469,0.783 2.213,1.168 v 0 c 0.227,0.118 0.456,0.234 0.684,0.351 v 0 c 1.727,0.889 3.476,1.764 5.253,2.622 v 0 c 0.165,0.08 0.333,0.158 0.499,0.237 v 0 c 1.814,0.871 3.652,1.727 5.518,2.563 v 0 c 0.129,0.058 0.261,0.115 0.391,0.173 v 0 c 1.912,0.853 3.848,1.69 5.813,2.507 v 0 c 0.075,0.031 0.149,0.059 0.223,0.09 v 0 c 2.026,0.84 4.078,1.661 6.16,2.461 v 0 c 1.988,0.763 3.989,1.492 5.992,2.205 v 0 c 0.461,0.163 0.923,0.327 1.383,0.488 v 0 c 1.979,0.692 3.962,1.365 5.954,2.007 v 0 c 0.247,0.08 0.493,0.154 0.74,0.233 v 0 c 1.824,0.583 3.656,1.143 5.49,1.686 v 0 c 0.435,0.129 0.871,0.259 1.307,0.387 v 0 c 1.996,0.579 3.996,1.137 6.002,1.669 v 0 c 0.901,0.239 1.806,0.472 2.71,0.702 v 0 c 0.438,0.111 0.875,0.227 1.313,0.336 v 0 c 1.4,0.349 2.802,0.688 4.206,1.015 v 0 c 0.133,0.03 0.269,0.059 0.403,0.09 v 0 c 1.268,0.292 2.538,0.577 3.808,0.851 v 0 c 0.485,0.105 0.969,0.203 1.452,0.304 v 0 c 0.927,0.195 1.852,0.388 2.78,0.574 v 0 c 0.555,0.11 1.111,0.216 1.665,0.323 v 0 c 0.863,0.167 1.727,0.331 2.591,0.489 v 0 c 0.575,0.106 1.15,0.208 1.724,0.31 v 0 c 0.851,0.15 1.703,0.297 2.554,0.439 v 0 c 0.577,0.097 1.153,0.192 1.729,0.285 v 0 c 0.867,0.139 1.734,0.273 2.602,0.404 v 0 c 0.552,0.084 1.106,0.169 1.659,0.249 v 0 c 0.477,0.069 0.956,0.132 1.433,0.199 v 0 c 1.93,0.27 3.86,0.521 5.79,0.749 v 0 c 0.278,0.033 0.556,0.071 0.834,0.102 v 0 c 2.095,0.243 4.188,0.456 6.28,0.65 v 0 c 0.466,0.043 0.932,0.085 1.398,0.125 v 0 c 2.111,0.185 4.218,0.354 6.324,0.491 v 0 c 0.15,0.009 0.299,0.016 0.448,0.026 v 0 c 2.006,0.127 4.007,0.227 6.007,0.311 v 0 c 0.439,0.018 0.878,0.038 1.315,0.054 v 0 c 2.063,0.077 4.123,0.132 6.179,0.162 v 0 c 0.389,0.005 0.778,0.006 1.168,0.011 v 0 c 1.895,0.02 3.788,0.021 5.676,0.003 v 0 c 0.293,-0.003 0.588,-0.002 0.881,-0.006 v 0 c 2.055,-0.028 4.102,-0.083 6.144,-0.156 v 0 c 0.458,-0.016 0.913,-0.035 1.369,-0.054 v 0 c 2.065,-0.084 4.126,-0.184 6.176,-0.315 v 0 c 1.38,-0.089 2.754,-0.188 4.126,-0.297 v 0 c 0.337,-0.026 0.672,-0.059 1.01,-0.088 v 0 c 1.038,-0.086 2.078,-0.176 3.112,-0.275 v 0 c 0.507,-0.048 1.01,-0.103 1.516,-0.154 v 0 c 0.863,-0.087 1.725,-0.176 2.584,-0.272 v 0 c 0.558,-0.062 1.113,-0.129 1.668,-0.195 v 0 c 0.805,-0.096 1.612,-0.192 2.414,-0.294 v 0 c 0.575,-0.074 1.146,-0.152 1.72,-0.229 v 0 c 0.781,-0.104 1.561,-0.213 2.339,-0.326 v 0 c 0.578,-0.083 1.155,-0.168 1.732,-0.256 v 0 c 0.773,-0.117 1.546,-0.239 2.317,-0.363 v 0 c 0.568,-0.092 1.135,-0.184 1.7,-0.279 v 0 c 0.782,-0.131 1.561,-0.268 2.341,-0.408 v 0 c 0.548,-0.097 1.096,-0.194 1.642,-0.296 v 0 c 0.463,-0.085 0.923,-0.177 1.385,-0.265 v 0 c 1.671,-0.321 3.333,-0.657 4.985,-1.01 v 0 c 0.294,-0.063 0.591,-0.122 0.884,-0.186 v 0 c 1.842,-0.402 3.668,-0.828 5.482,-1.269 v 0 c 0.42,-0.103 0.836,-0.207 1.255,-0.312 v 0 c 1.723,-0.43 3.437,-0.875 5.136,-1.343 v 0 c 0.136,-0.037 0.274,-0.072 0.409,-0.109 v 0 c 1.798,-0.499 3.577,-1.024 5.345,-1.565 v 0 c 0.427,-0.129 0.853,-0.261 1.278,-0.393 v 0 c 1.603,-0.501 3.197,-1.014 4.776,-1.549 v 0 c 0.086,-0.029 0.175,-0.057 0.26,-0.086 v 0 c 1.65,-0.562 3.279,-1.148 4.898,-1.746 v 0 c 0.418,-0.155 0.835,-0.312 1.251,-0.469 v 0 c 1.451,-0.547 2.891,-1.108 4.316,-1.685 v 0 c 0.18,-0.074 0.364,-0.143 0.543,-0.217 v 0 c 1.572,-0.642 3.123,-1.308 4.662,-1.988 v 0 c 0.383,-0.168 0.763,-0.339 1.143,-0.511 v 0 c 1.434,-0.644 2.854,-1.302 4.256,-1.977 v 0 c 0.174,-0.084 0.351,-0.165 0.525,-0.249 v 0 c 1.532,-0.744 3.039,-1.513 4.533,-2.295 v 0 c 0.364,-0.19 0.726,-0.383 1.087,-0.576 v 0 c 1.398,-0.745 2.781,-1.503 4.144,-2.281 v 0 c 0.112,-0.064 0.227,-0.125 0.337,-0.189 v 0 c 1.448,-0.833 2.868,-1.689 4.273,-2.557 v 0 c 0.486,-0.302 0.971,-0.604 1.452,-0.909 v 0 c 0.401,-0.253 0.8,-0.507 1.196,-0.764 v 0 c 0.602,-0.39 1.196,-0.785 1.789,-1.181 v 0 c 0.369,-0.248 0.741,-0.493 1.108,-0.743 v 0 c 0.644,-0.441 1.279,-0.887 1.913,-1.335 v 0 c 0.303,-0.214 0.609,-0.425 0.91,-0.64 v 0 c 0.926,-0.668 1.844,-1.342 2.749,-2.028 v 0 c 0.027,-0.021 0.055,-0.043 0.083,-0.065 v 0 c 0.874,-0.663 1.737,-1.336 2.589,-2.017 v 0 c 0.292,-0.233 0.577,-0.473 0.866,-0.708 v 0 c 0.584,-0.474 1.167,-0.95 1.739,-1.433 v 0 c 0.333,-0.28 0.66,-0.566 0.989,-0.849 v 0 c 0.52,-0.448 1.036,-0.896 1.546,-1.349 v 0 c 0.341,-0.304 0.676,-0.609 1.013,-0.915 v 0 c 0.412,-0.375 0.82,-0.754 1.226,-1.134 v 0 c 0.88,-0.824 1.748,-1.658 2.597,-2.504 v 0 c 0.168,-0.168 0.34,-0.331 0.508,-0.498 v 0 c 0.996,-1.004 1.965,-2.024 2.917,-3.057 v 0 c 0.252,-0.272 0.496,-0.55 0.745,-0.825 v 0 c 0.724,-0.802 1.435,-1.612 2.132,-2.431 v 0 c 0.263,-0.308 0.526,-0.615 0.784,-0.926 v 0 c 0.895,-1.077 1.776,-2.163 2.623,-3.27 v 0 c 10.317,-13.461 16.134,-27.881 17.824,-42.527 v 0 l -21.649,187.535 c -1.69,14.647 -7.507,29.067 -17.823,42.529 v 0 c -0.848,1.105 -1.729,2.192 -2.624,3.269 v 0 c -0.258,0.31 -0.521,0.617 -0.784,0.926 v 0 c -0.697,0.82 -1.408,1.63 -2.133,2.432 v 0 c -0.247,0.275 -0.493,0.552 -0.744,0.825 v 0 c -0.952,1.032 -1.922,2.053 -2.919,3.057 v 0 c -0.164,0.166 -0.336,0.328 -0.504,0.494 v 0 c -0.85,0.847 -1.718,1.683 -2.599,2.508 v 0 c -0.148,0.138 -0.288,0.283 -0.437,0.421 v 0 c -0.259,0.24 -0.527,0.474 -0.79,0.712 v 0 c -0.335,0.306 -0.672,0.612 -1.011,0.914 v 0 c -0.51,0.455 -1.028,0.903 -1.546,1.35 v 0 c -0.33,0.284 -0.656,0.568 -0.989,0.849 v 0 c -0.574,0.483 -1.156,0.959 -1.739,1.433 v 0 c -0.29,0.236 -0.575,0.475 -0.867,0.708 v 0 c -0.851,0.681 -1.715,1.354 -2.589,2.018 v 0 c -0.028,0.022 -0.055,0.043 -0.083,0.065 v 0 c -0.905,0.685 -1.822,1.359 -2.748,2.026 v 0 c -0.303,0.218 -0.613,0.429 -0.917,0.645 v 0 c -0.632,0.446 -1.264,0.892 -1.906,1.33 v 0 c -0.368,0.251 -0.742,0.498 -1.112,0.746 v 0 c -0.593,0.396 -1.184,0.79 -1.783,1.178 v 0 c -0.398,0.258 -0.799,0.513 -1.201,0.767 v 0 c -0.319,0.202 -0.631,0.408 -0.951,0.608 v 0 c -0.163,0.101 -0.334,0.197 -0.498,0.298 v 0 c -1.406,0.869 -2.825,1.726 -4.272,2.557 v 0 c -0.113,0.065 -0.227,0.126 -0.34,0.19 v 0 c -1.361,0.778 -2.744,1.537 -4.141,2.281 v 0 c -0.362,0.193 -0.725,0.386 -1.089,0.577 v 0 c -1.493,0.782 -3.001,1.55 -4.532,2.294 v 0 c -0.175,0.084 -0.354,0.165 -0.528,0.25 v 0 c -1.401,0.676 -2.821,1.333 -4.254,1.976 v 0 c -0.213,0.097 -0.421,0.2 -0.635,0.296 v 0 c -0.167,0.074 -0.339,0.143 -0.507,0.217 v 0 c -1.539,0.678 -3.09,1.343 -4.663,1.986 v 0 c -0.179,0.075 -0.364,0.145 -0.546,0.218 v 0 c -1.424,0.577 -2.864,1.136 -4.313,1.684 v 0 c -0.416,0.158 -0.833,0.315 -1.251,0.469 v 0 c -1.62,0.599 -3.249,1.185 -4.896,1.746 v 0 c -0.088,0.029 -0.176,0.057 -0.262,0.086 v 0 c -1.578,0.534 -3.173,1.048 -4.776,1.549 v 0 c -0.219,0.068 -0.433,0.144 -0.652,0.211 v 0 c -0.207,0.064 -0.42,0.121 -0.627,0.184 v 0 c -1.768,0.54 -3.547,1.065 -5.344,1.563 v 0 c -0.136,0.038 -0.274,0.072 -0.408,0.11 v 0 c -1.7,0.467 -3.413,0.912 -5.137,1.343 v 0 c -0.418,0.103 -0.835,0.209 -1.254,0.311 v 0 c -1.816,0.442 -3.642,0.868 -5.482,1.268 v 0 c -0.293,0.064 -0.59,0.125 -0.885,0.187 v 0 c -1.652,0.353 -3.315,0.689 -4.986,1.009 v 0 c -0.25,0.049 -0.496,0.105 -0.746,0.152 v 0 c -0.212,0.04 -0.424,0.075 -0.636,0.115 v 0 c -0.549,0.101 -1.097,0.199 -1.646,0.296 v 0 c -0.778,0.138 -1.557,0.276 -2.339,0.408 v 0 c -0.565,0.095 -1.131,0.187 -1.699,0.279 v 0 c -0.771,0.124 -1.543,0.245 -2.319,0.363 v 0 c -0.576,0.087 -1.152,0.173 -1.731,0.256 v 0 c -0.777,0.112 -1.557,0.22 -2.337,0.326 v 0 c -0.574,0.077 -1.147,0.154 -1.723,0.228 v 0 c -0.802,0.103 -1.606,0.198 -2.413,0.295 v 0 c -0.555,0.064 -1.11,0.133 -1.667,0.195 v 0 c -0.86,0.095 -1.722,0.183 -2.584,0.271 v 0 c -0.506,0.052 -1.01,0.107 -1.517,0.154 v 0 c -1.035,0.1 -2.073,0.189 -3.113,0.276 v 0 c -0.337,0.028 -0.672,0.06 -1.009,0.087 v 0 c -1.345,0.107 -2.695,0.205 -4.049,0.293 v 0 c -0.025,10e-4 -0.05,0.002 -0.076,0.003 v 0 c -2.051,0.132 -4.112,0.232 -6.178,0.317 v 0 c -0.455,0.018 -0.91,0.037 -1.367,0.053 v 0 c -2.043,0.074 -4.09,0.129 -6.144,0.156 v 0 c -0.295,0.003 -0.588,0.003 -0.882,0.006 v 0 c -0.88,0.009 -1.76,0.013 -2.642,0.013 v 0 c -1.01,0 -2.022,-0.005 -3.035,-0.016" /></g></g></g></g><g
       id="g44"><g
         clip-path="url(#clipPath50)"
         id="g46"><g
           transform="translate(435.0638,318.5629)"
           id="g52"><path
             id="path54"
             style="fill:#292929;fill-opacity:1;fill-rule:nonzero;stroke:none"
             d="M 0,0 C 91.799,35.238 130.345,110.612 86.092,168.354 41.838,226.095 -68.454,244.333 -160.252,209.095 -252.054,173.855 -290.599,98.484 -246.345,40.743 -202.092,-16.998 -91.802,-35.239 0,0 m -234.217,305.603 c 176.531,67.764 388.634,32.684 473.736,-78.354 85.099,-111.037 10.977,-255.993 -165.554,-323.757 -176.543,-67.768 -388.646,-32.684 -473.745,78.353 -85.102,111.039 -10.98,255.989 165.563,323.758" /></g></g></g><g
       id="g56"><g
         clip-path="url(#clipPath62)"
         id="g58"><g
           id="g64"><g
             id="g66"><path
               id="path74"
               style="fill:url(#linearGradient72);stroke:none"
               d="m 703.938,403.494 c -3.79,-13.78 -9.368,-27.423 -16.649,-40.761 v 0 c -6.206,-11.368 -13.649,-22.515 -22.276,-33.337 v 0 c -8.152,-10.228 -17.36,-20.166 -27.582,-29.728 v 0 c -10.467,-9.788 -21.994,-19.184 -34.537,-28.091 v 0 C 588.455,261.323 572.673,251.716 555.62,242.896 v 0 c -14.613,-7.556 -30.159,-14.533 -46.592,-20.841 v 0 c -17.167,-6.59 -34.67,-12.207 -52.361,-16.877 v 0 c -20.018,-5.283 -40.273,-9.353 -60.553,-12.246 v 0 c -36.796,-5.249 -73.667,-6.619 -109.319,-4.325 v 0 c -20.202,1.298 -40.013,3.774 -59.197,7.388 v 0 c -16.453,3.098 -32.445,7.034 -47.828,11.782 v 0 c -14.609,4.51 -28.669,9.752 -42.053,15.706 v 0 c -13.77,6.125 -26.823,13.005 -39.019,20.614 v 0 c -14.202,8.861 -27.245,18.712 -38.908,29.517 v 0 c -9.03,8.365 -17.232,17.302 -24.506,26.794 v 0 C 15.443,326.295 4.257,354.026 1.005,382.192 v 0 l 21.65,-187.536 c 3.251,-28.167 14.437,-55.898 34.277,-81.784 v 0 C 64.206,103.379 72.41,94.443 81.437,86.079 v 0 c 11.664,-10.806 24.707,-20.657 38.91,-29.518 v 0 c 12.196,-7.61 25.249,-14.489 39.02,-20.615 v 0 C 172.75,29.993 186.809,24.75 201.42,20.241 v 0 c 15.382,-4.748 31.374,-8.683 47.826,-11.783 v 0 C 268.431,4.845 288.241,2.369 308.444,1.07 v 0 c 35.651,-2.293 72.522,-0.922 109.319,4.325 v 0 c 20.28,2.893 40.536,6.963 60.554,12.248 v 0 c 17.69,4.669 35.193,10.286 52.36,16.876 v 0 c 16.434,6.308 31.979,13.284 46.592,20.841 v 0 c 17.052,8.819 32.836,18.426 47.274,28.681 v 0 c 12.543,8.907 24.07,18.303 34.536,28.092 v 0 c 10.222,9.561 19.431,19.498 27.582,29.726 v 0 c 8.628,10.823 16.071,21.97 22.276,33.338 v 0 c 7.281,13.339 12.859,26.981 16.65,40.761 v 0 c 5.515,20.057 7.244,40.407 4.921,60.534 v 0 l -21.649,187.536 c 2.324,-20.126 0.596,-40.476 -4.921,-60.534" /></g></g></g></g></g></svg>