<svg fill="#ff5722" xmlns="http://www.w3.org/2000/svg" viewBox="0 0 52.17 49"><g data-name="Слой 2"><path d="M38.54 40.77h-3v-2.65a1.46 1.46 0 0 0-1.46-1.46H18.14a1.46 1.46 0 0 0-1.47 1.46v2.65h-3a1.47 1.47 0 0 0-1.46 1.47v5.29A1.47 1.47 0 0 0 13.64 49h24.9A1.47 1.47 0 0 0 40 47.53v-5.29a1.47 1.47 0 0 0-1.47-1.47zM45.84 0H6.34A6.34 6.34 0 0 0 0 6.34a11.59 11.59 0 0 0 11.59 11.59h.12a18.61 18.61 0 0 0 9.67 7.33v9.63h9.42v-9.62a18.69 18.69 0 0 0 9.66-7.33h.12A11.59 11.59 0 0 0 52.17 6.35 6.32 6.32 0 0 0 45.84 0zm-40 12.05a8.06 8.06 0 0 1-2.32-5.71 2.83 2.83 0 0 1 2.82-2.82h1.14v.42A25.19 25.19 0 0 0 9.6 14.17a8.19 8.19 0 0 1-3.72-2.12zm40.42 0a8.11 8.11 0 0 1-3.71 2.12 25.35 25.35 0 0 0 2.16-10.23v-.42h1.13a2.83 2.83 0 0 1 2.83 2.82 8 8 0 0 1-2.37 5.71z" data-name="Слой 1"/></g></svg>