<svg fill="#00bcd4" xmlns="http://www.w3.org/2000/svg" viewBox="0 0 50 50"><g data-name="Слой 2"><g data-name="Слой 1"><path d="M9.38 0h6.25v6.25H9.38zm25 0h6.25v6.25h-6.25z"/><path d="M46.88 3.12h-3.13v3.13a3.13 3.13 0 0 1-3.13 3.13h-6.24a3.13 3.13 0 0 1-3.13-3.13V3.12h-12.5v3.13a3.13 3.13 0 0 1-3.13 3.13H9.38a3.13 3.13 0 0 1-3.13-3.13V3.12H3.12A3.13 3.13 0 0 0 0 6.25v40.63A3.12 3.12 0 0 0 3.12 50h43.76A3.12 3.12 0 0 0 50 46.88V6.25a3.13 3.13 0 0 0-3.12-3.13zm-25 34.38l-9.38-9.38 4.69-4.68 4.69 4.68 10.93-10.93 4.69 4.69z"/></g></g></svg>