<!-- Generated by IcoMoon.io -->
<svg version="1.1" xmlns="http://www.w3.org/2000/svg" width="1018" height="1024" viewBox="0 0 1018 1024">
<title></title>
<g id="icomoon-ignore">
</g>
<path fill="#004b56" d="M811.617 124.539c0.038 0.020 0.078 0.038 0.116 0.059 0.131 0.068 0.257 0.139 0.388 0.206-0.167-0.087-0.335-0.177-0.504-0.264zM804.598 121.013c0.216 0.103 0.432 0.206 0.647 0.312 0.131 0.064 0.26 0.131 0.389 0.196-0.343-0.17-0.69-0.339-1.036-0.508zM771.771 106.948c0.12 0.044 0.242 0.087 0.362 0.131 0.095 0.035 0.189 0.075 0.285 0.11-0.215-0.080-0.43-0.161-0.647-0.241zM754.579 690.978c1.092-1.484 2.173-2.979 3.239-4.486 0.003-0.005 0.007-0.010 0.011-0.015-1.070 1.511-2.154 3.011-3.25 4.501zM745.47 98.352c0.004 0 0.008 0.001 0.012 0.003 0.001 0 0.004 0.001 0.004 0.001zM733.056 716.931c1.655-1.774 3.284-3.572 4.898-5.39v-0.001c-1.613 1.819-3.243 3.617-4.898 5.391zM715.814 733.889c0-0.001 0.001-0.001 0.001-0.001 1.782-1.61 3.548-3.245 5.294-4.904-1.747 1.658-3.512 3.293-5.296 4.905zM709.827 739.126c1.636-1.393 3.256-2.806 4.861-4.239 0.005-0.004 0.011-0.008 0.016-0.012-1.612 1.438-3.237 2.853-4.878 4.252zM709.997 90.177c0.044 0.007 0.087 0.016 0.131 0.023-0.131-0.023-0.263-0.044-0.393-0.067 0.088 0.015 0.176 0.027 0.263 0.044zM701.736 88.804c0.005 0.001 0.010 0.001 0.014 0.003 0.008 0.001 0.015 0.003 0.022 0.004-0.011-0.003-0.023-0.004-0.035-0.007zM673.075 85.502c0.080 0.005 0.159 0.010 0.237 0.015 0.048 0.004 0.097 0.008 0.144 0.012-0.127-0.010-0.253-0.018-0.381-0.027zM664.746 84.955c0.012 0 0.025 0.001 0.037 0.001 0.025 0.001 0.050 0.004 0.074 0.005-0.037-0.003-0.072-0.005-0.11-0.007zM655.936 444.458c-0.018 0.689-0.053 1.376-0.076 2.065-0.045 1.378-0.086 2.757-0.151 4.132-0.041 0.828-0.099 1.653-0.147 2.479-0.072 1.232-0.135 2.467-0.223 3.696-0.061 0.877-0.143 1.752-0.214 2.627-0.095 1.176-0.184 2.355-0.294 3.529-0.084 0.903-0.189 1.8-0.282 2.698-0.12 1.144-0.231 2.29-0.365 3.431-0.108 0.919-0.233 1.834-0.35 2.751-0.142 1.118-0.278 2.237-0.434 3.353-0.128 0.928-0.276 1.854-0.414 2.781-0.166 1.096-0.325 2.196-0.502 3.289-0.152 0.942-0.323 1.88-0.485 2.819-0.187 1.075-0.368 2.152-0.565 3.224-0.174 0.946-0.368 1.887-0.551 2.83-0.208 1.061-0.41 2.121-0.629 3.177-0.199 0.952-0.412 1.898-0.619 2.845-0.227 1.043-0.451 2.088-0.69 3.128-0.219 0.946-0.453 1.888-0.681 2.832-0.252 1.037-0.497 2.076-0.761 3.111-0.237 0.941-0.491 1.876-0.739 2.813-0.271 1.029-0.539 2.058-0.824 3.085-0.259 0.937-0.532 1.868-0.8 2.802-0.294 1.020-0.583 2.039-0.888 3.055-0.28 0.935-0.574 1.865-0.863 2.796-0.313 1.006-0.624 2.013-0.948 3.015-0.301 0.931-0.615 1.858-0.924 2.785-0.332 0.995-0.664 1.99-1.007 2.981-0.32 0.926-0.653 1.846-0.983 2.769-0.362 1.009-0.72 2.019-1.093 3.025-0.242 0.651-0.489 1.297-0.734 1.945-0.433 1.144-0.871 2.283-1.319 3.42-0.268 0.683-0.539 1.365-0.813 2.047-0.449 1.116-0.907 2.23-1.368 3.339-0.275 0.662-0.55 1.322-0.83 1.981-0.506 1.188-1.022 2.373-1.542 3.555-0.248 0.56-0.49 1.122-0.739 1.68-0.773 1.723-1.559 3.439-2.363 5.145-0.003 0.007-0.005 0.014-0.010 0.019-0.806 1.713-1.634 3.413-2.474 5.108-0.272 0.551-0.554 1.099-0.83 1.647-0.577 1.146-1.159 2.291-1.749 3.428-0.332 0.636-0.668 1.269-1.003 1.902-0.463 0.877-0.933 1.749-1.405 2.621-1.206 2.223-2.43 4.435-3.692 6.624-0.033 0.059-0.067 0.12-0.099 0.178-1.293 2.242-2.626 4.458-3.974 6.663-0.363 0.591-0.728 1.18-1.095 1.767-1.154 1.856-2.328 3.699-3.522 5.526-0.242 0.374-0.481 0.753-0.728 1.124-1.409 2.136-2.848 4.249-4.31 6.344-0.384 0.55-0.773 1.096-1.161 1.643-1.073 1.514-2.156 3.017-3.256 4.507-0.419 0.568-0.833 1.137-1.257 1.702-1.463 1.956-2.943 3.899-4.452 5.816-0.052 0.065-0.106 0.129-0.157 0.195-1.462 1.853-2.953 3.681-4.456 5.496-0.457 0.55-0.919 1.096-1.38 1.643-1.19 1.414-2.393 2.815-3.609 4.205-0.434 0.497-0.866 0.997-1.304 1.489-1.613 1.819-3.244 3.62-4.9 5.392-0.255 0.275-0.517 0.542-0.775 0.814-1.424 1.514-2.864 3.011-4.32 4.491-0.511 0.52-1.024 1.036-1.538 1.551-1.353 1.357-2.721 2.698-4.1 4.026-0.4 0.384-0.796 0.775-1.198 1.159-1.749 1.662-3.516 3.3-5.305 4.915-0.372 0.336-0.753 0.664-1.127 0.999-1.608 1.436-3.231 2.851-4.868 4.246-0.493 0.418-0.982 0.839-1.476 1.254-1.954 1.639-3.922 3.256-5.916 4.837-0.282 0.223-0.569 0.44-0.851 0.662-1.762 1.386-3.54 2.746-5.334 4.085-0.534 0.4-1.071 0.8-1.608 1.197-2.056 1.511-4.125 3.002-6.22 4.45-1.532 1.061-3.074 2.102-4.623 3.128-0.448 0.295-0.901 0.581-1.352 0.875-1.114 0.727-2.23 1.45-3.354 2.159-0.599 0.377-1.202 0.745-1.804 1.116-0.986 0.611-1.975 1.221-2.969 1.819-0.655 0.392-1.311 0.776-1.969 1.164-0.952 0.56-1.906 1.116-2.863 1.662-0.683 0.389-1.367 0.775-2.053 1.157-0.949 0.53-1.899 1.054-2.855 1.571-0.692 0.374-1.386 0.747-2.080 1.115-0.967 0.512-1.936 1.016-2.909 1.514-0.685 0.353-1.371 0.704-2.060 1.050-1.007 0.505-2.023 0.999-3.037 1.491-0.659 0.319-1.316 0.641-1.978 0.954-1.548 0.732-3.103 1.454-4.667 2.152-0.191 0.086-0.384 0.167-0.576 0.253-1.41 0.626-2.825 1.236-4.245 1.834-0.481 0.203-0.962 0.403-1.443 0.602-1.243 0.515-2.489 1.017-3.738 1.51-0.407 0.159-0.814 0.324-1.221 0.482-1.616 0.628-3.239 1.237-4.868 1.827-0.327 0.118-0.655 0.231-0.984 0.349-1.329 0.475-2.666 0.939-4.005 1.391-0.501 0.169-1.001 0.335-1.503 0.501-1.33 0.437-2.664 0.863-4.002 1.277-0.346 0.108-0.692 0.219-1.040 0.325-1.655 0.504-3.32 0.987-4.989 1.454-0.412 0.116-0.828 0.225-1.243 0.338-1.303 0.357-2.607 0.701-3.915 1.033-0.506 0.129-1.014 0.257-1.522 0.383-1.473 0.363-2.95 0.715-4.433 1.048-0.231 0.052-0.46 0.108-0.69 0.159-1.698 0.377-3.402 0.73-5.109 1.067-0.47 0.093-0.942 0.18-1.413 0.27-1.301 0.249-2.607 0.486-3.915 0.711-0.502 0.087-1.002 0.174-1.504 0.257-1.729 0.286-3.461 0.557-5.198 0.802-1.564 0.219-3.122 0.417-4.678 0.602-0.493 0.059-0.986 0.109-1.478 0.163-1.075 0.121-2.151 0.234-3.222 0.338-0.553 0.053-1.107 0.103-1.658 0.152-1.052 0.093-2.103 0.176-3.152 0.253-0.511 0.037-1.022 0.076-1.532 0.11-1.307 0.086-2.61 0.159-3.908 0.219-0.231 0.012-0.464 0.027-0.694 0.037-1.526 0.067-3.047 0.114-4.566 0.147-0.438 0.008-0.873 0.011-1.31 0.018-1.089 0.016-2.175 0.026-3.259 0.025-0.535 0-1.067-0.004-1.6-0.010-0.275-0.003-0.547-0.010-0.822-0.014-23.421-34.988-37.029-78.971-36.937-128.335 0.246-133.775 100.928-256.348 224.865-273.765 10.83-1.522 21.473-2.173 31.89-2.037 23.422 34.987 37.039 78.959 36.946 128.32-0.003 2.075-0.031 4.147-0.083 6.215zM508.954 792.511c0.234 0.057 0.467 0.113 0.698 0.172 0.233 0.059 0.468 0.113 0.702 0.17-0.467-0.114-0.935-0.222-1.401-0.342zM364.070 186.961c2.649-2.102 5.317-4.177 8.003-6.224 0 0 0.001-0.001 0.003-0.001-2.689 2.049-5.36 4.125-8.009 6.228 0 0 0.003-0.001 0.003-0.003zM380.418 174.515c0.004-0.003 0.010-0.007 0.014-0.010-1.148 0.837-2.283 1.695-3.422 2.543 1.135-0.845 2.267-1.699 3.409-2.534zM382.835 172.755c2.513-1.815 5.037-3.609 7.58-5.376 0.004-0.003 0.007-0.005 0.012-0.010-2.55 1.772-5.081 3.572-7.602 5.392 0.003-0.003 0.007-0.005 0.010-0.007zM460.245 126.878c0.976-0.463 1.964-0.901 2.945-1.359-0.982 0.456-1.97 0.897-2.947 1.36 0 0 0-0.001 0.003-0.001zM470.315 122.258c0.078-0.034 0.154-0.065 0.231-0.099-0.078 0.034-0.154 0.067-0.231 0.101zM481.256 117.572c1.721-0.712 3.45-1.399 5.179-2.091-1.732 0.692-3.463 1.38-5.185 2.094 0.001-0.001 0.004-0.003 0.007-0.003zM490.801 113.737c3.109-1.203 6.23-2.378 9.363-3.514 0 0 0 0 0.001 0-3.137 1.137-6.261 2.312-9.372 3.518zM520.352 103.459c0.001-0.001 0.004-0.001 0.007-0.003-0.466 0.144-0.926 0.298-1.391 0.444 0.463-0.146 0.922-0.298 1.385-0.441zM534.318 99.391c2.506-0.685 5.022-1.349 7.543-1.99h0.001c-2.525 0.643-5.044 1.307-7.553 1.993 0.003 0 0.005-0.001 0.008-0.003zM554.636 94.344c2.887-0.641 5.789-1.236 8.695-1.816-2.907 0.583-5.809 1.176-8.7 1.817 0.001-0.001 0.003-0.001 0.005-0.001zM567.168 91.775c1.082-0.207 2.17-0.392 3.255-0.591-1.090 0.199-2.181 0.385-3.267 0.594 0.004-0.001 0.010-0.001 0.012-0.003zM587.596 88.372c-3.337 0.468-6.66 0.99-9.979 1.538 3.319-0.549 6.642-1.070 9.979-1.538zM626.683 84.764c0.031-0.001 0.060-0.001 0.090-0.003-0.042 0.001-0.082 0.003-0.124 0.004 0.012 0 0.023-0.001 0.034-0.001zM635.462 84.484c0.027-0.001 0.053-0.001 0.078-0.001-0.059 0.001-0.117 0.003-0.176 0.004 0.033-0.001 0.067-0.003 0.098-0.003zM338.182 208.91c0.001 0 0.003-0.001 0.003-0.001 2.535-2.291 5.087-4.559 7.66-6.799 0-0.001 0.003-0.001 0.004-0.003-2.576 2.239-5.13 4.51-7.667 6.803zM324.918 221.347c1.24-1.199 2.47-2.408 3.721-3.595 0.004-0.004 0.007-0.007 0.011-0.011-1.254 1.19-2.489 2.404-3.732 3.606zM305.225 241.369c0.004-0.005 0.008-0.010 0.014-0.015 2.301-2.465 4.625-4.904 6.966-7.324 0.001-0.001 0.004-0.004 0.007-0.007-2.348 2.427-4.68 4.872-6.987 7.346zM283.063 266.632c0.005-0.004 0.008-0.010 0.014-0.014 1.635-1.981 3.289-3.943 4.949-5.9-1.665 1.962-3.322 3.929-4.962 5.914zM274.963 276.66c0.001-0.001 0.001-0.001 0.001-0.003 2.118-2.687 4.268-5.347 6.43-7.994 0.003-0.004 0.005-0.008 0.010-0.012-2.167 2.652-4.321 5.316-6.441 8.009zM261.223 294.857c0.007-0.010 0.014-0.020 0.022-0.030 1.91-2.638 3.847-5.251 5.799-7.854 0.007-0.008 0.012-0.016 0.020-0.025-1.967 2.619-3.919 5.252-5.842 7.908zM255.012 303.622l0.007-0.012c0.708-1.016 1.432-2.018 2.144-3.029-0.716 1.014-1.442 2.022-2.151 3.041zM248.689 312.912c0.003-0.003 0.005-0.007 0.007-0.010 0.26-0.391 0.528-0.776 0.79-1.167-0.263 0.393-0.534 0.783-0.796 1.176zM241.778 323.521c0-0.001 0.001-0.003 0.003-0.005 0.531-0.836 1.080-1.661 1.615-2.494-0.535 0.836-1.085 1.661-1.617 2.499zM229.496 343.783c0.005-0.008 0.011-0.018 0.016-0.027 1.676-2.9 3.383-5.779 5.108-8.647 0.003-0.001 0.003-0.004 0.005-0.007-1.733 2.879-3.447 5.769-5.13 8.681zM224.19 353.19c0-0.001 0.001-0.004 0.003-0.005 0.995-1.801 2.018-3.586 3.030-5.377-1.017 1.792-2.037 3.58-3.033 5.383zM219.286 362.276c0-0.003 0.003-0.004 0.003-0.005 1.16-2.189 2.327-4.373 3.512-6.547 0.004-0.005 0.008-0.012 0.011-0.019-1.191 2.18-2.362 4.373-3.526 6.571zM203.092 395.423c0.001-0.003 0.003-0.007 0.004-0.010 1.487-3.314 2.996-6.615 4.544-9.896 0.003-0.005 0.005-0.012 0.008-0.019-1.553 3.29-3.066 6.601-4.556 9.924zM194.596 415.432c0.826-2.052 1.664-4.098 2.513-6.138 0.003-0.007 0.007-0.014 0.010-0.020-0.854 2.047-1.694 4.1-2.523 6.159zM186.865 435.79c0.005-0.014 0.010-0.029 0.015-0.042 0.265-0.741 0.536-1.478 0.802-2.218-0.274 0.753-0.547 1.506-0.817 2.26zM183.619 445.125c0.447-1.34 0.89-2.679 1.353-4.013 0.003-0.005 0.004-0.012 0.005-0.018-0.463 1.34-0.905 2.687-1.359 4.031zM179.435 458.018c0.005-0.019 0.011-0.037 0.018-0.056 0.327-1.050 0.66-2.099 0.987-3.149-0.334 1.069-0.673 2.136-1.005 3.205zM176.546 467.624c0.407-1.417 0.81-2.834 1.232-4.246 0.003-0.007 0.005-0.012 0.007-0.019-0.425 1.417-0.825 2.844-1.239 4.265zM174 476.636c0.178-0.664 0.349-1.331 0.531-1.994 0.001-0.001 0.001-0.003 0.003-0.004-0.184 0.664-0.353 1.334-0.534 1.998zM165.001 515.146l0.033-0.167c0.399-2.031 0.784-4.065 1.206-6.091 0.001-0.008 0.004-0.016 0.005-0.025-0.436 2.090-0.835 4.188-1.244 6.283zM161.375 535.838c0.189-1.259 0.37-2.519 0.574-3.774 0-0.001 0-0.004 0.001-0.005-0.203 1.257-0.38 2.52-0.576 3.779zM157.98 562.071c0.003-0.019 0.005-0.038 0.007-0.057 0.227-2.18 0.44-4.362 0.694-6.536 0.001-0.004 0.001-0.008 0.001-0.012-0.257 2.197-0.472 4.403-0.702 6.605zM156.972 572.866c0.148-1.869 0.29-3.74 0.466-5.605 0-0.004 0-0.008 0.001-0.012-0.176 1.869-0.312 3.744-0.467 5.617zM155.446 599.252c0.004-0.136 0.010-0.274 0.014-0.411 0.069-2.109 0.146-4.219 0.234-6.326-0.102 2.242-0.176 4.49-0.248 6.737zM817.354 127.579c0.078 0.044 0.157 0.083 0.236 0.127 0.182 0.098 0.368 0.193 0.551 0.293l-155.151-84.401c-0.135-0.075-0.275-0.146-0.412-0.219-1.988-1.078-3.985-2.139-5.994-3.18-0.757-0.392-1.523-0.768-2.284-1.154-1.399-0.712-2.796-1.428-4.207-2.121-0.086-0.042-0.17-0.087-0.259-0.129-0.377-0.187-0.762-0.359-1.141-0.543-2.018-0.982-4.043-1.947-6.081-2.89-0.824-0.381-1.651-0.756-2.48-1.131-1.733-0.787-3.476-1.561-5.225-2.321-0.849-0.369-1.699-0.739-2.553-1.103-1.969-0.839-3.948-1.655-5.934-2.457-0.58-0.236-1.156-0.478-1.737-0.709-2.553-1.017-5.12-2.003-7.704-2.961-0.647-0.241-1.301-0.47-1.951-0.707-1.964-0.717-3.936-1.42-5.916-2.103-0.886-0.305-1.775-0.604-2.664-0.903-1.834-0.617-3.673-1.217-5.519-1.804-0.858-0.272-1.713-0.549-2.57-0.815-2.303-0.712-4.614-1.402-6.935-2.071-0.365-0.103-0.723-0.216-1.088-0.32-2.678-0.761-5.371-1.487-8.076-2.189-0.215-0.056-0.427-0.118-0.643-0.174-0.594-0.152-1.194-0.286-1.787-0.436-1.88-0.474-3.761-0.937-5.652-1.38-0.954-0.223-1.909-0.442-2.867-0.659-1.828-0.414-3.666-0.813-5.507-1.199-0.915-0.192-1.828-0.388-2.746-0.573-2.214-0.447-4.435-0.871-6.664-1.277-0.516-0.095-1.029-0.199-1.547-0.291-2.739-0.489-5.49-0.943-8.251-1.371-0.76-0.118-1.523-0.222-2.286-0.335-2.026-0.301-4.056-0.589-6.093-0.858-0.977-0.128-1.958-0.249-2.936-0.37-1.888-0.233-3.781-0.452-5.677-0.656-0.973-0.105-1.947-0.211-2.923-0.309-2.124-0.212-4.254-0.402-6.392-0.579-0.711-0.059-1.416-0.127-2.128-0.182-2.833-0.218-5.676-0.404-8.528-0.56-0.652-0.037-1.307-0.057-1.959-0.090-2.22-0.11-4.443-0.204-6.675-0.275-0.987-0.031-1.975-0.052-2.964-0.076-1.951-0.048-3.906-0.080-5.862-0.098-1.021-0.008-2.039-0.016-3.060-0.018-2.091-0.001-4.186 0.016-6.284 0.049-0.84 0.012-1.674 0.015-2.516 0.034-2.919 0.063-5.844 0.152-8.781 0.28-0.442 0.020-0.886 0.050-1.327 0.071-2.502 0.117-5.013 0.257-7.526 0.423-0.977 0.064-1.959 0.14-2.941 0.212-2.020 0.148-4.043 0.309-6.073 0.489-1.058 0.093-2.116 0.189-3.176 0.291-2.069 0.199-4.144 0.418-6.22 0.649-0.941 0.106-1.883 0.203-2.825 0.314-2.992 0.355-5.993 0.734-8.999 1.157-3.342 0.47-6.672 0.992-9.994 1.541-0.967 0.159-1.932 0.328-2.897 0.494-2.519 0.434-5.030 0.89-7.537 1.368-0.901 0.172-1.805 0.339-2.704 0.516-3.286 0.649-6.565 1.329-9.829 2.053-0.447 0.099-0.889 0.21-1.333 0.309-2.848 0.641-5.688 1.315-8.519 2.013-0.979 0.241-1.954 0.489-2.931 0.736-2.516 0.64-5.025 1.301-7.526 1.986-0.795 0.218-1.593 0.427-2.388 0.649-3.21 0.897-6.408 1.828-9.595 2.796-0.67 0.204-1.337 0.421-2.007 0.628-2.57 0.795-5.134 1.613-7.689 2.455-0.968 0.319-1.933 0.64-2.897 0.965-2.57 0.866-5.131 1.755-7.684 2.668-0.634 0.226-1.274 0.444-1.909 0.675-3.133 1.134-6.249 2.308-9.354 3.51-0.79 0.306-1.574 0.624-2.361 0.934-2.397 0.945-4.787 1.909-7.169 2.894-0.934 0.387-1.866 0.772-2.796 1.164-2.712 1.144-5.413 2.31-8.104 3.506-0.389 0.172-0.78 0.336-1.168 0.511-2.603 1.164-5.198 2.351-7.78 3.564-0.391 0.184-0.777 0.38-1.169 0.564-1.288 0.61-2.565 1.237-3.847 1.858-1.937 0.938-3.872 1.879-5.795 2.843-1.334 0.67-2.661 1.352-3.99 2.033-1.862 0.956-3.722 1.92-5.572 2.9-1.338 0.709-2.674 1.427-4.006 2.148-1.838 0.997-3.669 2.005-5.496 3.025-1.311 0.732-2.622 1.468-3.929 2.214-1.851 1.056-3.691 2.132-5.53 3.213-1.259 0.741-2.519 1.477-3.77 2.23-1.918 1.152-3.824 2.327-5.727 3.506-1.149 0.711-2.303 1.413-3.447 2.133-2.178 1.375-4.343 2.779-6.503 4.188-0.847 0.553-1.702 1.092-2.546 1.65-2.943 1.945-5.872 3.921-8.778 5.931-0.057 0.039-0.114 0.082-0.172 0.121-0.248 0.17-0.49 0.346-0.736 0.517-2.542 1.766-5.066 3.561-7.579 5.375-0.807 0.584-1.612 1.172-2.416 1.76-2.125 1.553-4.237 3.124-6.339 4.71-0.67 0.505-1.344 1.005-2.009 1.514-2.685 2.046-5.352 4.118-7.998 6.22-0.536 0.426-1.067 0.862-1.604 1.291-2.154 1.722-4.295 3.465-6.423 5.224-0.784 0.647-1.566 1.296-2.344 1.948-2.155 1.802-4.296 3.623-6.427 5.462-0.478 0.414-0.964 0.822-1.442 1.237-2.246 1.954-4.478 3.923-6.692 5.916-0.313 0.28-0.621 0.569-0.933 0.851-0.588 0.532-1.171 1.070-1.758 1.605-2.050 1.869-4.087 3.756-6.11 5.659-0.57 0.536-1.144 1.070-1.713 1.609-2.43 2.308-4.842 4.637-7.232 6.991-0.487 0.481-0.968 0.967-1.455 1.448-2.009 1.996-4.006 4.008-5.987 6.036-0.583 0.596-1.165 1.19-1.745 1.789-2.346 2.425-4.674 4.867-6.98 7.336-0.369 0.396-0.732 0.799-1.1 1.197-2.003 2.158-3.985 4.333-5.953 6.525-0.574 0.64-1.149 1.278-1.721 1.921-0.449 0.506-0.907 1.005-1.355 1.512-1.802 2.041-3.59 4.099-5.364 6.168-0.223 0.261-0.445 0.528-0.67 0.791-2.018 2.362-4.013 4.746-5.994 7.146-0.561 0.679-1.12 1.359-1.679 2.042-2.163 2.645-4.311 5.305-6.431 7.994-0.079 0.099-0.155 0.203-0.234 0.304-2.045 2.599-4.060 5.224-6.061 7.862-0.543 0.716-1.085 1.434-1.624 2.152-1.954 2.6-3.891 5.214-5.801 7.851-0.113 0.158-0.23 0.313-0.343 0.471-1.563 2.163-3.113 4.339-4.648 6.526-0.415 0.592-0.82 1.191-1.232 1.786-0.572 0.821-1.138 1.645-1.706 2.468-1.556 2.264-3.096 4.537-4.619 6.823-0.438 0.658-0.882 1.311-1.318 1.97-1.891 2.863-3.756 5.744-5.598 8.645-0.427 0.674-0.847 1.353-1.272 2.030-1.465 2.329-2.913 4.669-4.345 7.022-0.516 0.845-1.031 1.692-1.542 2.542-1.723 2.867-3.432 5.746-5.109 8.647-0.065 0.113-0.132 0.225-0.197 0.338-1.738 3.011-3.44 6.046-5.123 9.091-0.466 0.844-0.928 1.692-1.39 2.539-0.568 1.040-1.146 2.076-1.707 3.12-0.611 1.137-1.202 2.284-1.805 3.425-0.636 1.205-1.276 2.407-1.905 3.616-1.149 2.208-2.276 4.43-3.395 6.656-0.521 1.036-1.052 2.065-1.567 3.105-1.619 3.265-3.211 6.541-4.766 9.839-0.005 0.010-0.011 0.022-0.016 0.033-1.548 3.281-3.058 6.581-4.544 9.894-0.481 1.077-0.949 2.16-1.425 3.24-0.999 2.268-1.992 4.539-2.961 6.822-0.54 1.272-1.070 2.548-1.601 3.825-0.886 2.125-1.759 4.254-2.619 6.392-0.532 1.323-1.061 2.646-1.581 3.974-0.852 2.166-1.685 4.339-2.51 6.515-0.481 1.267-0.967 2.535-1.438 3.806-0.184 0.494-0.377 0.986-0.558 1.481-0.52 1.414-1.007 2.841-1.515 4.26-0.643 1.794-1.291 3.587-1.914 5.388-0.655 1.887-1.282 3.782-1.917 5.677-0.603 1.804-1.213 3.604-1.798 5.414-0.617 1.907-1.205 3.824-1.8 5.74-0.564 1.811-1.135 3.617-1.681 5.435-0.577 1.932-1.13 3.873-1.687 5.812-0.523 1.816-1.054 3.628-1.557 5.451-0.542 1.955-1.052 3.919-1.572 5.881-0.481 1.819-0.973 3.632-1.434 5.456-0.504 1.977-0.973 3.963-1.453 5.946-0.441 1.824-0.893 3.644-1.316 5.475-0.46 1.994-0.888 4.001-1.325 6.004-0.4 1.827-0.813 3.65-1.193 5.482-0.422 2.023-0.809 4.056-1.205 6.084-0.358 1.824-0.728 3.644-1.067 5.471-0.378 2.050-0.722 4.107-1.078 6.163-0.316 1.819-0.645 3.635-0.942 5.458-0.338 2.083-0.637 4.173-0.952 6.261-0.271 1.805-0.558 3.608-0.81 5.417-0.297 2.121-0.554 4.25-0.825 6.377-0.226 1.786-0.472 3.568-0.681 5.358-0.255 2.174-0.468 4.356-0.694 6.537-0.182 1.749-0.385 3.495-0.55 5.247-0.21 2.245-0.377 4.498-0.561 6.748-0.137 1.696-0.295 3.388-0.417 5.087-0.169 2.363-0.291 4.735-0.426 7.104-0.093 1.591-0.207 3.179-0.282 4.772-0.128 2.619-0.206 5.245-0.291 7.869-0.044 1.35-0.113 2.698-0.148 4.050-0.098 3.977-0.154 7.96-0.162 11.949-0.306 165.712 79.588 299.944 200.187 365.55l155.151 84.401c-0.264-0.144-0.525-0.294-0.79-0.438 66.802 36.559 146.152 52.033 231.318 40.064 238.367-33.5 431.98-269.211 432.458-526.488 0.308-166.055-79.934-300.498-200.97-365.949z"></path>
<path fill="#000" d="M656.019 438.243c-0.003 2.075-0.033 4.147-0.084 6.216v0c-0.016 0.687-0.050 1.375-0.075 2.064v0c-0.046 1.379-0.086 2.757-0.151 4.132v0c-0.041 0.828-0.099 1.653-0.147 2.48v0c-0.071 1.232-0.135 2.465-0.223 3.695v0c-0.061 0.877-0.143 1.752-0.215 2.627v0c-0.095 1.178-0.182 2.355-0.294 3.53v0c-0.084 0.901-0.188 1.798-0.282 2.697v0c-0.118 1.144-0.23 2.288-0.363 3.431v0c-0.108 0.919-0.234 1.835-0.35 2.751v0c-0.142 1.118-0.278 2.238-0.434 3.353v0c-0.128 0.928-0.276 1.854-0.415 2.781v0c-0.163 1.097-0.323 2.196-0.501 3.29v0c-0.152 0.942-0.323 1.879-0.485 2.818v0c-0.187 1.077-0.368 2.152-0.565 3.224v0c-0.174 0.946-0.366 1.887-0.551 2.83v0c-0.207 1.061-0.41 2.121-0.629 3.177v0c-0.199 0.95-0.412 1.898-0.619 2.847v0c-0.229 1.043-0.452 2.087-0.69 3.128v0c-0.219 0.945-0.453 1.887-0.682 2.83v0c-0.25 1.037-0.497 2.077-0.758 3.111v0c-0.238 0.941-0.493 1.876-0.741 2.813v0c-0.271 1.029-0.539 2.060-0.824 3.085v0c-0.259 0.937-0.532 1.869-0.8 2.803v0c-0.295 1.018-0.583 2.039-0.889 3.054v0c-0.278 0.935-0.573 1.865-0.863 2.796v0c-0.312 1.006-0.624 2.015-0.945 3.015v0c-0.304 0.933-0.617 1.858-0.927 2.785v0c-0.332 0.995-0.663 1.992-1.006 2.981v0c-0.32 0.927-0.653 1.847-0.983 2.769v0c-0.362 1.010-0.722 2.019-1.093 3.025v0c-0.241 0.651-0.489 1.297-0.734 1.945v0c-0.433 1.144-0.87 2.283-1.319 3.42v0c-0.268 0.685-0.54 1.365-0.813 2.046v0c-0.451 1.118-0.907 2.231-1.37 3.342v0c-0.274 0.66-0.549 1.322-0.829 1.979v0c-0.506 1.19-1.021 2.373-1.544 3.555v0c-0.246 0.56-0.489 1.122-0.739 1.68v0c-0.772 1.723-1.557 3.439-2.362 5.146v0c-0.003 0.005-0.004 0.012-0.010 0.018v0c-0.806 1.713-1.634 3.414-2.474 5.109v0c-0.272 0.55-0.554 1.097-0.83 1.646v0c-0.577 1.146-1.159 2.291-1.751 3.428v0c-0.331 0.636-0.667 1.27-1.002 1.903v0c-0.463 0.877-0.934 1.747-1.405 2.619v0c-1.206 2.224-2.431 4.435-3.692 6.626v0c-0.034 0.059-0.067 0.118-0.099 0.178v0c-1.295 2.242-2.626 4.457-3.974 6.661v0c-0.363 0.592-0.73 1.18-1.095 1.767v0c-1.156 1.857-2.328 3.699-3.522 5.526v0c-0.244 0.374-0.481 0.753-0.728 1.124v0c-1.409 2.137-2.848 4.249-4.31 6.344v0c-0.384 0.551-0.773 1.096-1.161 1.643v0c-1.073 1.515-2.156 3.017-3.256 4.507v0c-0.419 0.568-0.835 1.138-1.257 1.702v0c-1.465 1.956-2.943 3.899-4.453 5.817v0c-0.050 0.065-0.105 0.128-0.155 0.193v0c-1.462 1.854-2.953 3.682-4.456 5.496v0c-0.457 0.551-0.919 1.096-1.38 1.643v0c-1.19 1.414-2.392 2.817-3.609 4.205v0c-0.436 0.498-0.866 0.998-1.306 1.491v0c-1.612 1.819-3.243 3.619-4.898 5.391v0c-0.255 0.275-0.517 0.542-0.776 0.814v0c-1.423 1.514-2.863 3.011-4.318 4.491v0c-0.511 0.52-1.024 1.036-1.538 1.551v0c-1.353 1.357-2.721 2.7-4.1 4.024v0c-0.402 0.387-0.796 0.777-1.199 1.16v0c-1.747 1.662-3.516 3.3-5.304 4.915v0c-0.373 0.336-0.753 0.664-1.127 1.001v0c-1.608 1.435-3.231 2.849-4.87 4.245v0c-0.491 0.418-0.98 0.839-1.474 1.254v0c-1.954 1.639-3.922 3.256-5.916 4.837v0c-0.282 0.223-0.569 0.441-0.851 0.662v0c-1.762 1.386-3.541 2.746-5.334 4.085v0c-0.535 0.4-1.071 0.8-1.608 1.197v0c-2.057 1.512-4.125 3.002-6.22 4.452v0c-1.532 1.059-3.074 2.101-4.623 3.127v0c-0.449 0.297-0.903 0.581-1.352 0.875v0c-1.114 0.727-2.23 1.451-3.354 2.159v0c-0.599 0.377-1.202 0.745-1.804 1.116v0c-0.987 0.611-1.975 1.22-2.97 1.819v0c-0.653 0.392-1.311 0.776-1.967 1.164v0c-0.952 0.56-1.906 1.116-2.863 1.664v0c-0.685 0.389-1.367 0.773-2.053 1.156v0c-0.949 0.531-1.9 1.054-2.855 1.571v0c-0.692 0.376-1.387 0.747-2.080 1.116v0c-0.967 0.511-1.936 1.014-2.909 1.514v0c-0.686 0.351-1.372 0.702-2.060 1.050v0c-1.007 0.505-2.022 0.998-3.037 1.489v0c-0.659 0.319-1.315 0.641-1.978 0.953v0c-1.548 0.735-3.103 1.455-4.665 2.155v0c-0.193 0.086-0.385 0.166-0.577 0.252v0c-1.41 0.626-2.825 1.236-4.245 1.834v0c-0.481 0.204-0.961 0.404-1.443 0.602v0c-1.243 0.515-2.49 1.017-3.74 1.51v0c-0.407 0.161-0.813 0.325-1.22 0.483v0c-1.616 0.626-3.239 1.236-4.868 1.827v0c-0.327 0.118-0.655 0.23-0.984 0.347v0c-1.329 0.475-2.666 0.939-4.005 1.391v0c-0.501 0.169-1.001 0.335-1.504 0.501v0c-1.329 0.437-2.664 0.863-4.001 1.277v0c-0.346 0.108-0.692 0.221-1.040 0.325v0c-1.655 0.504-3.32 0.987-4.988 1.454v0c-0.415 0.116-0.829 0.225-1.244 0.339v0c-1.303 0.355-2.607 0.7-3.915 1.032v0c-0.506 0.129-1.014 0.257-1.522 0.383v0c-1.473 0.363-2.95 0.715-4.433 1.048v0c-0.23 0.052-0.46 0.109-0.692 0.159v0c-1.695 0.378-3.399 0.73-5.109 1.069v0c-0.468 0.093-0.941 0.178-1.412 0.27v0c-1.3 0.248-2.607 0.485-3.915 0.711v0c-0.502 0.086-1.002 0.173-1.504 0.256v0c-1.728 0.286-3.461 0.558-5.198 0.802v0c-1.564 0.219-3.122 0.417-4.678 0.602v0c-0.493 0.057-0.986 0.109-1.478 0.165v0c-1.075 0.12-2.151 0.233-3.224 0.336v0c-0.551 0.053-1.104 0.103-1.657 0.152v0c-1.052 0.093-2.103 0.176-3.152 0.253v0c-0.511 0.037-1.024 0.078-1.532 0.11v0c-1.307 0.086-2.61 0.159-3.908 0.219v0c-0.231 0.012-0.464 0.027-0.694 0.037v0c-1.527 0.068-3.048 0.116-4.566 0.147v0c-0.438 0.008-0.873 0.011-1.311 0.018v0c-1.089 0.016-2.174 0.027-3.258 0.026v0c-0.535-0.001-1.069-0.005-1.6-0.011v0c-1.018-0.008-2.034-0.026-3.047-0.049v0c-0.512-0.012-1.025-0.025-1.537-0.041v0c-1.161-0.035-2.318-0.084-3.474-0.143v0c-0.339-0.016-0.679-0.027-1.017-0.046v0c-1.483-0.080-2.962-0.178-4.435-0.291v0c-0.368-0.030-0.734-0.064-1.101-0.094v0c-1.111-0.093-2.219-0.192-3.323-0.302v0c-0.511-0.050-1.017-0.106-1.526-0.161v0c-0.986-0.106-1.969-0.221-2.95-0.342v0c-0.508-0.063-1.016-0.124-1.522-0.192v0c-1.063-0.139-2.122-0.289-3.18-0.447v0c-0.391-0.059-0.784-0.112-1.176-0.172v0c-1.438-0.223-2.867-0.46-4.294-0.713v0c-0.268-0.048-0.531-0.102-0.798-0.15v0c-1.16-0.214-2.317-0.434-3.47-0.667v0c-0.478-0.097-0.956-0.197-1.432-0.298v0c-0.954-0.201-1.906-0.407-2.856-0.622v0c-0.5-0.113-0.997-0.226-1.495-0.343v0c-0.982-0.233-1.962-0.472-2.938-0.719v0c-0.421-0.105-0.843-0.208-1.263-0.316v0c-1.406-0.365-2.807-0.742-4.2-1.138v0c-0.187-0.053-0.37-0.11-0.555-0.165v0c-1.21-0.347-2.414-0.708-3.614-1.081v0c-0.447-0.136-0.89-0.28-1.335-0.422v0c-0.961-0.305-1.918-0.618-2.872-0.938v0c-0.462-0.155-0.92-0.309-1.38-0.468v0c-1.033-0.355-2.064-0.723-3.088-1.099v0c-0.335-0.121-0.67-0.238-1.003-0.362v0c-1.345-0.498-2.682-1.011-4.011-1.541v0c-0.298-0.12-0.592-0.242-0.889-0.363v0c-1.037-0.418-2.073-0.847-3.101-1.284v0c-0.441-0.188-0.879-0.378-1.318-0.569v0c-0.913-0.398-1.823-0.802-2.73-1.213v0c-0.426-0.193-0.854-0.387-1.277-0.583v0c-1.070-0.496-2.129-0.999-3.188-1.514v0c-0.218-0.108-0.437-0.21-0.653-0.316v0c-2.279-1.12-4.533-2.284-6.759-3.496v0l155.149 84.399c2.227 1.212 4.479 2.376 6.758 3.496v0c0.027 0.014 0.054 0.030 0.083 0.042v0c0.192 0.095 0.389 0.185 0.581 0.278v0c1.052 0.512 2.11 1.016 3.173 1.508v0c0.429 0.199 0.858 0.392 1.288 0.587v0c0.904 0.41 1.813 0.814 2.725 1.212v0c0.438 0.189 0.875 0.38 1.316 0.568v0c1.025 0.436 2.057 0.862 3.092 1.28v0c0.301 0.123 0.599 0.249 0.903 0.369v0c1.326 0.528 2.66 1.041 4.004 1.54v0c0.338 0.125 0.678 0.245 1.018 0.368v0c1.020 0.373 2.045 0.738 3.074 1.092v0c0.459 0.159 0.922 0.316 1.385 0.471v0c0.952 0.321 1.909 0.632 2.868 0.937v0c0.447 0.143 0.892 0.286 1.34 0.425v0c1.198 0.37 2.4 0.73 3.608 1.078v0c0.188 0.053 0.372 0.112 0.56 0.165v0c1.394 0.396 2.795 0.773 4.201 1.138v0c0.112 0.029 0.221 0.061 0.335 0.091v0c0.306 0.079 0.618 0.148 0.926 0.226v0c0.979 0.246 1.959 0.487 2.943 0.719v0c0.496 0.116 0.99 0.229 1.487 0.342v0c0.952 0.215 1.906 0.423 2.864 0.624v0c0.476 0.099 0.952 0.201 1.429 0.3v0c1.149 0.23 2.299 0.449 3.454 0.662v0c0.271 0.050 0.543 0.105 0.815 0.152v0c1.424 0.255 2.852 0.49 4.288 0.712v0c0.396 0.061 0.796 0.117 1.194 0.176v0c1.050 0.157 2.103 0.306 3.16 0.445v0c0.511 0.067 1.022 0.129 1.534 0.193v0c0.979 0.121 1.959 0.234 2.942 0.339v0c0.509 0.054 1.017 0.112 1.526 0.163v0c1.105 0.11 2.214 0.208 3.323 0.3v0c0.369 0.031 0.735 0.067 1.104 0.095v0c1.473 0.113 2.951 0.21 4.435 0.291v0c0.339 0.018 0.679 0.029 1.018 0.046v0c1.153 0.056 2.309 0.105 3.467 0.143v0c0.513 0.016 1.028 0.027 1.542 0.039v0c1.016 0.025 2.034 0.042 3.051 0.050v0c0.53 0.005 1.058 0.008 1.589 0.010v0c1.088 0.001 2.177-0.008 3.27-0.026v0c0.434-0.005 0.87-0.008 1.304-0.016v0c1.518-0.034 3.039-0.080 4.566-0.147v0c0.231-0.011 0.464-0.026 0.694-0.035v0c1.299-0.061 2.602-0.135 3.907-0.221v0c0.511-0.034 1.022-0.074 1.533-0.11v0c1.050-0.078 2.102-0.161 3.154-0.255v0c0.55-0.049 1.101-0.099 1.651-0.151v0c1.075-0.103 2.154-0.218 3.233-0.339v0c0.491-0.053 0.982-0.105 1.472-0.163v0c1.555-0.184 3.113-0.381 4.676-0.6v0c1.737-0.244 3.471-0.516 5.2-0.802v0c0.5-0.083 0.999-0.17 1.499-0.256v0c1.312-0.227 2.622-0.464 3.929-0.713v0c0.467-0.090 0.934-0.177 1.399-0.268v0c1.707-0.338 3.412-0.69 5.109-1.067v0c0.237-0.052 0.472-0.11 0.709-0.163v0c1.476-0.332 2.949-0.682 4.419-1.044v0c0.508-0.125 1.013-0.253 1.521-0.383v0c1.311-0.334 2.619-0.679 3.925-1.036v0c0.408-0.112 0.822-0.221 1.231-0.334v0c1.669-0.467 3.331-0.952 4.989-1.455v0c0.351-0.106 0.7-0.219 1.048-0.328v0c1.338-0.414 2.672-0.839 4.004-1.277v0c0.497-0.165 0.995-0.331 1.493-0.498v0c1.34-0.452 2.676-0.916 4.009-1.391v0c0.328-0.118 0.658-0.23 0.983-0.349v0c1.63-0.591 3.254-1.201 4.87-1.827v0c0.407-0.158 0.811-0.323 1.217-0.481v0c1.252-0.494 2.499-0.998 3.745-1.512v0c0.478-0.199 0.958-0.398 1.438-0.599v0c1.421-0.598 2.837-1.21 4.246-1.836v0c0.192-0.084 0.385-0.166 0.577-0.252v0c1.356-0.607 2.708-1.225 4.054-1.856v0c0.204-0.097 0.407-0.2 0.611-0.295v0c0.663-0.316 1.322-0.638 1.984-0.958v0c1.011-0.49 2.024-0.984 3.030-1.488v0c0.69-0.344 1.376-0.698 2.064-1.051v0c0.972-0.498 1.943-1.001 2.908-1.512v0c0.693-0.368 1.385-0.739 2.076-1.112v0c0.957-0.52 1.911-1.046 2.864-1.576v0c0.679-0.381 1.363-0.764 2.039-1.152v0c0.962-0.549 1.92-1.107 2.874-1.668v0c0.655-0.387 1.312-0.771 1.964-1.163v0c0.997-0.598 1.985-1.208 2.973-1.819v0c0.6-0.372 1.202-0.738 1.797-1.114v0c1.122-0.708 2.234-1.429 3.345-2.154v0c0.455-0.297 0.913-0.585 1.367-0.885v0c1.53-1.011 3.051-2.037 4.562-3.082v0c0.020-0.014 0.038-0.030 0.059-0.044v0c2.094-1.447 4.164-2.939 6.219-4.452v0c0.539-0.396 1.074-0.796 1.61-1.195v0c1.79-1.338 3.568-2.697 5.328-4.081v0c0.285-0.225 0.574-0.442 0.858-0.668v0c1.993-1.579 3.96-3.195 5.912-4.833v0c0.494-0.415 0.987-0.837 1.477-1.258v0c1.639-1.394 3.262-2.808 4.87-4.243v0c0.265-0.238 0.539-0.463 0.802-0.701v0c0.11-0.097 0.216-0.201 0.325-0.3v0c1.786-1.613 3.555-3.251 5.304-4.915v0c0.402-0.381 0.796-0.772 1.197-1.156v0c1.38-1.329 2.75-2.671 4.103-4.028v0c0.515-0.515 1.026-1.031 1.537-1.549v0c1.453-1.477 2.893-2.972 4.316-4.486v0c0.259-0.275 0.523-0.545 0.781-0.821v0c1.657-1.774 3.286-3.574 4.9-5.392v0c0.144-0.163 0.295-0.321 0.438-0.483v0c0.293-0.331 0.572-0.673 0.86-1.002v0c1.217-1.39 2.422-2.794 3.613-4.209v0c0.46-0.547 0.923-1.092 1.378-1.642v0c1.508-1.819 3.002-3.651 4.467-5.508v0c0.048-0.061 0.098-0.12 0.146-0.181v0c1.507-1.915 2.988-3.859 4.452-5.816v0c0.423-0.566 0.841-1.137 1.259-1.706v0c1.1-1.488 2.181-2.99 3.252-4.502v0c0.256-0.361 0.523-0.713 0.776-1.077v0c0.135-0.188 0.259-0.383 0.391-0.572v0c1.461-2.094 2.9-4.207 4.309-6.34v0c0.248-0.376 0.486-0.756 0.731-1.13v0c1.191-1.824 2.362-3.665 3.515-5.518v0c0.366-0.589 0.734-1.18 1.099-1.772v0c1.348-2.203 2.679-4.42 3.972-6.661v0c0.034-0.060 0.065-0.12 0.099-0.18v0c1.262-2.186 2.484-4.397 3.688-6.619v0c0.158-0.289 0.325-0.57 0.481-0.859v0c0.316-0.589 0.622-1.186 0.935-1.778v0c0.332-0.626 0.664-1.252 0.991-1.883v0c0.595-1.145 1.182-2.297 1.763-3.451v0c0.274-0.543 0.55-1.084 0.821-1.627v0c0.84-1.696 1.668-3.399 2.476-5.112v0c0.003-0.007 0.005-0.012 0.008-0.019v0c0.806-1.706 1.59-3.422 2.363-5.146v0c0.25-0.557 0.491-1.119 0.739-1.679v0c0.521-1.182 1.037-2.365 1.542-3.555v0c0.28-0.659 0.555-1.321 0.829-1.981v0c0.464-1.111 0.92-2.223 1.371-3.339v0c0.272-0.682 0.543-1.364 0.813-2.047v0c0.447-1.135 0.885-2.276 1.318-3.42v0c0.246-0.648 0.493-1.295 0.735-1.945v0c0.095-0.261 0.199-0.523 0.295-0.784v0c0.272-0.745 0.53-1.498 0.798-2.245v0c0.329-0.92 0.662-1.839 0.983-2.762v0c0.343-0.994 0.674-1.992 1.007-2.99v0c0.309-0.926 0.622-1.85 0.923-2.779v0c0.324-1.005 0.634-2.012 0.948-3.021v0c0.29-0.93 0.584-1.858 0.863-2.791v0c0.305-1.016 0.594-2.037 0.888-3.055v0c0.268-0.935 0.542-1.866 0.8-2.803v0c0.283-1.026 0.551-2.056 0.824-3.083v0c0.249-0.937 0.502-1.875 0.741-2.815v0c0.263-1.033 0.508-2.073 0.76-3.111v0c0.226-0.942 0.46-1.884 0.678-2.83v0c0.242-1.041 0.466-2.088 0.694-3.134v0c0.208-0.946 0.421-1.89 0.617-2.838v0c0.221-1.059 0.423-2.122 0.632-3.186v0c0.184-0.941 0.376-1.879 0.55-2.823v0c0.2-1.073 0.378-2.151 0.565-3.226v0c0.162-0.938 0.334-1.876 0.485-2.817v0c0.178-1.093 0.335-2.19 0.5-3.286v0c0.14-0.928 0.287-1.854 0.418-2.785v0c0.157-1.114 0.29-2.235 0.433-3.353v0c0.117-0.916 0.242-1.831 0.35-2.75v0c0.133-1.142 0.246-2.288 0.365-3.433v0c0.094-0.899 0.197-1.796 0.283-2.696v0c0.109-1.175 0.197-2.354 0.293-3.533v0c0.072-0.874 0.154-1.747 0.215-2.623v0c0.087-1.229 0.151-2.463 0.222-3.695v0c0.048-0.828 0.108-1.653 0.147-2.482v0c0.067-1.372 0.106-2.749 0.151-4.125v0c0.025-0.69 0.060-1.38 0.075-2.072v0c0.053-2.068 0.082-4.14 0.084-6.213v0c0.161-86.162-41.386-155.961-104.098-190.077v0l-155.151-84.399c62.713 34.114 104.26 103.913 104.1 190.075z"></path>
<path fill="#000" d="M488.422 0c-1.861 0.003-3.725 0.020-5.591 0.049v0c-0.841 0.012-1.677 0.016-2.519 0.034v0c-2.917 0.063-5.843 0.154-8.778 0.28v0c-0.444 0.020-0.888 0.050-1.329 0.071v0c-2.502 0.117-5.013 0.259-7.527 0.423v0c-0.976 0.065-1.958 0.142-2.939 0.214v0c-2.020 0.147-4.045 0.309-6.073 0.487v0c-1.058 0.093-2.116 0.191-3.176 0.291v0c-2.069 0.2-4.144 0.418-6.22 0.651v0c-0.941 0.105-1.883 0.203-2.826 0.314v0c-2.991 0.354-5.991 0.734-8.997 1.156v0c-3.342 0.47-6.672 0.992-9.995 1.541v0c-0.967 0.159-1.932 0.328-2.896 0.494v0c-2.519 0.434-5.030 0.89-7.538 1.368v0c-0.9 0.172-1.804 0.339-2.701 0.517v0c-3.288 0.648-6.566 1.329-9.83 2.053v0c-0.447 0.099-0.889 0.208-1.333 0.308v0c-2.848 0.643-5.688 1.315-8.519 2.013v0c-0.977 0.241-1.955 0.489-2.931 0.738v0c-2.516 0.64-5.025 1.301-7.527 1.986v0c-0.795 0.216-1.593 0.426-2.388 0.648v0c-3.209 0.897-6.408 1.828-9.595 2.798v0c-0.67 0.203-1.335 0.419-2.005 0.625v0c-2.572 0.798-5.135 1.616-7.689 2.456v0c-0.968 0.319-1.933 0.64-2.898 0.965v0c-2.569 0.867-5.13 1.755-7.682 2.668v0c-0.636 0.226-1.276 0.444-1.909 0.675v0c-3.133 1.135-6.249 2.308-9.354 3.511v0c-0.79 0.305-1.575 0.624-2.362 0.933v0c-2.396 0.946-4.785 1.91-7.169 2.894v0c-0.931 0.387-1.865 0.773-2.795 1.165v0c-2.712 1.142-5.414 2.309-8.104 3.504v0c-0.389 0.172-0.78 0.336-1.169 0.511v0c-2.602 1.165-5.196 2.352-7.78 3.564v0c-0.391 0.184-0.776 0.38-1.167 0.565v0c-1.289 0.609-2.568 1.236-3.849 1.857v0c-1.937 0.938-3.87 1.879-5.794 2.844v0c-1.335 0.668-2.663 1.352-3.993 2.031v0c-1.861 0.956-3.721 1.92-5.571 2.901v0c-1.34 0.708-2.674 1.425-4.008 2.147v0c-1.836 0.997-3.666 2.005-5.493 3.025v0c-1.312 0.734-2.623 1.469-3.932 2.215v0c-1.85 1.055-3.689 2.132-5.529 3.213v0c-1.259 0.739-2.52 1.476-3.771 2.23v0c-1.918 1.15-3.823 2.325-5.726 3.504v0c-1.149 0.711-2.303 1.413-3.447 2.133v0c-2.178 1.375-4.343 2.78-6.503 4.188v0c-0.847 0.553-1.702 1.092-2.546 1.65v0c-2.943 1.945-5.872 3.921-8.779 5.931v0c-0.056 0.041-0.113 0.082-0.172 0.121v0c-0.246 0.17-0.489 0.347-0.736 0.517v0c-2.54 1.767-5.064 3.561-7.577 5.376v0c-0.807 0.583-1.613 1.171-2.416 1.759v0c-2.125 1.555-4.237 3.124-6.34 4.712v0c-0.67 0.505-1.342 1.005-2.008 1.512v0c-2.685 2.046-5.352 4.118-7.998 6.22v0c-0.538 0.426-1.069 0.862-1.604 1.291v0c-2.154 1.723-4.295 3.465-6.424 5.224v0c-0.783 0.647-1.564 1.296-2.343 1.949v0c-2.155 1.801-4.298 3.621-6.427 5.46v0c-0.479 0.414-0.964 0.822-1.442 1.237v0c-2.246 1.954-4.479 3.923-6.694 5.916v0c-0.312 0.28-0.619 0.569-0.931 0.851v0c-0.588 0.532-1.171 1.071-1.758 1.605v0c-2.050 1.869-4.087 3.756-6.111 5.659v0c-0.569 0.536-1.142 1.071-1.711 1.61v0c-2.43 2.306-4.842 4.635-7.232 6.989v0c-0.487 0.481-0.969 0.967-1.455 1.45v0c-2.011 1.994-4.008 4.008-5.987 6.035v0c-0.584 0.596-1.165 1.19-1.745 1.789v0c-2.346 2.423-4.674 4.868-6.978 7.336v0c-0.37 0.398-0.732 0.799-1.101 1.197v0c-2.003 2.158-3.985 4.335-5.953 6.525v0c-0.574 0.64-1.149 1.28-1.721 1.921v0c-0.449 0.506-0.907 1.005-1.355 1.512v0c-1.802 2.041-3.59 4.098-5.365 6.168v0c-0.222 0.261-0.442 0.528-0.668 0.791v0c-2.018 2.363-4.013 4.747-5.994 7.146v0c-0.561 0.679-1.12 1.36-1.68 2.042v0c-2.162 2.646-4.311 5.305-6.43 7.995v0c-0.079 0.099-0.155 0.201-0.234 0.302v0c-2.045 2.599-4.060 5.224-6.061 7.862v0c-0.545 0.716-1.085 1.434-1.624 2.152v0c-1.954 2.6-3.891 5.215-5.801 7.852v0c-0.113 0.157-0.23 0.312-0.343 0.47v0c-1.563 2.165-3.113 4.339-4.648 6.526v0c-0.415 0.591-0.82 1.191-1.232 1.786v0c-0.572 0.821-1.138 1.646-1.706 2.468v0c-1.556 2.264-3.094 4.537-4.619 6.823v0c-0.438 0.659-0.882 1.311-1.318 1.97v0c-1.891 2.863-3.757 5.745-5.598 8.645v0c-0.429 0.674-0.847 1.355-1.272 2.030v0c-1.465 2.329-2.913 4.669-4.345 7.022v0c-0.516 0.845-1.031 1.692-1.542 2.542v0c-1.725 2.867-3.432 5.748-5.109 8.647v0c-0.065 0.114-0.132 0.226-0.197 0.339v0c-1.737 3.011-3.439 6.044-5.123 9.090v0c-0.466 0.845-0.927 1.692-1.391 2.539v0c-0.566 1.041-1.145 2.076-1.706 3.122v0c-0.611 1.135-1.202 2.283-1.807 3.424v0c-0.634 1.205-1.274 2.407-1.903 3.616v0c-1.149 2.209-2.276 4.431-3.395 6.656v0c-0.521 1.035-1.052 2.065-1.567 3.105v0c-1.619 3.265-3.211 6.541-4.766 9.839v0c-0.005 0.011-0.011 0.022-0.016 0.033v0c-1.548 3.281-3.058 6.582-4.544 9.894v0c-0.482 1.077-0.95 2.16-1.425 3.241v0c-0.999 2.268-1.99 4.537-2.961 6.822v0c-0.54 1.27-1.070 2.548-1.602 3.824v0c-0.885 2.125-1.759 4.254-2.619 6.392v0c-0.531 1.323-1.058 2.648-1.581 3.975v0c-0.851 2.165-1.684 4.337-2.509 6.514v0c-0.481 1.267-0.967 2.535-1.438 3.806v0c-0.184 0.496-0.377 0.986-0.558 1.481v0c-0.52 1.414-1.009 2.841-1.515 4.26v0c-0.643 1.794-1.292 3.587-1.915 5.388v0c-0.653 1.887-1.281 3.782-1.915 5.677v0c-0.603 1.804-1.214 3.605-1.798 5.416v0c-0.617 1.906-1.205 3.824-1.8 5.738v0c-0.564 1.811-1.135 3.619-1.681 5.436v0c-0.579 1.932-1.13 3.873-1.687 5.81v0c-0.521 1.816-1.054 3.628-1.559 5.451v0c-0.54 1.955-1.051 3.919-1.571 5.881v0c-0.481 1.819-0.972 3.632-1.435 5.456v0c-0.502 1.977-0.972 3.964-1.451 5.948v0c-0.441 1.823-0.893 3.643-1.316 5.474v0c-0.459 1.996-0.888 4-1.325 6.004v0c-0.4 1.827-0.813 3.65-1.193 5.484v0c-0.422 2.022-0.809 4.054-1.205 6.084v0c-0.358 1.823-0.728 3.643-1.069 5.47v0c-0.378 2.050-0.722 4.109-1.078 6.163v0c-0.314 1.819-0.644 3.635-0.941 5.458v0c-0.336 2.083-0.638 4.173-0.952 6.261v0c-0.271 1.807-0.558 3.608-0.811 5.417v0c-0.297 2.122-0.553 4.25-0.824 6.377v0c-0.226 1.787-0.472 3.568-0.681 5.358v0c-0.255 2.175-0.468 4.358-0.694 6.537v0c-0.184 1.749-0.385 3.495-0.55 5.247v0c-0.211 2.246-0.378 4.498-0.561 6.75v0c-0.137 1.695-0.295 3.388-0.417 5.086v0c-0.169 2.363-0.291 4.735-0.426 7.104v0c-0.093 1.591-0.207 3.179-0.282 4.772v0c-0.129 2.619-0.204 5.245-0.291 7.869v0c-0.045 1.352-0.113 2.698-0.147 4.050v0c-0.099 3.978-0.155 7.961-0.163 11.949v0 1.888c0.3 164.846 80.044 298.305 200.187 363.663v0l155.151 84.399c-120.601-65.604-200.496-199.838-200.187-365.55v0c0.007-3.989 0.063-7.972 0.162-11.95v0c0.035-1.352 0.102-2.698 0.147-4.050v0c0.087-2.623 0.163-5.249 0.29-7.867v0c0.076-1.593 0.191-3.182 0.283-4.773v0c0.136-2.369 0.259-4.739 0.426-7.102v0c0.12-1.7 0.279-3.391 0.417-5.087v0c0.182-2.25 0.351-4.503 0.561-6.748v0c0.166-1.753 0.368-3.499 0.55-5.248v0c0.227-2.18 0.441-4.362 0.694-6.535v0c0.208-1.79 0.455-3.574 0.681-5.36v0c0.272-2.126 0.527-4.257 0.825-6.378v0c0.252-1.808 0.54-3.608 0.811-5.413v0c0.312-2.088 0.614-4.181 0.952-6.264v0c0.295-1.823 0.625-3.636 0.939-5.452v0c0.355-2.058 0.7-4.117 1.080-6.168v0c0.339-1.827 0.709-3.644 1.065-5.466v0c0.4-2.031 0.786-4.065 1.208-6.091v0c0.381-1.83 0.791-3.651 1.193-5.477v0c0.438-2.004 0.866-4.011 1.326-6.009v0c0.422-1.827 0.874-3.644 1.314-5.465v0c0.479-1.989 0.952-3.978 1.454-5.959v0c0.46-1.82 0.953-3.632 1.432-5.447v0c0.52-1.964 1.031-3.933 1.572-5.891v0c0.502-1.817 1.035-3.625 1.556-5.436v0c0.558-1.944 1.111-3.892 1.691-5.828v0c0.545-1.811 1.112-3.612 1.674-5.414v0c0.596-1.922 1.188-3.847 1.807-5.76v0c0.584-1.804 1.191-3.598 1.792-5.395v0c0.636-1.902 1.266-3.804 1.922-5.697v0c0.622-1.794 1.267-3.578 1.906-5.364v0c0.69-1.925 1.375-3.851 2.086-5.768v0c0.468-1.265 0.95-2.524 1.428-3.786v0c0.826-2.182 1.665-4.362 2.517-6.535v0c0.521-1.322 1.048-2.642 1.576-3.96v0c0.862-2.141 1.737-4.276 2.623-6.405v0c0.531-1.273 1.061-2.547 1.6-3.816v0c0.971-2.283 1.963-4.558 2.964-6.827v0c0.475-1.078 0.942-2.162 1.424-3.237v0c1.485-3.314 2.996-6.614 4.544-9.896v0c0.004-0.011 0.008-0.022 0.015-0.031v0c1.555-3.297 3.149-6.574 4.766-9.839v0c0.516-1.039 1.046-2.069 1.567-3.107v0c1.12-2.224 2.248-4.446 3.397-6.654v0c0.626-1.209 1.266-2.412 1.903-3.614v0c1.16-2.192 2.327-4.374 3.512-6.547v0c0.463-0.847 0.924-1.696 1.391-2.54v0c1.683-3.044 3.384-6.078 5.12-9.090v0c0.068-0.113 0.133-0.225 0.2-0.338v0c1.674-2.901 3.384-5.78 5.108-8.649v0c0.512-0.848 1.028-1.695 1.542-2.542v0c1.432-2.352 2.881-4.691 4.345-7.021v0c0.425-0.677 0.844-1.356 1.273-2.030v0c1.839-2.901 3.706-5.782 5.598-8.646v0c0.434-0.659 0.879-1.311 1.316-1.967v0c1.525-2.287 3.064-4.562 4.619-6.823v0c0.568-0.825 1.134-1.65 1.704-2.471v0c1.939-2.787 3.892-5.563 5.881-8.311v0c0.113-0.158 0.229-0.313 0.344-0.471v0c1.91-2.637 3.847-5.251 5.801-7.854v0c0.538-0.716 1.078-1.434 1.621-2.147v0c2.001-2.638 4.016-5.264 6.059-7.863v0c0.082-0.101 0.158-0.204 0.238-0.306v0c2.117-2.687 4.268-5.347 6.428-7.993v0c0.561-0.685 1.122-1.365 1.684-2.045v0c1.964-2.381 3.945-4.748 5.948-7.094v0c0.245-0.283 0.482-0.572 0.726-0.856v0c2.203-2.569 4.433-5.111 6.68-7.636v0c0.589-0.663 1.183-1.322 1.775-1.981v0c1.948-2.171 3.914-4.326 5.895-6.464v0c0.38-0.41 0.756-0.825 1.138-1.235v0c2.299-2.464 4.625-4.904 6.967-7.324v0c0.581-0.602 1.168-1.198 1.753-1.797v0c1.984-2.030 3.978-4.045 5.99-6.040v0c0.482-0.478 0.961-0.961 1.443-1.436v0c2.395-2.359 4.811-4.694 7.245-7.004v0c0.558-0.528 1.119-1.050 1.677-1.575v0c2.046-1.925 4.105-3.832 6.177-5.722v0c0.565-0.516 1.127-1.035 1.694-1.547v0c2.534-2.291 5.086-4.559 7.66-6.797v0c0.462-0.403 0.93-0.796 1.391-1.195v0c2.144-1.854 4.305-3.687 6.475-5.503v0c0.773-0.647 1.551-1.291 2.325-1.932v0c2.136-1.766 4.283-3.512 6.443-5.24v0c0.532-0.427 1.058-0.858 1.59-1.281v0c2.649-2.102 5.317-4.175 8.002-6.223v0c0.666-0.509 1.337-1.006 2.005-1.51v0c2.102-1.587 4.216-3.158 6.34-4.713v0c0.806-0.588 1.61-1.176 2.418-1.76v0c2.513-1.813 5.037-3.609 7.579-5.376v0c0.246-0.17 0.49-0.346 0.735-0.517v0c2.965-2.052 5.949-4.068 8.952-6.053v0c0.843-0.557 1.699-1.096 2.546-1.649v0c2.16-1.409 4.322-2.813 6.503-4.188v0c1.141-0.719 2.294-1.42 3.439-2.129v0c1.907-1.182 3.816-2.359 5.737-3.512v0c1.25-0.75 2.508-1.487 3.764-2.224v0c1.841-1.084 3.682-2.158 5.533-3.217v0c1.306-0.743 2.614-1.478 3.925-2.209v0c1.83-1.024 3.666-2.034 5.507-3.033v0c1.327-0.717 2.656-1.432 3.992-2.139v0c1.858-0.984 3.725-1.952 5.595-2.912v0c1.321-0.677 2.641-1.356 3.967-2.020v0c1.937-0.969 3.884-1.918 5.833-2.862v0c1.267-0.613 2.531-1.233 3.804-1.836v0c2.98-1.409 5.97-2.796 8.977-4.141v0c0.363-0.162 0.728-0.316 1.093-0.478v0c2.715-1.208 5.444-2.385 8.18-3.538v0c0.919-0.388 1.841-0.768 2.761-1.149v0c2.396-0.991 4.797-1.962 7.208-2.909v0c0.779-0.308 1.556-0.622 2.336-0.926v0c3.108-1.203 6.23-2.378 9.363-3.512v0c0.629-0.229 1.262-0.445 1.892-0.67v0c2.558-0.916 5.127-1.807 7.703-2.674v0c0.96-0.325 1.921-0.644 2.883-0.962v0c2.562-0.844 5.131-1.664 7.708-2.46v0c0.664-0.207 1.326-0.419 1.992-0.622v0c3.188-0.971 6.389-1.902 9.6-2.799v0c0.791-0.221 1.583-0.429 2.374-0.647v0c2.509-0.685 5.023-1.349 7.545-1.989v0c0.971-0.248 1.944-0.493 2.919-0.734v0c2.834-0.7 5.677-1.374 8.526-2.016v0c0.445-0.099 0.886-0.208 1.33-0.306v0c3.265-0.726 6.544-1.405 9.829-2.054v0c0.9-0.178 1.801-0.343 2.702-0.516v0c2.509-0.479 5.021-0.935 7.538-1.368v0c0.965-0.166 1.93-0.335 2.897-0.494v0c3.322-0.549 6.652-1.073 9.994-1.541v0c3.007-0.423 6.006-0.803 8.997-1.157v0c0.945-0.112 1.887-0.21 2.828-0.314v0c2.076-0.231 4.151-0.452 6.219-0.649v0c1.062-0.102 2.118-0.199 3.177-0.291v0c2.027-0.181 4.051-0.342 6.073-0.489v0c0.977-0.072 1.96-0.15 2.938-0.212v0c2.516-0.167 5.023-0.306 7.524-0.425v0c0.445-0.019 0.889-0.050 1.33-0.069v0c2.935-0.128 5.863-0.218 8.779-0.28v0c0.841-0.019 1.679-0.022 2.517-0.034v0c2.099-0.033 4.194-0.052 6.283-0.049v0c1.024 0.001 2.041 0.010 3.060 0.018v0c1.958 0.018 3.913 0.052 5.863 0.098v0c0.987 0.023 1.978 0.045 2.964 0.076v0c2.233 0.071 4.456 0.165 6.675 0.275v0c0.653 0.031 1.307 0.053 1.958 0.088v0c2.853 0.157 5.696 0.343 8.53 0.562v0c0.711 0.053 1.417 0.123 2.125 0.181v0c2.137 0.177 4.269 0.368 6.394 0.579v0c0.976 0.098 1.949 0.204 2.921 0.309v0c1.896 0.206 3.79 0.423 5.676 0.656v0c0.98 0.121 1.962 0.242 2.938 0.37v0c2.035 0.268 4.061 0.555 6.084 0.856v0c0.765 0.113 1.534 0.219 2.299 0.336v0c2.759 0.427 5.508 0.884 8.249 1.371v0c0.516 0.093 1.028 0.195 1.545 0.29v0c2.229 0.407 4.449 0.832 6.664 1.278v0c0.919 0.185 1.832 0.381 2.747 0.573v0c1.839 0.387 3.673 0.784 5.501 1.199v0c0.96 0.216 1.921 0.436 2.878 0.662v0c1.884 0.442 3.763 0.903 5.633 1.374v0c0.817 0.207 1.635 0.404 2.448 0.615v0c2.702 0.701 5.391 1.425 8.067 2.186v0c0.37 0.106 0.739 0.221 1.111 0.328v0c2.312 0.666 4.615 1.353 6.909 2.064v0c0.862 0.267 1.722 0.543 2.583 0.817v0c1.842 0.587 3.68 1.186 5.511 1.802v0c0.89 0.298 1.779 0.598 2.667 0.904v0c1.977 0.681 3.944 1.382 5.904 2.098v0c0.655 0.238 1.314 0.47 1.967 0.711v0c2.58 0.96 5.146 1.944 7.694 2.96v0c0.587 0.233 1.169 0.478 1.755 0.715v0c1.982 0.802 3.953 1.616 5.916 2.452v0c0.858 0.365 1.711 0.735 2.565 1.105v0c1.744 0.761 3.482 1.532 5.211 2.317v0c0.83 0.377 1.664 0.751 2.49 1.135v0c2.033 0.941 4.051 1.903 6.064 2.882v0c0.47 0.229 0.945 0.449 1.416 0.681v0c1.409 0.693 2.807 1.408 4.205 2.12v0c0.76 0.387 1.525 0.762 2.282 1.153v0c1.963 1.017 3.915 2.056 5.857 3.108v0c0.184 0.099 0.369 0.193 0.551 0.291v0l-155.149-84.399c-0.135-0.074-0.275-0.144-0.412-0.219v0c-1.988-1.077-3.986-2.14-5.994-3.18v0c-0.757-0.392-1.523-0.768-2.283-1.154v0c-1.401-0.712-2.798-1.427-4.209-2.12v0c-0.084-0.044-0.17-0.088-0.257-0.131v0c-0.377-0.187-0.762-0.358-1.141-0.542v0c-2.018-0.983-4.045-1.948-6.080-2.892v0c-0.825-0.381-1.653-0.756-2.482-1.13v0c-1.733-0.787-3.474-1.563-5.225-2.322v0c-0.849-0.369-1.699-0.738-2.553-1.103v0c-1.969-0.837-3.948-1.655-5.934-2.457v0c-0.58-0.236-1.154-0.478-1.737-0.708v0c-2.554-1.017-5.12-2.004-7.704-2.962v0c-0.647-0.241-1.301-0.468-1.951-0.707v0c-1.964-0.716-3.936-1.419-5.916-2.102v0c-0.888-0.306-1.775-0.606-2.664-0.904v0c-1.834-0.615-3.674-1.216-5.519-1.802v0c-0.856-0.274-1.711-0.55-2.57-0.815v0c-2.303-0.713-4.614-1.402-6.935-2.071v0c-0.365-0.105-0.723-0.218-1.088-0.321v0c-2.678-0.761-5.371-1.487-8.076-2.188v0c-0.215-0.057-0.429-0.12-0.643-0.176v0c-0.594-0.151-1.195-0.286-1.787-0.436v0c-1.88-0.474-3.761-0.935-5.652-1.38v0c-0.954-0.223-1.91-0.442-2.867-0.658v0c-1.83-0.414-3.666-0.814-5.505-1.199v0c-0.918-0.192-1.83-0.388-2.747-0.573v0c-2.215-0.448-4.435-0.871-6.664-1.278v0c-0.516-0.094-1.029-0.199-1.547-0.291v0c-2.74-0.487-5.49-0.942-8.251-1.371v0c-0.761-0.118-1.523-0.222-2.284-0.335v0c-2.027-0.301-4.057-0.589-6.095-0.858v0c-0.977-0.128-1.958-0.249-2.936-0.369v0c-1.888-0.234-3.781-0.452-5.678-0.656v0c-0.972-0.106-1.945-0.211-2.921-0.309v0c-2.125-0.214-4.254-0.402-6.393-0.58v0c-0.709-0.059-1.414-0.125-2.126-0.181v0c-2.833-0.218-5.676-0.406-8.528-0.561v0c-0.652-0.035-1.307-0.057-1.959-0.090v0c-2.22-0.11-4.443-0.203-6.675-0.274v0c-0.987-0.033-1.975-0.053-2.964-0.078v0c-1.951-0.046-3.906-0.080-5.863-0.097v0c-1.021-0.010-2.039-0.018-3.059-0.019v0zM818.14 127.997l-0.022-0.011c0.007 0.004 0.015 0.008 0.022 0.011z"></path>
<path fill="#009fb6" d="M586.282 796.419c123.95-17.42 224.639-139.995 224.887-273.776 0.249-133.773-100.039-228.104-223.987-210.684-123.937 17.419-224.616 139.992-224.865 273.765-0.248 133.781 100.028 228.113 223.965 210.694zM587.597 88.371c238.367-33.499 431.204 147.903 430.726 405.157-0.476 257.276-194.091 492.987-432.458 526.488-238.351 33.498-431.192-147.9-430.714-405.176 0.478-257.254 194.095-492.971 432.446-526.469z"></path>
</svg>
